<svg width="40" height="36" viewBox="0 0 40 36" fill="none" xmlns="http://www.w3.org/2000/svg">
<path d="M20 0C18.7207 0 17.6247 0.779575 17.1605 1.89002L0.46274 30.6881V30.6911C0.161388 31.1766 0.00115717 31.7363 0 32.3077C0 33.1237 0.324175 33.9064 0.90121 34.4834C1.47825 35.0604 2.26087 35.3846 3.07692 35.3846C3.14912 35.3842 3.22128 35.3811 3.29327 35.3756L3.29928 35.3846H20H36.7007L36.7067 35.3726C36.7787 35.3791 36.8508 35.3832 36.9231 35.3846C37.7391 35.3846 38.5218 35.0604 39.0988 34.4834C39.6758 33.9064 40 33.1237 40 32.3077C39.9994 31.7353 39.8392 31.1744 39.5373 30.6881L39.5132 30.646L39.5102 30.643L22.8395 1.89002C22.3753 0.779575 21.2793 0 20 0Z" fill="url(#paint0_linear_5604_1985)"/>
<defs>
<linearGradient id="paint0_linear_5604_1985" x1="5.858" y1="5.18208" x2="30.6916" y2="33.2548" gradientUnits="userSpaceOnUse">
<stop stop-color="#707071"/>
<stop offset="0.525171" stop-color="#59595A"/>
<stop offset="1" stop-color="#4E4E50"/>
</linearGradient>
</defs>
</svg>
