<svg width="320" height="180" viewBox="0 0 320 180" fill="none" xmlns="http://www.w3.org/2000/svg">
<g clip-path="url(#clip0_718_16)">
<rect width="320" height="180" rx="12" fill="url(#paint0_linear_718_16)"/>
<g filter="url(#filter0_f_718_16)">
<circle cx="320.05" cy="-0.0834961" r="169.75" fill="white" fill-opacity="0.12"/>
</g>
<path d="M310.14 -37.9184C342.528 -24.8896 343.851 20.4726 312.278 35.3678L14.0574 176.058C-18.8373 191.576 -53.6936 158.696 -40.1191 124.953L50.1338 -99.3973C58.3786 -119.892 81.6768 -129.823 102.172 -121.579L310.14 -37.9184Z" fill="#26D1FF" fill-opacity="0.08"/>
<path d="M336.259 125.76C365.923 144.165 359.426 189.079 325.761 198.322L64.2277 270.129C29.1542 279.759 0.472262 241.374 19.6479 210.468L124.511 41.4567C136.158 22.6851 160.817 16.9092 179.588 28.5558L336.259 125.76Z" fill="#26D1FF" fill-opacity="0.08"/>
<path fill-rule="evenodd" clip-rule="evenodd" d="M95.7224 60.8054C96.7576 59.7701 96.0244 58 94.5603 58H54.7713C53.8637 58 53.1279 58.7358 53.1279 59.6434V99.4324C53.1279 100.896 54.8981 101.63 55.9333 100.594L63.3622 93.1656C63.6704 92.8574 63.8435 92.4394 63.8435 92.0036V70.3599C63.8435 69.4523 64.5793 68.7165 65.4869 68.7165H87.1305C87.5664 68.7165 87.9844 68.5434 88.2926 68.2352L95.7224 60.8054Z" fill="#252525" fill-opacity="0.3"/>
<g filter="url(#filter1_dddddd_718_16)">
<path d="M76.4574 94.2241C76.8548 94.2241 77.1768 94.5462 77.1768 94.9435V103.576C77.1768 103.974 76.8548 104.296 76.4574 104.296H67.9684C67.5711 104.296 67.249 103.974 67.249 103.576L67.249 94.9435C67.249 94.5462 67.5711 94.2241 67.9684 94.2241H76.4574Z" fill="url(#paint1_linear_718_16)"/>
<path d="M76.4574 83.0013C76.8548 83.0013 77.1768 83.3234 77.1768 83.7207V92.3536C77.1768 92.7509 76.8548 93.073 76.4574 93.073H67.9684C67.5711 93.073 67.249 92.7509 67.249 92.3536L67.249 83.7207C67.249 83.3234 67.5711 83.0013 67.9684 83.0013H76.4574Z" fill="url(#paint2_linear_718_16)"/>
<path d="M87.5363 83.0013C87.9336 83.0013 88.2557 83.3234 88.2557 83.7207V92.3536C88.2557 92.7509 87.9336 93.073 87.5363 93.073H79.0473C78.65 93.073 78.3279 92.7509 78.3279 92.3536V83.7207C78.3279 83.3234 78.65 83.0013 79.0473 83.0013H87.5363Z" fill="url(#paint3_linear_718_16)"/>
<path d="M87.5363 71.7786C87.9336 71.7786 88.2557 72.1007 88.2557 72.498V81.1309C88.2557 81.5282 87.9336 81.8503 87.5363 81.8503H79.0473C78.65 81.8503 78.3279 81.5282 78.3279 81.1309V72.498C78.3279 72.1007 78.65 71.7786 79.0473 71.7786L87.5363 71.7786Z" fill="url(#paint4_linear_718_16)"/>
<path d="M98.6152 83.0013C99.0125 83.0013 99.3346 83.3234 99.3346 83.7207V92.3536C99.3346 92.7509 99.0125 93.073 98.6152 93.073H90.1262C89.7289 93.073 89.4068 92.7509 89.4068 92.3536V83.7207C89.4068 83.3234 89.7289 83.0013 90.1262 83.0013H98.6152Z" fill="url(#paint5_linear_718_16)"/>
<path d="M87.5363 94.2241C87.9336 94.2241 88.2557 94.5462 88.2557 94.9435V103.576C88.2557 103.974 87.9336 104.296 87.5363 104.296H79.0473C78.65 104.296 78.3279 103.974 78.3279 103.576V94.9435C78.3279 94.5462 78.65 94.2241 79.0473 94.2241H87.5363Z" fill="url(#paint6_linear_718_16)"/>
<path d="M98.6152 71.7786C99.0125 71.7786 99.3346 72.1007 99.3346 72.498V81.1309C99.3346 81.5282 99.0125 81.8503 98.6152 81.8503H90.1262C89.7289 81.8503 89.4068 81.5282 89.4068 81.1309V72.498C89.4068 72.1007 89.7289 71.7786 90.1262 71.7786L98.6152 71.7786Z" fill="url(#paint7_linear_718_16)"/>
<path d="M76.4574 71.7786C76.8548 71.7786 77.1768 72.1007 77.1768 72.498V81.1309C77.1768 81.5282 76.8548 81.8503 76.4574 81.8503H67.9684C67.5711 81.8503 67.249 81.5282 67.249 81.1309L67.249 72.498C67.249 72.1007 67.5711 71.7786 67.9684 71.7786L76.4574 71.7786Z" fill="url(#paint8_linear_718_16)"/>
<path d="M76.4574 105.447C76.8548 105.447 77.1768 105.769 77.1768 106.166V114.799C77.1768 115.196 76.8548 115.519 76.4574 115.519H67.9684C67.5711 115.519 67.249 115.196 67.249 114.799L67.249 106.166C67.249 105.769 67.5711 105.447 67.9684 105.447H76.4574Z" fill="url(#paint9_linear_718_16)"/>
<path d="M109.67 71.7786C110.068 71.7786 110.39 72.1007 110.39 72.498V81.1309C110.39 81.5282 110.068 81.8503 109.67 81.8503H101.181C100.784 81.8503 100.462 81.5282 100.462 81.1309V72.498C100.462 72.1007 100.784 71.7786 101.181 71.7786L109.67 71.7786Z" fill="url(#paint10_linear_718_16)"/>
<path d="M77.6794 94.9435C77.6794 94.2686 77.1323 93.7216 76.4574 93.7216H67.9684C67.2936 93.7216 66.7465 94.2686 66.7465 94.9435L66.7465 103.576C66.7465 104.251 67.2936 104.798 67.9684 104.798H76.4574C77.1323 104.798 77.6794 104.251 77.6794 103.576V94.9435ZM77.6794 83.7207C77.6794 83.0459 77.1323 82.4988 76.4574 82.4988H67.9684C67.2936 82.4988 66.7465 83.0459 66.7465 83.7207L66.7465 92.3536C66.7465 93.0285 67.2936 93.5755 67.9684 93.5755H76.4574C77.1323 93.5755 77.6794 93.0285 77.6794 92.3536V83.7207ZM88.7582 83.7207C88.7582 83.0459 88.2111 82.4988 87.5363 82.4988H79.0473C78.3725 82.4988 77.8254 83.0459 77.8254 83.7207V92.3536C77.8254 93.0285 78.3725 93.5755 79.0473 93.5755H87.5363C88.2111 93.5755 88.7582 93.0285 88.7582 92.3536V83.7207ZM88.7582 72.498C88.7582 71.8231 88.2112 71.2761 87.5363 71.2761L79.0473 71.2761C78.3725 71.2761 77.8254 71.8231 77.8254 72.498V81.1309C77.8254 81.8057 78.3725 82.3528 79.0473 82.3528H87.5363C88.2112 82.3528 88.7582 81.8057 88.7582 81.1309V72.498ZM99.8371 83.7207C99.8371 83.0459 99.29 82.4988 98.6152 82.4988H90.1262C89.4513 82.4988 88.9043 83.0459 88.9043 83.7207V92.3536C88.9043 93.0285 89.4513 93.5755 90.1262 93.5755H98.6152C99.29 93.5755 99.8371 93.0285 99.8371 92.3536V83.7207ZM88.7582 94.9435C88.7582 94.2686 88.2112 93.7216 87.5363 93.7216H79.0473C78.3725 93.7216 77.8254 94.2686 77.8254 94.9435V103.576C77.8254 104.251 78.3725 104.798 79.0473 104.798H87.5363C88.2111 104.798 88.7582 104.251 88.7582 103.576V94.9435ZM99.8371 72.498C99.8371 71.8231 99.29 71.2761 98.6152 71.2761L90.1262 71.2761C89.4513 71.2761 88.9043 71.8231 88.9043 72.498V81.1309C88.9043 81.8057 89.4513 82.3528 90.1262 82.3528H98.6152C99.29 82.3528 99.8371 81.8057 99.8371 81.1309V72.498ZM77.6794 72.498C77.6794 71.8231 77.1323 71.2761 76.4574 71.2761L67.9684 71.2761C67.2936 71.2761 66.7465 71.8231 66.7465 72.498L66.7465 81.1309C66.7465 81.8057 67.2936 82.3528 67.9684 82.3528H76.4574C77.1323 82.3528 77.6794 81.8057 77.6794 81.1309V72.498ZM77.6794 106.166C77.6794 105.491 77.1323 104.944 76.4574 104.944H67.9684C67.2936 104.944 66.7465 105.491 66.7465 106.166L66.7465 114.799C66.7465 115.474 67.2936 116.021 67.9684 116.021H76.4574C77.1323 116.021 77.6794 115.474 77.6794 114.799V106.166ZM110.892 72.498C110.892 71.8231 110.345 71.2761 109.67 71.2761L101.181 71.2761C100.507 71.2761 99.9595 71.8231 99.9595 72.498V81.1309C99.9595 81.8057 100.507 82.3528 101.181 82.3528H109.67C110.345 82.3528 110.892 81.8057 110.892 81.1309V72.498Z" stroke="black" stroke-opacity="0.11" stroke-width="1.00502"/>
</g>
<g filter="url(#filter2_dddddd_718_16)">
<mask id="path-9-outside-1_718_16" maskUnits="userSpaceOnUse" x="120.931" y="69.1655" width="147" height="42" fill="black">
<rect fill="white" x="120.931" y="69.1655" width="147" height="42"/>
<path d="M122.313 109.166V71.1074H131.921V109.166H122.313ZM129.935 94.9407V86.8352H148.776V94.9407H129.935ZM129.935 79.2129V71.1074H149.635V79.2129H129.935ZM172.702 109.756C169.804 109.756 167.12 109.273 164.651 108.307C162.181 107.305 160.016 105.927 158.156 104.173C156.33 102.384 154.899 100.291 153.861 97.893C152.859 95.4954 152.358 92.9009 152.358 90.1096C152.358 87.2825 152.859 84.6881 153.861 82.3262C154.899 79.9286 156.33 77.853 158.156 76.0995C160.016 74.346 162.164 72.9682 164.597 71.9662C167.066 70.9642 169.732 70.4632 172.595 70.4632C175.601 70.4632 178.303 70.9463 180.701 71.9126C183.098 72.843 185.21 74.1492 187.035 75.8311L180.593 82.2725C179.699 81.2705 178.589 80.4832 177.265 79.9107C175.941 79.3381 174.384 79.0518 172.595 79.0518C171.056 79.0518 169.643 79.3023 168.354 79.8033C167.102 80.3043 166.011 81.0558 165.08 82.0578C164.15 83.024 163.416 84.1871 162.879 85.5469C162.378 86.9068 162.128 88.4277 162.128 90.1096C162.128 91.7915 162.378 93.3124 162.879 94.6723C163.416 96.0322 164.15 97.2131 165.08 98.2151C166.011 99.1813 167.102 99.9328 168.354 100.47C169.643 100.971 171.056 101.221 172.595 101.221C174.384 101.221 175.959 100.953 177.319 100.416C178.679 99.8433 179.842 99.0382 180.808 98.0004L187.249 104.442C185.389 106.124 183.277 107.43 180.915 108.36C178.589 109.291 175.852 109.756 172.702 109.756ZM201.238 109.702C198.804 109.702 196.639 109.112 194.743 107.931C192.846 106.75 191.361 105.14 190.287 103.1C189.214 101.024 188.677 98.6803 188.677 96.0679C188.677 93.4198 189.214 91.0579 190.287 88.9824C191.361 86.9068 192.846 85.2964 194.743 84.1513C196.639 82.9704 198.804 82.3799 201.238 82.3799C202.884 82.3799 204.387 82.6841 205.747 83.2924C207.107 83.865 208.216 84.6881 209.075 85.7616C209.969 86.8352 210.506 88.0519 210.685 89.4118V102.617C210.506 104.012 209.969 105.247 209.075 106.321C208.216 107.358 207.107 108.181 205.747 108.79C204.387 109.398 202.884 109.702 201.238 109.702ZM203.224 101.382C204.763 101.382 205.997 100.881 206.928 99.8791C207.894 98.8771 208.377 97.5888 208.377 96.0143C208.377 94.9765 208.162 94.0639 207.733 93.2767C207.303 92.4894 206.695 91.8631 205.908 91.3979C205.156 90.9327 204.279 90.7001 203.277 90.7001C202.275 90.7001 201.381 90.9327 200.594 91.3979C199.842 91.8631 199.234 92.5073 198.768 93.3303C198.339 94.1176 198.124 95.0123 198.124 96.0143C198.124 97.0521 198.339 97.9825 198.768 98.8056C199.198 99.5928 199.806 100.219 200.594 100.684C201.381 101.15 202.258 101.382 203.224 101.382ZM208.001 109.166V102.134L209.343 95.6922L208.001 89.3581V82.9167H217.18V109.166H208.001ZM232.615 109.917C231.005 109.917 229.412 109.702 227.838 109.273C226.299 108.843 224.849 108.271 223.49 107.555C222.165 106.804 221.038 105.945 220.108 104.979L225.207 99.7718C226.066 100.666 227.086 101.364 228.267 101.865C229.484 102.366 230.772 102.617 232.132 102.617C232.919 102.617 233.51 102.509 233.903 102.295C234.333 102.08 234.547 101.776 234.547 101.382C234.547 100.81 234.243 100.38 233.635 100.094C233.062 99.7718 232.293 99.5034 231.327 99.2887C230.396 99.0382 229.412 98.7519 228.374 98.4298C227.337 98.0719 226.335 97.6067 225.368 97.0342C224.402 96.4616 223.615 95.6564 223.006 94.6186C222.434 93.5808 222.148 92.2568 222.148 90.6464C222.148 88.9645 222.595 87.4973 223.49 86.2448C224.42 84.9565 225.708 83.9545 227.354 83.2387C229.001 82.4872 230.933 82.1115 233.152 82.1115C235.406 82.1115 237.553 82.5051 239.593 83.2924C241.633 84.0439 243.279 85.1891 244.532 86.7279L239.378 91.9347C238.52 90.9685 237.571 90.3064 236.533 89.9486C235.496 89.5549 234.547 89.3581 233.689 89.3581C232.865 89.3581 232.275 89.4834 231.917 89.7339C231.559 89.9486 231.38 90.2528 231.38 90.6464C231.38 91.1116 231.667 91.4874 232.239 91.7737C232.848 92.0599 233.617 92.3283 234.547 92.5788C235.514 92.7935 236.498 93.0798 237.5 93.4377C238.537 93.7955 239.522 94.2965 240.452 94.9407C241.418 95.549 242.188 96.3721 242.76 97.4099C243.369 98.4477 243.673 99.7897 243.673 101.436C243.673 104.048 242.671 106.124 240.667 107.663C238.663 109.166 235.979 109.917 232.615 109.917ZM251.494 109.166V72.0736H260.834V109.166H251.494ZM245.697 90.7001V82.9167H266.631V90.7001H245.697Z"/>
</mask>
<path d="M122.313 109.166V71.1074H131.921V109.166H122.313ZM129.935 94.9407V86.8352H148.776V94.9407H129.935ZM129.935 79.2129V71.1074H149.635V79.2129H129.935ZM172.702 109.756C169.804 109.756 167.12 109.273 164.651 108.307C162.181 107.305 160.016 105.927 158.156 104.173C156.33 102.384 154.899 100.291 153.861 97.893C152.859 95.4954 152.358 92.9009 152.358 90.1096C152.358 87.2825 152.859 84.6881 153.861 82.3262C154.899 79.9286 156.33 77.853 158.156 76.0995C160.016 74.346 162.164 72.9682 164.597 71.9662C167.066 70.9642 169.732 70.4632 172.595 70.4632C175.601 70.4632 178.303 70.9463 180.701 71.9126C183.098 72.843 185.21 74.1492 187.035 75.8311L180.593 82.2725C179.699 81.2705 178.589 80.4832 177.265 79.9107C175.941 79.3381 174.384 79.0518 172.595 79.0518C171.056 79.0518 169.643 79.3023 168.354 79.8033C167.102 80.3043 166.011 81.0558 165.08 82.0578C164.15 83.024 163.416 84.1871 162.879 85.5469C162.378 86.9068 162.128 88.4277 162.128 90.1096C162.128 91.7915 162.378 93.3124 162.879 94.6723C163.416 96.0322 164.15 97.2131 165.08 98.2151C166.011 99.1813 167.102 99.9328 168.354 100.47C169.643 100.971 171.056 101.221 172.595 101.221C174.384 101.221 175.959 100.953 177.319 100.416C178.679 99.8433 179.842 99.0382 180.808 98.0004L187.249 104.442C185.389 106.124 183.277 107.43 180.915 108.36C178.589 109.291 175.852 109.756 172.702 109.756ZM201.238 109.702C198.804 109.702 196.639 109.112 194.743 107.931C192.846 106.75 191.361 105.14 190.287 103.1C189.214 101.024 188.677 98.6803 188.677 96.0679C188.677 93.4198 189.214 91.0579 190.287 88.9824C191.361 86.9068 192.846 85.2964 194.743 84.1513C196.639 82.9704 198.804 82.3799 201.238 82.3799C202.884 82.3799 204.387 82.6841 205.747 83.2924C207.107 83.865 208.216 84.6881 209.075 85.7616C209.969 86.8352 210.506 88.0519 210.685 89.4118V102.617C210.506 104.012 209.969 105.247 209.075 106.321C208.216 107.358 207.107 108.181 205.747 108.79C204.387 109.398 202.884 109.702 201.238 109.702ZM203.224 101.382C204.763 101.382 205.997 100.881 206.928 99.8791C207.894 98.8771 208.377 97.5888 208.377 96.0143C208.377 94.9765 208.162 94.0639 207.733 93.2767C207.303 92.4894 206.695 91.8631 205.908 91.3979C205.156 90.9327 204.279 90.7001 203.277 90.7001C202.275 90.7001 201.381 90.9327 200.594 91.3979C199.842 91.8631 199.234 92.5073 198.768 93.3303C198.339 94.1176 198.124 95.0123 198.124 96.0143C198.124 97.0521 198.339 97.9825 198.768 98.8056C199.198 99.5928 199.806 100.219 200.594 100.684C201.381 101.15 202.258 101.382 203.224 101.382ZM208.001 109.166V102.134L209.343 95.6922L208.001 89.3581V82.9167H217.18V109.166H208.001ZM232.615 109.917C231.005 109.917 229.412 109.702 227.838 109.273C226.299 108.843 224.849 108.271 223.49 107.555C222.165 106.804 221.038 105.945 220.108 104.979L225.207 99.7718C226.066 100.666 227.086 101.364 228.267 101.865C229.484 102.366 230.772 102.617 232.132 102.617C232.919 102.617 233.51 102.509 233.903 102.295C234.333 102.08 234.547 101.776 234.547 101.382C234.547 100.81 234.243 100.38 233.635 100.094C233.062 99.7718 232.293 99.5034 231.327 99.2887C230.396 99.0382 229.412 98.7519 228.374 98.4298C227.337 98.0719 226.335 97.6067 225.368 97.0342C224.402 96.4616 223.615 95.6564 223.006 94.6186C222.434 93.5808 222.148 92.2568 222.148 90.6464C222.148 88.9645 222.595 87.4973 223.49 86.2448C224.42 84.9565 225.708 83.9545 227.354 83.2387C229.001 82.4872 230.933 82.1115 233.152 82.1115C235.406 82.1115 237.553 82.5051 239.593 83.2924C241.633 84.0439 243.279 85.1891 244.532 86.7279L239.378 91.9347C238.52 90.9685 237.571 90.3064 236.533 89.9486C235.496 89.5549 234.547 89.3581 233.689 89.3581C232.865 89.3581 232.275 89.4834 231.917 89.7339C231.559 89.9486 231.38 90.2528 231.38 90.6464C231.38 91.1116 231.667 91.4874 232.239 91.7737C232.848 92.0599 233.617 92.3283 234.547 92.5788C235.514 92.7935 236.498 93.0798 237.5 93.4377C238.537 93.7955 239.522 94.2965 240.452 94.9407C241.418 95.549 242.188 96.3721 242.76 97.4099C243.369 98.4477 243.673 99.7897 243.673 101.436C243.673 104.048 242.671 106.124 240.667 107.663C238.663 109.166 235.979 109.917 232.615 109.917ZM251.494 109.166V72.0736H260.834V109.166H251.494ZM245.697 90.7001V82.9167H266.631V90.7001H245.697Z" fill="url(#paint11_linear_718_16)"/>
<path d="M122.313 109.166H121.5V109.979H122.313V109.166ZM122.313 71.1074V70.2941H121.5V71.1074H122.313ZM131.921 71.1074H132.735V70.2941H131.921V71.1074ZM131.921 109.166V109.979H132.735V109.166H131.921ZM129.935 94.9407H129.122V95.754H129.935V94.9407ZM129.935 86.8352V86.0219H129.122V86.8352H129.935ZM148.776 86.8352H149.59V86.0219H148.776V86.8352ZM148.776 94.9407V95.754H149.59V94.9407H148.776ZM129.935 79.2129H129.122V80.0262H129.935V79.2129ZM129.935 71.1074V70.2941H129.122V71.1074H129.935ZM149.635 71.1074H150.449V70.2941H149.635V71.1074ZM149.635 79.2129V80.0262H150.449V79.2129H149.635ZM123.126 109.166V71.1074H121.5V109.166H123.126ZM122.313 71.9207H131.921V70.2941H122.313V71.9207ZM131.108 71.1074V109.166H132.735V71.1074H131.108ZM131.921 108.352H122.313V109.979H131.921V108.352ZM130.749 94.9407V86.8352H129.122V94.9407H130.749ZM129.935 87.6485H148.776V86.0219H129.935V87.6485ZM147.963 86.8352V94.9407H149.59V86.8352H147.963ZM148.776 94.1274H129.935V95.754H148.776V94.1274ZM130.749 79.2129V71.1074H129.122V79.2129H130.749ZM129.935 71.9207H149.635V70.2941H129.935V71.9207ZM148.822 71.1074V79.2129H150.449V71.1074H148.822ZM149.635 78.3995H129.935V80.0262H149.635V78.3995ZM164.651 108.307L164.345 109.06L164.354 109.064L164.651 108.307ZM158.156 104.173L157.586 104.754L157.592 104.76L157.598 104.765L158.156 104.173ZM153.861 97.893L153.111 98.2066L153.115 98.2161L153.861 97.893ZM153.861 82.3262L153.115 82.0031L153.113 82.0086L153.861 82.3262ZM158.156 76.0995L157.598 75.5075L157.592 75.513L158.156 76.0995ZM164.597 71.9662L164.291 71.2126L164.287 71.2142L164.597 71.9662ZM180.701 71.9126L180.397 72.667L180.406 72.6708L180.701 71.9126ZM187.035 75.8311L187.61 76.4062L188.209 75.8071L187.586 75.233L187.035 75.8311ZM180.593 82.2725L179.987 82.8142L180.56 83.4562L181.168 82.8476L180.593 82.2725ZM177.265 79.9107L176.942 80.6572V80.6572L177.265 79.9107ZM168.354 79.8033L168.06 79.0453L168.052 79.0482L168.354 79.8033ZM165.08 82.0578L165.666 82.622L165.671 82.6166L165.676 82.6112L165.08 82.0578ZM162.879 85.5469L162.123 85.2483L162.119 85.257L162.116 85.2658L162.879 85.5469ZM162.879 94.6723L162.116 94.9535L162.119 94.9622L162.123 94.9709L162.879 94.6723ZM165.08 98.2151L164.484 98.7685L164.489 98.7739L164.494 98.7792L165.08 98.2151ZM168.354 100.47L168.034 101.217L168.047 101.223L168.06 101.228L168.354 100.47ZM177.319 100.416L177.617 101.172L177.626 101.169L177.634 101.165L177.319 100.416ZM180.808 98.0004L181.383 97.4253L180.787 96.8293L180.213 97.4462L180.808 98.0004ZM187.249 104.442L187.795 105.045L188.429 104.472L187.824 103.867L187.249 104.442ZM180.915 108.36L180.617 107.604L180.613 107.605L180.915 108.36ZM172.702 108.943C169.896 108.943 167.313 108.475 164.947 107.549L164.354 109.064C166.926 110.071 169.712 110.569 172.702 110.569V108.943ZM164.956 107.553C162.577 106.587 160.498 105.263 158.713 103.581L157.598 104.765C159.535 106.591 161.786 108.022 164.345 109.06L164.956 107.553ZM158.725 103.593C156.977 101.879 155.605 99.8732 154.608 97.57L153.115 98.2161C154.193 100.708 155.684 102.89 157.586 104.754L158.725 103.593ZM154.612 97.5794C153.654 95.2883 153.172 92.8013 153.172 90.1096H151.545C151.545 93.0005 152.064 95.7024 153.111 98.2066L154.612 97.5794ZM153.172 90.1096C153.172 87.3805 153.655 84.8954 154.61 82.6439L153.113 82.0086C152.064 84.4807 151.545 87.1846 151.545 90.1096H153.172ZM154.608 82.6493C155.604 80.3474 156.974 78.3623 158.719 76.686L157.592 75.513C155.687 77.3437 154.194 79.5097 153.115 82.0031L154.608 82.6493ZM158.713 76.6914C160.5 75.008 162.562 73.6836 164.907 72.7183L164.287 71.2142C161.765 72.2529 159.533 73.684 157.598 75.5076L158.713 76.6914ZM164.903 72.7199C167.268 71.7601 169.829 71.2765 172.595 71.2765V69.6499C169.635 69.6499 166.865 70.1683 164.291 71.2126L164.903 72.7199ZM172.595 71.2765C175.514 71.2765 178.11 71.7454 180.397 72.6669L181.005 71.1582C178.496 70.1472 175.689 69.6499 172.595 69.6499V71.2765ZM180.406 72.6708C182.713 73.5657 184.736 74.8187 186.483 76.4292L187.586 75.233C185.683 73.4796 183.484 72.1202 180.995 71.1543L180.406 72.6708ZM186.46 75.256L180.018 81.6974L181.168 82.8476L187.61 76.4062L186.46 75.256ZM181.2 81.7309C180.221 80.6344 179.012 79.7801 177.588 79.1642L176.942 80.6572C178.166 81.1864 179.176 81.9067 179.987 82.8142L181.2 81.7309ZM177.588 79.1642C176.141 78.5383 174.47 78.2385 172.595 78.2385V79.8651C174.299 79.8651 175.742 80.1379 176.942 80.6572L177.588 79.1642ZM172.595 78.2385C170.967 78.2385 169.452 78.5038 168.06 79.0453L168.649 80.5613C169.834 80.1008 171.146 79.8651 172.595 79.8651V78.2385ZM168.052 79.0482C166.687 79.5945 165.495 80.4155 164.484 81.5044L165.676 82.6112C166.526 81.6961 167.517 81.0142 168.657 80.5585L168.052 79.0482ZM164.494 81.4937C163.484 82.543 162.695 83.7986 162.123 85.2483L163.636 85.8456C164.137 84.5756 164.816 83.505 165.666 82.622L164.494 81.4937ZM162.116 85.2658C161.577 86.7288 161.314 88.3469 161.314 90.1096H162.941C162.941 88.5085 163.179 87.0847 163.642 85.8281L162.116 85.2658ZM161.314 90.1096C161.314 91.8723 161.577 93.4904 162.116 94.9535L163.642 94.3911C163.179 93.1345 162.941 91.7107 162.941 90.1096H161.314ZM162.123 94.9709C162.694 96.4184 163.48 97.6873 164.484 98.7685L165.676 97.6617C164.819 96.7389 164.138 95.6459 163.636 94.3737L162.123 94.9709ZM164.494 98.7792C165.501 99.825 166.683 100.638 168.034 101.217L168.675 99.722C167.521 99.2273 166.52 98.5376 165.666 97.6509L164.494 98.7792ZM168.06 101.228C169.452 101.769 170.967 102.034 172.595 102.034V100.408C171.146 100.408 169.834 100.172 168.649 99.7116L168.06 101.228ZM172.595 102.034C174.464 102.034 176.144 101.754 177.617 101.172L177.02 99.6594C175.774 100.151 174.304 100.408 172.595 100.408V102.034ZM177.634 101.165C179.096 100.55 180.355 99.68 181.403 98.5546L180.213 97.4462C179.328 98.3964 178.261 99.1365 177.003 99.6663L177.634 101.165ZM180.233 98.5755L186.674 105.017L187.824 103.867L181.383 97.4253L180.233 98.5755ZM186.704 103.838C184.917 105.454 182.889 106.709 180.617 107.604L181.213 109.117C183.665 108.151 185.86 106.793 187.795 105.045L186.704 103.838ZM180.613 107.605C178.404 108.489 175.774 108.943 172.702 108.943V110.569C175.929 110.569 178.774 110.093 181.217 109.115L180.613 107.605ZM194.743 107.931L195.172 107.241L194.743 107.931ZM190.287 103.1L189.565 103.474L189.568 103.479L190.287 103.1ZM190.287 88.9824L191.01 89.356V89.356L190.287 88.9824ZM194.743 84.1513L195.163 84.8476L195.172 84.8417L194.743 84.1513ZM205.747 83.2924L205.415 84.0348L205.423 84.0385L205.431 84.042L205.747 83.2924ZM209.075 85.7616L208.44 86.2697L208.445 86.2761L208.45 86.2823L209.075 85.7616ZM210.685 89.4118H211.498V89.3585L211.491 89.3057L210.685 89.4118ZM210.685 102.617L211.492 102.72L211.498 102.669V102.617H210.685ZM209.075 106.321L208.45 105.8L208.448 105.802L209.075 106.321ZM205.747 108.79L205.415 108.047L205.747 108.79ZM206.928 99.8791L206.342 99.3146L206.337 99.3201L206.332 99.3257L206.928 99.8791ZM207.733 93.2767L207.019 93.6661V93.6661L207.733 93.2767ZM205.908 91.3979L205.48 92.0894L205.487 92.0938L205.494 92.0981L205.908 91.3979ZM200.594 91.3979L200.18 90.6977L200.173 90.702L200.165 90.7064L200.594 91.3979ZM198.768 93.3303L198.06 92.9301L198.054 92.9409L198.768 93.3303ZM198.768 98.8056L198.047 99.1818L198.051 99.1884L198.054 99.195L198.768 98.8056ZM200.594 100.684L201.007 99.9841L200.594 100.684ZM208.001 109.166H207.188V109.979H208.001V109.166ZM208.001 102.134L207.205 101.968L207.188 102.05V102.134H208.001ZM209.343 95.6922L210.139 95.8581L210.174 95.6908L210.139 95.5236L209.343 95.6922ZM208.001 89.3581H207.188V89.4433L207.206 89.5267L208.001 89.3581ZM208.001 82.9167V82.1034H207.188V82.9167H208.001ZM217.18 82.9167H217.994V82.1034H217.18V82.9167ZM217.18 109.166V109.979H217.994V109.166H217.18ZM201.238 108.889C198.942 108.889 196.929 108.334 195.172 107.241L194.313 108.621C196.35 109.89 198.666 110.516 201.238 110.516V108.889ZM195.172 107.241C193.402 106.138 192.016 104.637 191.007 102.721L189.568 103.479C190.706 105.642 192.289 107.362 194.313 108.621L195.172 107.241ZM191.01 102.726C190.003 100.779 189.49 98.5658 189.49 96.0679H187.864C187.864 98.7948 188.425 101.269 189.565 103.473L191.01 102.726ZM189.49 96.0679C189.49 93.5323 190.003 91.3015 191.01 89.356L189.565 88.6087C188.424 90.8144 187.864 93.3073 187.864 96.0679H189.49ZM191.01 89.356C192.018 87.4062 193.402 85.9108 195.163 84.8475L194.322 83.455C192.29 84.6821 190.703 86.4074 189.565 88.6087L191.01 89.356ZM195.172 84.8417C196.929 83.7482 198.942 83.1932 201.238 83.1932V81.5666C198.666 81.5666 196.35 82.1925 194.313 83.4609L195.172 84.8417ZM201.238 83.1932C202.781 83.1932 204.17 83.4779 205.415 84.0348L206.079 82.55C204.604 81.8902 202.986 81.5666 201.238 81.5666V83.1932ZM205.431 84.042C206.675 84.5659 207.672 85.3097 208.44 86.2697L209.71 85.2536C208.76 84.0664 207.538 83.1641 206.062 82.5429L205.431 84.042ZM208.45 86.2823C209.248 87.24 209.72 88.3136 209.879 89.5179L211.491 89.3057C211.292 87.7902 210.691 86.4304 209.7 85.241L208.45 86.2823ZM209.872 89.4118V102.617H211.498V89.4118H209.872ZM209.878 102.513C209.719 103.757 209.245 104.846 208.45 105.8L209.7 106.841C210.694 105.648 211.293 104.268 211.492 102.72L209.878 102.513ZM208.448 105.802C207.677 106.734 206.673 107.485 205.415 108.047L206.079 109.532C207.54 108.878 208.755 107.983 209.701 106.839L208.448 105.802ZM205.415 108.047C204.17 108.604 202.781 108.889 201.238 108.889V110.516C202.986 110.516 204.604 110.192 206.079 109.532L205.415 108.047ZM203.224 102.195C204.957 102.195 206.419 101.622 207.524 100.433L206.332 99.3257C205.575 100.14 204.568 100.569 203.224 100.569V102.195ZM207.513 100.444C208.645 99.2698 209.19 97.7695 209.19 96.0143H207.564C207.564 97.4082 207.143 98.4844 206.342 99.3146L207.513 100.444ZM209.19 96.0143C209.19 94.8619 208.951 93.8115 208.447 92.8872L207.019 93.6661C207.373 94.3163 207.564 95.091 207.564 96.0143H209.19ZM208.447 92.8872C207.946 91.9685 207.232 91.236 206.321 90.6977L205.494 92.0981C206.158 92.4902 206.661 93.0102 207.019 93.6661L208.447 92.8872ZM206.336 90.7064C205.439 90.1513 204.41 89.8868 203.277 89.8868V91.5134C204.149 91.5134 204.873 91.7141 205.48 92.0894L206.336 90.7064ZM203.277 89.8868C202.144 89.8868 201.104 90.1515 200.18 90.6977L201.007 92.0981C201.657 91.7139 202.407 91.5134 203.277 91.5134V89.8868ZM200.165 90.7064C199.29 91.2486 198.588 91.9965 198.06 92.9301L199.477 93.7305C199.879 93.018 200.395 92.4776 201.022 92.0894L200.165 90.7064ZM198.054 92.9409C197.553 93.8611 197.311 94.8924 197.311 96.0143H198.938C198.938 95.1321 199.126 94.3741 199.482 93.7198L198.054 92.9409ZM197.311 96.0143C197.311 97.1674 197.551 98.2294 198.047 99.1818L199.49 98.4293C199.128 97.7355 198.938 96.9367 198.938 96.0143H197.311ZM198.054 99.195C198.556 100.114 199.269 100.846 200.18 101.385L201.007 99.9841C200.344 99.592 199.84 99.072 199.482 98.4161L198.054 99.195ZM200.18 101.385C201.1 101.928 202.121 102.195 203.224 102.195V100.569C202.395 100.569 201.662 100.371 201.007 99.9841L200.18 101.385ZM208.814 109.166V102.134H207.188V109.166H208.814ZM208.797 102.3L210.139 95.8581L208.547 95.5263L207.205 101.968L208.797 102.3ZM210.139 95.5236L208.797 89.1895L207.206 89.5267L208.548 95.8608L210.139 95.5236ZM208.814 89.3581V82.9167H207.188V89.3581H208.814ZM208.001 83.73H217.18V82.1034H208.001V83.73ZM216.367 82.9167V109.166H217.994V82.9167H216.367ZM217.18 108.352H208.001V109.979H217.18V108.352ZM227.838 109.273L227.619 110.056L227.624 110.058L227.838 109.273ZM223.49 107.555L223.088 108.262L223.099 108.269L223.111 108.275L223.49 107.555ZM220.108 104.979L219.527 104.41L218.974 104.974L219.522 105.543L220.108 104.979ZM225.207 99.7718L225.794 99.2085L225.213 98.6034L224.626 99.2027L225.207 99.7718ZM228.267 101.865L227.949 102.614L227.957 102.617L228.267 101.865ZM233.903 102.295L233.539 101.567L233.527 101.574L233.514 101.581L233.903 102.295ZM233.635 100.094L233.236 100.803L233.262 100.817L233.289 100.83L233.635 100.094ZM231.327 99.2887L231.115 100.074L231.133 100.079L231.15 100.083L231.327 99.2887ZM228.374 98.4298L228.109 99.1987L228.121 99.2028L228.133 99.2066L228.374 98.4298ZM223.006 94.6186L222.294 95.0115L222.299 95.0208L222.305 95.0299L223.006 94.6186ZM223.49 86.2448L222.83 85.7686L222.828 85.772L223.49 86.2448ZM227.354 83.2388L227.679 83.9846L227.685 83.9817L227.692 83.9786L227.354 83.2388ZM239.593 83.2924L239.3 84.0513L239.312 84.0556L239.593 83.2924ZM244.532 86.7279L245.11 87.3L245.623 86.7809L245.162 86.2144L244.532 86.7279ZM239.378 91.9347L238.771 92.475L239.347 93.1231L239.957 92.5068L239.378 91.9347ZM236.533 89.9486L236.245 90.709L236.257 90.7134L236.268 90.7175L236.533 89.9486ZM231.917 89.7339L232.336 90.4313L232.36 90.4166L232.384 90.4002L231.917 89.7339ZM232.239 91.7737L231.875 92.5011L231.884 92.5054L231.893 92.5096L232.239 91.7737ZM234.547 92.5788L234.336 93.3642L234.353 93.3689L234.371 93.3728L234.547 92.5788ZM237.5 93.4377L237.226 94.2037L237.235 94.2066L237.5 93.4377ZM240.452 94.9407L239.989 95.6094L240.004 95.6195L240.019 95.6289L240.452 94.9407ZM242.76 97.4099L242.048 97.8028L242.053 97.8121L242.059 97.8212L242.76 97.4099ZM240.667 107.663L241.155 108.313L241.162 108.308L240.667 107.663ZM232.615 109.104C231.078 109.104 229.557 108.899 228.052 108.488L227.624 110.058C229.267 110.506 230.931 110.73 232.615 110.73V109.104ZM228.056 108.49C226.571 108.075 225.175 107.523 223.868 106.835L223.111 108.275C224.524 109.018 226.027 109.612 227.619 110.056L228.056 108.49ZM223.891 106.848C222.626 106.13 221.563 105.317 220.694 104.414L219.522 105.543C220.513 106.572 221.705 107.478 223.088 108.262L223.891 106.848ZM220.689 105.548L225.788 100.341L224.626 99.2027L219.527 104.41L220.689 105.548ZM224.621 100.335C225.558 101.312 226.671 102.071 227.949 102.614L228.585 101.117C227.501 100.657 226.574 100.021 225.794 99.2085L224.621 100.335ZM227.957 102.617C229.276 103.16 230.669 103.43 232.132 103.43V101.803C230.875 101.803 229.692 101.572 228.577 101.113L227.957 102.617ZM232.132 103.43C232.966 103.43 233.72 103.321 234.293 103.009L233.514 101.581C233.299 101.698 232.872 101.803 232.132 101.803V103.43ZM234.267 103.022C234.568 102.872 234.847 102.663 235.051 102.375C235.261 102.077 235.361 101.737 235.361 101.382H233.734C233.734 101.406 233.731 101.417 233.73 101.421C233.729 101.425 233.727 101.429 233.722 101.436C233.711 101.452 233.668 101.503 233.539 101.567L234.267 103.022ZM235.361 101.382C235.361 100.943 235.241 100.525 234.983 100.161C234.73 99.8038 234.378 99.5446 233.981 99.3579L233.289 100.83C233.5 100.929 233.604 101.028 233.656 101.101C233.702 101.166 233.734 101.249 233.734 101.382H235.361ZM234.034 99.385C233.366 99.0094 232.512 98.7189 231.503 98.4947L231.15 100.083C232.074 100.288 232.759 100.534 233.236 100.803L234.034 99.385ZM231.538 98.5033C230.619 98.2558 229.645 97.9724 228.615 97.653L228.133 99.2066C229.18 99.5313 230.174 99.8205 231.115 100.074L231.538 98.5033ZM228.639 97.6609C227.655 97.3214 226.703 96.8796 225.783 96.3345L224.954 97.7338C225.966 98.3338 227.018 98.8225 228.109 99.1987L228.639 97.6609ZM225.783 96.3345C224.944 95.8371 224.252 95.1349 223.708 94.2073L222.305 95.0299C222.978 96.1779 223.861 97.086 224.954 97.7338L225.783 96.3345ZM223.719 94.2257C223.232 93.3437 222.961 92.1665 222.961 90.6464H221.334C221.334 92.347 221.636 93.818 222.294 95.0115L223.719 94.2257ZM222.961 90.6464C222.961 89.1175 223.364 87.8192 224.151 86.7175L222.828 85.772C221.825 87.1753 221.334 88.8115 221.334 90.6464H222.961ZM224.149 86.7209C224.983 85.5657 226.149 84.6498 227.679 83.9846L227.03 82.4929C225.268 83.2591 223.857 84.3472 222.83 85.7686L224.149 86.7209ZM227.692 83.9786C229.211 83.2852 231.024 82.9248 233.152 82.9248V81.2982C230.842 81.2982 228.79 81.6893 227.017 82.4989L227.692 83.9786ZM233.152 82.9248C235.309 82.9248 237.357 83.3011 239.3 84.0512L239.886 82.5337C237.75 81.7092 235.503 81.2982 233.152 81.2982V82.9248ZM239.312 84.0556C241.228 84.7617 242.749 85.8262 243.901 87.2413L245.162 86.2144C243.809 84.5519 242.037 83.3262 239.874 82.5293L239.312 84.0556ZM243.954 86.1557L238.8 91.3626L239.957 92.5068L245.11 87.3L243.954 86.1557ZM239.986 91.3944C239.051 90.3424 237.99 89.5905 236.799 89.1797L236.268 90.7175C237.152 91.0223 237.988 91.5945 238.771 92.475L239.986 91.3944ZM236.822 89.1881C235.718 88.7693 234.67 88.5448 233.689 88.5448V90.1714C234.425 90.1714 235.274 90.3406 236.245 90.709L236.822 89.1881ZM233.689 88.5448C232.825 88.5448 232.021 88.6683 231.451 89.0676L232.384 90.4002C232.529 90.2985 232.906 90.1714 233.689 90.1714V88.5448ZM231.499 89.0365C230.914 89.3874 230.567 89.9468 230.567 90.6464H232.194C232.194 90.5774 232.208 90.5485 232.216 90.5354C232.225 90.5201 232.252 90.4815 232.336 90.4313L231.499 89.0365ZM230.567 90.6464C230.567 91.534 231.147 92.1369 231.875 92.5011L232.603 91.0462C232.186 90.8378 232.194 90.6893 232.194 90.6464H230.567ZM231.893 92.5096C232.559 92.8229 233.377 93.1061 234.336 93.3642L234.759 91.7935C233.857 91.5506 233.136 91.2969 232.585 91.0378L231.893 92.5096ZM234.371 93.3728C235.302 93.5797 236.254 93.8563 237.226 94.2036L237.773 92.6718C236.742 92.3034 235.725 92.0074 234.724 91.7849L234.371 93.3728ZM237.235 94.2066C238.2 94.5395 239.118 95.0062 239.989 95.6094L240.915 94.272C239.925 93.5869 238.875 93.0516 237.765 92.6688L237.235 94.2066ZM240.019 95.6289C240.864 96.1612 241.539 96.8807 242.048 97.8028L243.472 97.017C242.836 95.8636 241.973 94.9369 240.885 94.2524L240.019 95.6289ZM242.059 97.8212C242.572 98.6965 242.859 99.8832 242.859 101.436H244.486C244.486 99.6962 244.165 98.1988 243.462 96.9986L242.059 97.8212ZM242.859 101.436C242.859 103.805 241.967 105.639 240.171 107.017L241.162 108.308C243.374 106.609 244.486 104.291 244.486 101.436H242.859ZM240.179 107.012C238.357 108.378 235.863 109.104 232.615 109.104V110.73C236.095 110.73 238.969 109.953 241.155 108.313L240.179 107.012ZM251.494 109.166H250.681V109.979H251.494V109.166ZM251.494 72.0736V71.2603H250.681V72.0736H251.494ZM260.834 72.0736H261.647V71.2603H260.834V72.0736ZM260.834 109.166V109.979H261.647V109.166H260.834ZM245.697 90.7001H244.883V91.5134H245.697V90.7001ZM245.697 82.9167V82.1034H244.883V82.9167H245.697ZM266.631 82.9167H267.445V82.1034H266.631V82.9167ZM266.631 90.7001V91.5134H267.445V90.7001H266.631ZM252.307 109.166V72.0736H250.681V109.166H252.307ZM251.494 72.8869H260.834V71.2603H251.494V72.8869ZM260.021 72.0736V109.166H261.647V72.0736H260.021ZM260.834 108.352H251.494V109.979H260.834V108.352ZM246.51 90.7001V82.9167H244.883V90.7001H246.51ZM245.697 83.73H266.631V82.1034H245.697V83.73ZM265.818 82.9167V90.7001H267.445V82.9167H265.818ZM266.631 89.8868H245.697V91.5134H266.631V89.8868Z" fill="black" fill-opacity="0.11" mask="url(#path-9-outside-1_718_16)"/>
</g>
</g>
<rect x="0.0833333" y="0.0833333" width="319.833" height="179.833" rx="11.9167" stroke="url(#paint12_linear_718_16)" stroke-width="0.166667"/>
<defs>
<filter id="filter0_f_718_16" x="-16.3669" y="-336.5" width="672.833" height="672.833" filterUnits="userSpaceOnUse" color-interpolation-filters="sRGB">
<feFlood flood-opacity="0" result="BackgroundImageFix"/>
<feBlend mode="normal" in="SourceGraphic" in2="BackgroundImageFix" result="shape"/>
<feGaussianBlur stdDeviation="83.3333" result="effect1_foregroundBlur_718_16"/>
</filter>
<filter id="filter1_dddddd_718_16" x="26.0433" y="70.122" width="125.552" height="136.853" filterUnits="userSpaceOnUse" color-interpolation-filters="sRGB">
<feFlood flood-opacity="0" result="BackgroundImageFix"/>
<feColorMatrix in="SourceAlpha" type="matrix" values="0 0 0 0 0 0 0 0 0 0 0 0 0 0 0 0 0 0 127 0" result="hardAlpha"/>
<feOffset dy="0.930574"/>
<feGaussianBlur stdDeviation="0.790988"/>
<feColorMatrix type="matrix" values="0 0 0 0 0 0 0 0 0 0 0 0 0 0 0 0 0 0 0.0312963 0"/>
<feBlend mode="normal" in2="BackgroundImageFix" result="effect1_dropShadow_718_16"/>
<feColorMatrix in="SourceAlpha" type="matrix" values="0 0 0 0 0 0 0 0 0 0 0 0 0 0 0 0 0 0 127 0" result="hardAlpha"/>
<feOffset dy="4.09453"/>
<feGaussianBlur stdDeviation="1.63781"/>
<feColorMatrix type="matrix" values="0 0 0 0 0 0 0 0 0 0 0 0 0 0 0 0 0 0 0.051037 0"/>
<feBlend mode="normal" in2="effect1_dropShadow_718_16" result="effect2_dropShadow_718_16"/>
<feColorMatrix in="SourceAlpha" type="matrix" values="0 0 0 0 0 0 0 0 0 0 0 0 0 0 0 0 0 0 127 0" result="hardAlpha"/>
<feOffset dy="10.0502"/>
<feGaussianBlur stdDeviation="3.26632"/>
<feColorMatrix type="matrix" values="0 0 0 0 0 0 0 0 0 0 0 0 0 0 0 0 0 0 0.065 0"/>
<feBlend mode="normal" in2="effect2_dropShadow_718_16" result="effect3_dropShadow_718_16"/>
<feColorMatrix in="SourceAlpha" type="matrix" values="0 0 0 0 0 0 0 0 0 0 0 0 0 0 0 0 0 0 127 0" result="hardAlpha"/>
<feOffset dy="19.3559"/>
<feGaussianBlur stdDeviation="6.40235"/>
<feColorMatrix type="matrix" values="0 0 0 0 0 0 0 0 0 0 0 0 0 0 0 0 0 0 0.078963 0"/>
<feBlend mode="normal" in2="effect3_dropShadow_718_16" result="effect4_dropShadow_718_16"/>
<feColorMatrix in="SourceAlpha" type="matrix" values="0 0 0 0 0 0 0 0 0 0 0 0 0 0 0 0 0 0 127 0" result="hardAlpha"/>
<feOffset dy="32.5701"/>
<feGaussianBlur stdDeviation="11.7718"/>
<feColorMatrix type="matrix" values="0 0 0 0 0 0 0 0 0 0 0 0 0 0 0 0 0 0 0.0987037 0"/>
<feBlend mode="normal" in2="effect4_dropShadow_718_16" result="effect5_dropShadow_718_16"/>
<feColorMatrix in="SourceAlpha" type="matrix" values="0 0 0 0 0 0 0 0 0 0 0 0 0 0 0 0 0 0 127 0" result="hardAlpha"/>
<feOffset dy="50.251"/>
<feGaussianBlur stdDeviation="20.1004"/>
<feColorMatrix type="matrix" values="0 0 0 0 0 0 0 0 0 0 0 0 0 0 0 0 0 0 0.13 0"/>
<feBlend mode="normal" in2="effect5_dropShadow_718_16" result="effect6_dropShadow_718_16"/>
<feBlend mode="normal" in="SourceGraphic" in2="effect6_dropShadow_718_16" result="shape"/>
</filter>
<filter id="filter2_dddddd_718_16" x="89.7805" y="69.936" width="209.383" height="113.179" filterUnits="userSpaceOnUse" color-interpolation-filters="sRGB">
<feFlood flood-opacity="0" result="BackgroundImageFix"/>
<feColorMatrix in="SourceAlpha" type="matrix" values="0 0 0 0 0 0 0 0 0 0 0 0 0 0 0 0 0 0 127 0" result="hardAlpha"/>
<feOffset dy="0.753067"/>
<feGaussianBlur stdDeviation="0.640107"/>
<feColorMatrix type="matrix" values="0 0 0 0 0 0 0 0 0 0 0 0 0 0 0 0 0 0 0.0312963 0"/>
<feBlend mode="normal" in2="BackgroundImageFix" result="effect1_dropShadow_718_16"/>
<feColorMatrix in="SourceAlpha" type="matrix" values="0 0 0 0 0 0 0 0 0 0 0 0 0 0 0 0 0 0 127 0" result="hardAlpha"/>
<feOffset dy="3.3135"/>
<feGaussianBlur stdDeviation="1.3254"/>
<feColorMatrix type="matrix" values="0 0 0 0 0 0 0 0 0 0 0 0 0 0 0 0 0 0 0.051037 0"/>
<feBlend mode="normal" in2="effect1_dropShadow_718_16" result="effect2_dropShadow_718_16"/>
<feColorMatrix in="SourceAlpha" type="matrix" values="0 0 0 0 0 0 0 0 0 0 0 0 0 0 0 0 0 0 127 0" result="hardAlpha"/>
<feOffset dy="8.13312"/>
<feGaussianBlur stdDeviation="2.64327"/>
<feColorMatrix type="matrix" values="0 0 0 0 0 0 0 0 0 0 0 0 0 0 0 0 0 0 0.065 0"/>
<feBlend mode="normal" in2="effect2_dropShadow_718_16" result="effect3_dropShadow_718_16"/>
<feColorMatrix in="SourceAlpha" type="matrix" values="0 0 0 0 0 0 0 0 0 0 0 0 0 0 0 0 0 0 127 0" result="hardAlpha"/>
<feOffset dy="15.6638"/>
<feGaussianBlur stdDeviation="5.1811"/>
<feColorMatrix type="matrix" values="0 0 0 0 0 0 0 0 0 0 0 0 0 0 0 0 0 0 0.078963 0"/>
<feBlend mode="normal" in2="effect3_dropShadow_718_16" result="effect4_dropShadow_718_16"/>
<feColorMatrix in="SourceAlpha" type="matrix" values="0 0 0 0 0 0 0 0 0 0 0 0 0 0 0 0 0 0 127 0" result="hardAlpha"/>
<feOffset dy="26.3573"/>
<feGaussianBlur stdDeviation="9.5263"/>
<feColorMatrix type="matrix" values="0 0 0 0 0 0 0 0 0 0 0 0 0 0 0 0 0 0 0.0987037 0"/>
<feBlend mode="normal" in2="effect4_dropShadow_718_16" result="effect5_dropShadow_718_16"/>
<feColorMatrix in="SourceAlpha" type="matrix" values="0 0 0 0 0 0 0 0 0 0 0 0 0 0 0 0 0 0 127 0" result="hardAlpha"/>
<feOffset dy="40.6656"/>
<feGaussianBlur stdDeviation="16.2662"/>
<feColorMatrix type="matrix" values="0 0 0 0 0 0 0 0 0 0 0 0 0 0 0 0 0 0 0.13 0"/>
<feBlend mode="normal" in2="effect5_dropShadow_718_16" result="effect6_dropShadow_718_16"/>
<feBlend mode="normal" in="SourceGraphic" in2="effect6_dropShadow_718_16" result="shape"/>
</filter>
<linearGradient id="paint0_linear_718_16" x1="13.0289" y1="6.76498" x2="134.16" y2="249.532" gradientUnits="userSpaceOnUse">
<stop stop-color="#26D1FF"/>
<stop offset="0.545685" stop-color="#0A62F5"/>
<stop offset="1" stop-color="#1E05FF"/>
</linearGradient>
<linearGradient id="paint1_linear_718_16" x1="95.3641" y1="74.3595" x2="95.3641" y2="115.519" gradientUnits="userSpaceOnUse">
<stop stop-color="white"/>
<stop offset="1" stop-color="#D3D3D3"/>
</linearGradient>
<linearGradient id="paint2_linear_718_16" x1="95.3641" y1="74.3595" x2="95.3641" y2="115.519" gradientUnits="userSpaceOnUse">
<stop stop-color="white"/>
<stop offset="1" stop-color="#D3D3D3"/>
</linearGradient>
<linearGradient id="paint3_linear_718_16" x1="95.3641" y1="74.3595" x2="95.3641" y2="115.519" gradientUnits="userSpaceOnUse">
<stop stop-color="white"/>
<stop offset="1" stop-color="#D3D3D3"/>
</linearGradient>
<linearGradient id="paint4_linear_718_16" x1="95.3641" y1="74.3595" x2="95.3641" y2="115.519" gradientUnits="userSpaceOnUse">
<stop stop-color="white"/>
<stop offset="1" stop-color="#D3D3D3"/>
</linearGradient>
<linearGradient id="paint5_linear_718_16" x1="95.3641" y1="74.3595" x2="95.3641" y2="115.519" gradientUnits="userSpaceOnUse">
<stop stop-color="white"/>
<stop offset="1" stop-color="#D3D3D3"/>
</linearGradient>
<linearGradient id="paint6_linear_718_16" x1="95.3641" y1="74.3595" x2="95.3641" y2="115.519" gradientUnits="userSpaceOnUse">
<stop stop-color="white"/>
<stop offset="1" stop-color="#D3D3D3"/>
</linearGradient>
<linearGradient id="paint7_linear_718_16" x1="95.3641" y1="74.3595" x2="95.3641" y2="115.519" gradientUnits="userSpaceOnUse">
<stop stop-color="white"/>
<stop offset="1" stop-color="#D3D3D3"/>
</linearGradient>
<linearGradient id="paint8_linear_718_16" x1="95.3641" y1="74.3595" x2="95.3641" y2="115.519" gradientUnits="userSpaceOnUse">
<stop stop-color="white"/>
<stop offset="1" stop-color="#D3D3D3"/>
</linearGradient>
<linearGradient id="paint9_linear_718_16" x1="95.3641" y1="74.3595" x2="95.3641" y2="115.519" gradientUnits="userSpaceOnUse">
<stop stop-color="white"/>
<stop offset="1" stop-color="#D3D3D3"/>
</linearGradient>
<linearGradient id="paint10_linear_718_16" x1="95.3641" y1="74.3595" x2="95.3641" y2="115.519" gradientUnits="userSpaceOnUse">
<stop stop-color="white"/>
<stop offset="1" stop-color="#D3D3D3"/>
</linearGradient>
<linearGradient id="paint11_linear_718_16" x1="216.035" y1="68.0568" x2="216.035" y2="114.166" gradientUnits="userSpaceOnUse">
<stop stop-color="white"/>
<stop offset="1" stop-color="#D3D3D3"/>
</linearGradient>
<linearGradient id="paint12_linear_718_16" x1="160" y1="0" x2="160" y2="180" gradientUnits="userSpaceOnUse">
<stop stop-color="#EDEDED" stop-opacity="0"/>
<stop offset="1" stop-color="#303030"/>
</linearGradient>
<clipPath id="clip0_718_16">
<rect width="320" height="180" rx="12" fill="white"/>
</clipPath>
</defs>
</svg>
