<svg width="24" height="24" viewBox="0 0 24 24" fill="none" xmlns="http://www.w3.org/2000/svg">
<path d="M11.0983 5.42385V18.2487C11.0983 18.4582 11.028 18.6366 10.8872 18.7839C10.7464 18.9312 10.5746 19.0049 10.3717 19.0049C10.1622 19.0049 9.97886 18.9263 9.82174 18.7692L5.89375 14.851H2.81028C2.60079 14.851 2.42403 14.779 2.28 14.635C2.13598 14.4909 2.06396 14.3142 2.06396 14.1047V9.56787C2.06396 9.35838 2.13598 9.18162 2.28 9.0376C2.42403 8.89357 2.60079 8.82156 2.81028 8.82156H5.89375L9.82174 4.89357C9.9854 4.7299 10.1687 4.64807 10.3717 4.64807C10.5746 4.64807 10.7464 4.72499 10.8872 4.87884C11.028 5.03269 11.0983 5.21436 11.0983 5.42385Z" fill="#c9c9c9"/>
<path fill-rule="evenodd" clip-rule="evenodd" d="M14 7.40483C15.6876 8.24862 16.8506 9.9818 16.8506 12C16.8506 14.0183 15.6876 15.7515 14 16.5839V7.40483Z" fill="#c9c9c9"/>
</svg>
