<svg width="24" height="24" viewBox="0 0 24 24" fill="none" xmlns="http://www.w3.org/2000/svg">
<path d="M6.34282 20C5.9769 20 5.67501 19.8658 5.43716 19.5975C5.19931 19.3291 5.08038 18.9693 5.08038 18.518V5.47284C5.08038 5.02154 5.19931 4.66476 5.43716 4.40252C5.67501 4.13417 5.9769 4 6.34282 4C6.53798 4 6.72399 4.03354 6.90085 4.10063C7.08381 4.16771 7.27897 4.2592 7.48633 4.37507L18.2719 10.6232C18.6683 10.8489 18.9519 11.0623 19.1227 11.2636C19.2935 11.4648 19.3788 11.7088 19.3788 11.9954C19.3788 12.2821 19.2935 12.526 19.1227 12.7273C18.9519 12.9285 18.6683 13.145 18.2719 13.3768L7.48633 19.6158C7.27897 19.7378 7.08381 19.8323 6.90085 19.8994C6.72399 19.9665 6.53798 20 6.34282 20Z" fill="white"/>
</svg>
