<svg width="24" height="24" viewBox="0 0 24 24" fill="none" xmlns="http://www.w3.org/2000/svg">
<path fill-rule="evenodd" clip-rule="evenodd" d="M8.93149 13.3567L18.03 19.6404C18.4908 19.9301 19.0516 19.8522 19.4566 19.5461C19.6209 19.4258 19.7554 19.2693 19.8496 19.0887C19.9438 18.9081 19.9953 18.7083 20 18.5047L20 6.04795C20 5.01929 18.8608 4.35369 18.03 4.87966L8.93033 11.1249C8.17397 11.6357 8.17397 12.8471 8.93033 13.3579L8.93149 13.3567ZM4 18.3767C4 18.6853 4.1226 18.9813 4.34082 19.1995C4.55905 19.4177 4.85502 19.5403 5.16364 19.5403C5.47225 19.5403 5.76823 19.4177 5.98645 19.1995C6.20468 18.9813 6.32727 18.6853 6.32727 18.3767L6.32727 6.13987C6.32727 5.83126 6.20468 5.53528 5.98645 5.31706C5.76823 5.09883 5.47225 4.97624 5.16364 4.97624C4.85502 4.97624 4.55905 5.09883 4.34082 5.31706C4.1226 5.53528 4 5.83126 4 6.13987L4 18.3767Z" fill="#c9c9c9"/>
</svg>
