<svg width="24" height="24" viewBox="0 0 24 24" fill="none" xmlns="http://www.w3.org/2000/svg">
<path fill-rule="evenodd" clip-rule="evenodd" d="M14.9924 14.5755V3.85875C14.9924 3.59609 14.9026 3.36832 14.7232 3.17544C14.5437 2.98255 14.3246 2.88611 14.0659 2.88611C13.8071 2.88611 13.5734 2.98871 13.3647 3.19391L8.444 8.03273L14.9924 14.5755ZM14.9924 17.4027V19.9381C14.9924 20.2007 14.9026 20.4244 14.7232 20.6091C14.5437 20.7938 14.3246 20.8861 14.0659 20.8861C13.7988 20.8861 13.565 20.7876 13.3647 20.5906L8.35661 15.6782H4.42524C4.15814 15.6782 3.93277 15.5879 3.74914 15.4073C3.56551 15.2267 3.47369 15.0051 3.47369 14.7425V9.05437C3.47369 8.79172 3.56551 8.5701 3.74914 8.38953C3.93277 8.20895 4.15814 8.11867 4.42524 8.11867H5.72523C5.76007 8.16978 5.80018 8.21839 5.84555 8.26372L14.9924 17.4027Z" fill="white"/>
<path d="M2.70729 1.71153C3.09775 1.32108 3.73078 1.321 4.12133 1.71137L22.062 19.6435C22.4527 20.034 22.4527 20.6673 22.0621 21.0579C21.6717 21.4483 21.0386 21.4484 20.6481 21.0581L2.70746 3.12592C2.31677 2.73542 2.3167 2.10212 2.70729 1.71153Z" fill="white"/>
</svg>
