<svg width="24" height="24" viewBox="0 0 24 24" fill="none" xmlns="http://www.w3.org/2000/svg">
<path fill-rule="evenodd" clip-rule="evenodd" d="M15.2458 11.0964L5.62154 4.44966C5.13411 4.14317 4.54083 4.22564 4.11248 4.54936C3.93865 4.67665 3.7964 4.8422 3.69673 5.03322C3.59706 5.22423 3.54264 5.43561 3.53766 5.651V18.8276C3.53766 19.9157 4.74269 20.6198 5.62154 20.0634L15.247 13.4573C16.0471 12.9169 16.0471 11.6356 15.247 11.0952L15.2458 11.0964ZM20.4623 5.7864C20.4623 5.45995 20.3326 5.14687 20.1018 4.91603C19.8709 4.6852 19.5579 4.55552 19.2314 4.55552C18.905 4.55552 18.5919 4.6852 18.361 4.91603C18.1302 5.14687 18.0005 5.45995 18.0005 5.7864V18.7304C18.0005 19.0568 18.1302 19.3699 18.361 19.6007C18.5919 19.8316 18.905 19.9612 19.2314 19.9612C19.5579 19.9612 19.8709 19.8316 20.1018 19.6007C20.3326 19.3699 20.4623 19.0568 20.4623 18.7304V5.7864Z" fill="white"/>
</svg>
