<svg width="24" height="24" viewBox="0 0 24 24" fill="none" xmlns="http://www.w3.org/2000/svg">
<path d="M20.8 3.75H3.2C1.9867 3.75 1 4.67503 1 5.8125V18.1875C1 19.325 1.9867 20.25 3.2 20.25H20.8C22.0133 20.25 23 19.325 23 18.1875V5.8125C23 4.67503 22.0133 3.75 20.8 3.75ZM10.9 9.9375H7.6V14.0625H10.9V16.125H7.6C6.3867 16.125 5.4 15.2 5.4 14.0625V9.9375C5.4 8.80003 6.3867 7.875 7.6 7.875H10.9V9.9375ZM18.6 9.9375H15.3V14.0625H18.6V16.125H15.3C14.0867 16.125 13.1 15.2 13.1 14.0625V9.9375C13.1 8.80003 14.0867 7.875 15.3 7.875H18.6V9.9375Z" fill="#595959"/>
</svg>
