<?xml version="1.0" encoding="UTF-8" standalone="no"?>
<svg
   width="34"
   height="34"
   version="1.1"
   id="svg1"
   sodipodi:docname="github-mark.svg"
   inkscape:version="1.4 (e7c3feb100, 2024-10-09)"
   xmlns:inkscape="http://www.inkscape.org/namespaces/inkscape"
   xmlns:sodipodi="http://sodipodi.sourceforge.net/DTD/sodipodi-0.dtd"
   xmlns="http://www.w3.org/2000/svg"
   xmlns:svg="http://www.w3.org/2000/svg">
  <defs
     id="defs1" />
  <sodipodi:namedview
     id="namedview1"
     pagecolor="#ffffff"
     bordercolor="#000000"
     borderopacity="0.25"
     inkscape:showpageshadow="2"
     inkscape:pageopacity="0.0"
     inkscape:pagecheckerboard="0"
     inkscape:deskcolor="#d1d1d1"
     inkscape:zoom="12.072917"
     inkscape:cx="48.99396"
     inkscape:cy="48"
     inkscape:window-width="2560"
     inkscape:window-height="1368"
     inkscape:window-x="0"
     inkscape:window-y="0"
     inkscape:window-maximized="1"
     inkscape:current-layer="svg1" />
  <path
     fill-rule="evenodd"
     clip-rule="evenodd"
     d="M 17.014067,0 C 7.6057273,0 0,7.7916341 0,17.430948 c 0,7.705218 4.8732516,14.227524 11.633743,16.535972 0.845236,0.173541 1.154842,-0.37506 1.154842,-0.836538 0,-0.404102 -0.02786,-1.789242 -0.02786,-3.232465 C 8.0278237,30.937037 7.0422379,27.82003 7.0422379,27.82003 6.2816304,25.799871 5.1546496,25.280665 5.1546496,25.280665 3.6055734,24.212857 5.2674869,24.212857 5.2674869,24.212857 6.9858192,24.328315 7.8874735,26.0021 7.8874735,26.0021 c 1.5208669,2.654822 3.9715975,1.9047 4.9575315,1.442869 0.140698,-1.125537 0.5917,-1.904701 1.070562,-2.337491 -3.774828,-0.404102 -7.7464258,-1.9047 -7.7464258,-8.600193 0,-1.9047 0.6756313,-3.463027 1.7461934,-4.67498 -0.1689078,-0.43279 -0.7606076,-2.2223869 0.1692561,-4.617606 0,0 1.436587,-0.4618314 4.6757863,1.7892425 a 16.357938,16.635139 0 0 1 4.253691,-0.5772892 c 1.436587,0 2.901035,0.2022283 4.253342,0.5772892 3.239548,-2.2510739 4.676135,-1.7892425 4.676135,-1.7892425 0.929863,2.3952191 0.337815,4.184816 0.168907,4.617606 1.098772,1.211953 1.746542,2.77028 1.746542,4.67498 0,6.695493 -3.971597,8.167049 -7.774635,8.600193 0.619909,0.548248 1.154842,1.587015 1.154842,3.232112 0,2.33749 -0.02786,4.213503 -0.02786,4.790438 0,0.461832 0.309954,1.010433 1.154842,0.837247 C 29.126672,31.658118 33.999924,25.136166 33.999924,17.430948 34.027785,7.7916341 26.394197,0 17.014067,0 Z"
     fill="#24292f"
     id="path1"
     style="stroke-width:0.351202" />
</svg>
