<?xml version="1.0" encoding="UTF-8" standalone="no"?>
<svg
   width="111.96011"
   height="114.46101"
   viewBox="0 0 111.96011 114.46101"
   fill="none"
   version="1.1"
   id="svg30"
   sodipodi:docname="icon-dark.svg"
   inkscape:version="1.4 (e7c3feb100, 2024-10-09)"
   xmlns:inkscape="http://www.inkscape.org/namespaces/inkscape"
   xmlns:sodipodi="http://sodipodi.sourceforge.net/DTD/sodipodi-0.dtd"
   xmlns:xlink="http://www.w3.org/1999/xlink"
   xmlns="http://www.w3.org/2000/svg"
   xmlns:svg="http://www.w3.org/2000/svg">
  <sodipodi:namedview
     id="namedview1"
     pagecolor="#ffffff"
     bordercolor="#000000"
     borderopacity="0.25"
     inkscape:showpageshadow="2"
     inkscape:pageopacity="0.0"
     inkscape:pagecheckerboard="true"
     inkscape:deskcolor="#d1d1d1"
     inkscape:zoom="8"
     inkscape:cx="36.0625"
     inkscape:cy="58.1875"
     inkscape:window-width="2560"
     inkscape:window-height="1368"
     inkscape:window-x="0"
     inkscape:window-y="0"
     inkscape:window-maximized="1"
     inkscape:current-layer="svg30" />
  <path
     fill-rule="evenodd"
     clip-rule="evenodd"
     d="m 84.763099,5.5827991 c 2.06,-2.0602 0.601,-5.58279997600248 -2.312,-5.58279997600248 H 3.2702997 C 1.4641997,-8.7600248e-7 -3.525637e-7,1.4641991 -3.525637e-7,3.2702991 V 82.451 c 0,2.913 3.5226000525637,4.373 5.5828000525637,2.312 L 20.366299,69.98 c 0.6134,-0.613 0.9579,-1.445 0.9579,-2.313 V 24.5965 c 0,-1.8062 1.4642,-3.2703 3.2703,-3.2703 h 43.0706 c 0.868,0 1.699,-0.3446 2.313,-0.9579 z"
     fill="#ffffff"
     id="path1"
     style="fill:url(#linearGradient9);fill-opacity:1" />
  <defs
     id="defs30">
    <linearGradient
       id="linearGradient8"
       inkscape:collect="always">
      <stop
         style="stop-color:#5b5b5b;stop-opacity:1;"
         offset="0"
         id="stop8" />
      <stop
         style="stop-color:#292929;stop-opacity:1;"
         offset="1"
         id="stop9" />
    </linearGradient>
    <linearGradient
       id="paint0_linear_659_300"
       x1="166.964"
       y1="113.94"
       x2="81.113297"
       y2="113.94"
       gradientUnits="userSpaceOnUse"
       gradientTransform="translate(-55.003901,-43.001)">
      <stop
         stop-color="#3004A0"
         id="stop11" />
      <stop
         offset="1"
         stop-color="#0567E8"
         id="stop12" />
    </linearGradient>
    <linearGradient
       id="paint1_linear_659_300"
       x1="166.964"
       y1="113.94"
       x2="81.113297"
       y2="113.94"
       gradientUnits="userSpaceOnUse"
       gradientTransform="translate(-55.003901,-43.001)">
      <stop
         stop-color="#3004A0"
         id="stop13" />
      <stop
         offset="1"
         stop-color="#0567E8"
         id="stop14" />
    </linearGradient>
    <linearGradient
       id="paint2_linear_659_300"
       x1="166.964"
       y1="113.94"
       x2="81.113297"
       y2="113.94"
       gradientUnits="userSpaceOnUse"
       gradientTransform="translate(-55.003901,-43.001)">
      <stop
         stop-color="#3004A0"
         id="stop15" />
      <stop
         offset="1"
         stop-color="#0567E8"
         id="stop16" />
    </linearGradient>
    <linearGradient
       id="paint3_linear_659_300"
       x1="166.964"
       y1="113.94"
       x2="81.113297"
       y2="113.94"
       gradientUnits="userSpaceOnUse"
       gradientTransform="translate(-55.003901,-43.001)">
      <stop
         stop-color="#3004A0"
         id="stop17" />
      <stop
         offset="1"
         stop-color="#0567E8"
         id="stop18" />
    </linearGradient>
    <linearGradient
       id="paint4_linear_659_300"
       x1="166.964"
       y1="113.94"
       x2="81.113297"
       y2="113.94"
       gradientUnits="userSpaceOnUse"
       gradientTransform="translate(-55.003901,-43.001)">
      <stop
         stop-color="#3004A0"
         id="stop19" />
      <stop
         offset="1"
         stop-color="#0567E8"
         id="stop20" />
    </linearGradient>
    <linearGradient
       id="paint5_linear_659_300"
       x1="166.964"
       y1="113.94"
       x2="81.113297"
       y2="113.94"
       gradientUnits="userSpaceOnUse"
       gradientTransform="translate(-55.003901,-43.001)">
      <stop
         stop-color="#3004A0"
         id="stop21" />
      <stop
         offset="1"
         stop-color="#0567E8"
         id="stop22" />
    </linearGradient>
    <linearGradient
       id="paint6_linear_659_300"
       x1="166.964"
       y1="113.94"
       x2="81.113297"
       y2="113.94"
       gradientUnits="userSpaceOnUse"
       gradientTransform="translate(-55.003901,-43.001)">
      <stop
         stop-color="#3004A0"
         id="stop23" />
      <stop
         offset="1"
         stop-color="#0567E8"
         id="stop24" />
    </linearGradient>
    <linearGradient
       id="paint7_linear_659_300"
       x1="166.964"
       y1="113.94"
       x2="81.113297"
       y2="113.94"
       gradientUnits="userSpaceOnUse"
       gradientTransform="translate(-55.003901,-43.001)">
      <stop
         stop-color="#3004A0"
         id="stop25" />
      <stop
         offset="1"
         stop-color="#0567E8"
         id="stop26" />
    </linearGradient>
    <linearGradient
       id="paint8_linear_659_300"
       x1="166.964"
       y1="113.94"
       x2="81.113297"
       y2="113.94"
       gradientUnits="userSpaceOnUse"
       gradientTransform="translate(-55.003901,-43.001)">
      <stop
         stop-color="#3004A0"
         id="stop27" />
      <stop
         offset="1"
         stop-color="#0567E8"
         id="stop28" />
    </linearGradient>
    <linearGradient
       id="paint9_linear_659_300"
       x1="166.964"
       y1="113.94"
       x2="81.113297"
       y2="113.94"
       gradientUnits="userSpaceOnUse"
       gradientTransform="translate(-55.003901,-43.001)">
      <stop
         stop-color="#3004A0"
         id="stop29" />
      <stop
         offset="1"
         stop-color="#0567E8"
         id="stop30" />
    </linearGradient>
    <linearGradient
       id="paint0_linear_200_827"
       x1="29.933599"
       y1="29.966999"
       x2="59.579201"
       y2="62.929798"
       gradientUnits="userSpaceOnUse"
       gradientTransform="matrix(2.4590919,0,0,2.4590868,-43.987224,-43.02245)">
      <stop
         stop-color="#26D1FF"
         id="stop17-2" />
      <stop
         offset="0.545685"
         stop-color="#0A62F5"
         id="stop18-9" />
      <stop
         offset="1"
         stop-color="#1E05FF"
         id="stop19-1" />
    </linearGradient>
    <linearGradient
       id="paint1_linear_200_827"
       x1="45.967999"
       y1="28.6367"
       x2="45.967999"
       y2="64.033302"
       gradientUnits="userSpaceOnUse"
       gradientTransform="matrix(2.4590919,0,0,2.4590868,-43.987224,-43.02245)">
      <stop
         stop-color="#EDEDED"
         stop-opacity="0"
         id="stop20-2" />
      <stop
         offset="1"
         stop-color="#303030"
         id="stop21-7" />
    </linearGradient>
    <linearGradient
       inkscape:collect="always"
       xlink:href="#linearGradient8"
       id="linearGradient9"
       x1="85.727425"
       y1="42.863884"
       x2="-2.508903e-06"
       y2="42.863884"
       gradientUnits="userSpaceOnUse" />
  </defs>
  <path
     d="m 45.678643,73.496213 v 17.17967 c 0,0.67748 -0.549362,1.22662 -1.226841,1.22662 H 27.558578 c -0.67748,0 -1.226841,-0.54914 -1.226841,-1.22662 v -17.17967 c 0,-0.67748 0.549361,-1.22659 1.226841,-1.22659 h 16.893224 c 0.677479,0 1.226841,0.54911 1.226841,1.22659 z m 0,-22.333424 v 17.179674 c 0,0.67748 -0.549362,1.22659 -1.226841,1.22659 H 27.558578 c -0.67748,0 -1.226841,-0.54911 -1.226841,-1.22659 V 51.162789 c 0,-0.677477 0.549361,-1.226592 1.226841,-1.226592 h 16.893224 c 0.677479,0 1.226841,0.549115 1.226841,1.226592 z m 22.046984,0 v 17.179674 c 0,0.67748 -0.54912,1.22659 -1.2266,1.22659 H 49.605813 c -0.677481,0 -1.226841,-0.54911 -1.226841,-1.22659 V 51.162789 c 0,-0.677477 0.54936,-1.226592 1.226841,-1.226592 h 16.893214 c 0.67748,0 1.2266,0.549115 1.2266,1.226592 z m 0,-22.333425 v 17.179672 c 0,0.677477 -0.54912,1.226592 -1.2266,1.226592 H 49.605813 c -0.677481,0 -1.226841,-0.549115 -1.226841,-1.226592 V 28.829364 c 0,-0.67748 0.54936,-1.226593 1.226841,-1.226593 h 16.893214 c 0.67748,0 1.2266,0.549113 1.2266,1.226593 z m 22.04723,22.333425 v 17.179674 c 0,0.67748 -0.54912,1.22659 -1.2266,1.22659 h -16.89346 c -0.67748,0 -1.2266,-0.54911 -1.2266,-1.22659 V 51.162789 c 0,-0.677477 0.54912,-1.226592 1.2266,-1.226592 h 16.89346 c 0.67748,0 1.2266,0.549115 1.2266,1.226592 z m -22.04723,22.333424 v 17.17967 c 0,0.67748 -0.54912,1.22662 -1.2266,1.22662 H 49.605813 c -0.677481,0 -1.226841,-0.54914 -1.226841,-1.22662 v -17.17967 c 0,-0.67748 0.54936,-1.22659 1.226841,-1.22659 h 16.893214 c 0.67748,0 1.2266,0.54911 1.2266,1.22659 z m 22.04723,-44.666849 v 17.179672 c 0,0.677477 -0.54912,1.226592 -1.2266,1.226592 h -16.89346 c -0.67748,0 -1.2266,-0.549115 -1.2266,-1.226592 V 28.829364 c 0,-0.67748 0.54912,-1.226593 1.2266,-1.226593 h 16.89346 c 0.67748,0 1.2266,0.549113 1.2266,1.226593 z m -44.094214,0 v 17.179672 c 0,0.677477 -0.549362,1.226592 -1.226841,1.226592 H 27.558578 c -0.67748,0 -1.226841,-0.549115 -1.226841,-1.226592 V 28.829364 c 0,-0.67748 0.549361,-1.226593 1.226841,-1.226593 h 16.893224 c 0.677479,0 1.226841,0.549113 1.226841,1.226593 z m 0,67.000289 v 17.179677 c 0,0.67748 -0.549362,1.22659 -1.226841,1.22659 H 27.558578 c -0.67748,0 -1.226841,-0.54911 -1.226841,-1.22659 V 95.829653 c 0,-0.67748 0.549361,-1.22659 1.226841,-1.22659 h 16.893224 c 0.677479,0 1.226841,0.54911 1.226841,1.22659 z M 111.77289,28.829364 v 17.179672 c 0,0.677477 -0.54911,1.226592 -1.22659,1.226592 H 93.653067 c -0.67748,0 -1.22684,-0.549115 -1.22684,-1.226592 V 28.829364 c 0,-0.67748 0.54936,-1.226593 1.22684,-1.226593 H 110.5463 c 0.67748,0 1.22659,0.549113 1.22659,1.226593 z"
     fill="url(#paint0_linear_200_827)"
     stroke="url(#paint1_linear_200_827)"
     stroke-width="0.40985"
     id="path2-9"
     style="fill:url(#paint0_linear_200_827);stroke:url(#paint1_linear_200_827)" />
</svg>
