<svg width="32" height="33" viewBox="0 0 32 33" fill="none" xmlns="http://www.w3.org/2000/svg">
<rect y="0.108398" width="32" height="32" rx="16" fill="#e4e4eb"/>
<path d="M24.5948 11.4181C24.4274 10.4945 23.6302 9.82197 22.705 9.612C21.3206 9.31837 18.7583 9.1084 15.986 9.1084C13.2154 9.1084 10.6121 9.31837 9.226 9.612C8.30247 9.82197 7.5036 10.4519 7.33628 11.4181C7.16732 12.4679 7 13.9377 7 15.8274C7 17.7171 7.16732 19.1869 7.37729 20.2368C7.54625 21.1603 8.34348 21.8329 9.26701 22.0428C10.7368 22.3365 13.2564 22.5464 16.0287 22.5464C18.8009 22.5464 21.3206 22.3365 22.7903 22.0428C23.7139 21.8329 24.5111 21.203 24.6801 20.2368C24.8474 19.1869 25.0574 17.6745 25.1 15.8274C25.0147 13.9377 24.8047 12.4679 24.5948 11.4181ZM13.719 18.767V12.8878L18.8419 15.8274L13.719 18.767Z" fill="black"/>
</svg>
