<svg xmlns="http://www.w3.org/2000/svg" width="32" height="32" viewBox="0 0 32 32">
<linearGradient id="a" x1="0" x2="0" y1="0" y2="1"><stop offset="0" stop-color="#e4e4eb"/><stop offset="1" stop-color="#e4e4eb"/></linearGradient>
<circle cx="16" cy="16" r="16" fill="url(#a)" />
<path fill="currentcolor" d="m 23.453668,21.822515 c 0,1.367088 -1.002863,2.485428 -2.228401,2.485428 H 10.773224 c -1.2255374,0 -2.2284005,-1.11834 -2.2284005,-2.485428 0,-0.836892 0.3762289,-1.581072 0.9490569,-2.031801 l 5.5614816,-4.966718 c 0.103473,-0.08858 0.237575,0.05422 0.163075,0.173421 l -2.04008,4.084712 c -0.05712,0.114234 0.01696,0.254958 0.134516,0.254958 h 7.912809 c 1.225536,0 2.227986,1.118753 2.227986,2.485428 z m 0,-11.646539 c 0,0.836892 -0.376228,1.581072 -0.949058,2.031802 l -5.561481,4.966717 c -0.103474,0.08858 -0.237574,-0.05422 -0.163073,-0.173421 l 2.040079,-4.084711 c 0.05712,-0.114234 -0.01696,-0.254958 -0.134516,-0.254958 h -7.912395 c -1.2255374,0 -2.2284005,-1.118339 -2.2284005,-2.485429 0,-1.3670887 1.0028631,-2.4854279 2.2284005,-2.4854279 h 10.452458 c 1.225536,0 2.227986,1.1183392 2.227986,2.4854279 z" />
</svg>
