<svg
   width="1024"
   height="1024"
   viewBox="0 0 270.93333 270.93333"
   xmlns="http://www.w3.org/2000/svg" >
  <path
     fill-rule="evenodd"
     clip-rule="evenodd"
     d="m 136.60506,270.93333 c 23.09465,0 36.42801,-16.30932 36.42801,-36.42806 0,-20.1186 -14.29179,-36.42801 -36.42801,-36.42801 -22.13611,0 -36.428,16.30941 -36.428,36.42801 0,20.11874 13.33325,36.42806 36.428,36.42806 z m -9.48928,-47.06983 -1.15136,1.15135 c -4.47359,4.47359 -6.71038,6.71055 -6.71038,9.48999 0,2.77969 2.23679,5.01636 6.71038,9.48995 l 1.15136,1.15136 c 4.47359,4.4736 6.71054,6.71048 9.48997,6.71048 2.77943,0 5.0164,-2.23688 9.49001,-6.71048 l 1.15135,-1.15136 c 4.47357,-4.47359 6.71045,-6.71026 6.71045,-9.48995 0,-2.77944 -2.23688,-5.0164 -6.71045,-9.48999 l -1.15135,-1.15135 c -4.47361,-4.4735 -6.71058,-6.71039 -9.49001,-6.71039 -2.77943,0 -5.01638,2.23689 -9.48997,6.71039 z"
     fill="#ffffff" />
  <path
     d="M 246.30301,0 H 24.630317 C 11.083288,0 0,11.526214 0,25.613462 v 25.613455 c 0,7.043877 5.5418993,12.80673 12.315158,12.80673 6.773263,0 12.31516,-5.762853 12.31516,-12.80673 V 38.420189 c 0,-7.043371 5.541898,-12.806727 12.31512,-12.806727 H 233.98788 c 6.77327,0 12.31513,5.763356 12.31513,12.806727 V 192.10153 c 0,7.04389 -5.54186,12.80727 -12.31513,12.80727 h -39.70302 c -6.77323,0 -12.31513,5.76285 -12.31513,12.80671 0,7.04387 5.5419,12.80566 12.31513,12.80566 h 52.01815 c 13.54652,0 24.63032,-11.52515 24.63032,-25.61237 V 25.613462 C 270.93333,11.526214 259.84953,0 246.30301,0 Z"
     fill="#ffffff" />
  <path
     d="M 24.630317,0 H 246.30301 c 13.54703,0 24.63032,11.526214 24.63032,25.613462 v 25.613455 c 0,7.043877 -5.54189,12.80673 -12.31515,12.80673 -6.77327,0 -12.31517,-5.762853 -12.31517,-12.80673 V 38.420189 c 0,-7.043371 -5.54189,-12.806727 -12.31512,-12.806727 H 36.945449 c -6.773265,0 -12.315132,5.763356 -12.315132,12.806727 V 192.10153 c 0,7.04389 5.541867,12.80727 12.315132,12.80727 h 39.703028 c 6.773235,0 12.315162,5.76285 12.315162,12.80671 0,7.04387 -5.541927,12.80566 -12.315162,12.80566 H 24.630317 C 11.083799,230.52117 0,218.99602 0,204.9088 V 25.613462 C 0,11.526214 11.083799,0 24.630317,0 Z"
     fill="#ffffff" />
  <path
     d="m 95.938235,171.30637 c -4.937309,3.5273 -5.29173,10.79088 -0.986794,15.09622 3.456604,3.45693 8.888249,3.80961 12.909149,0.91843 17.21135,-12.13189 40.34975,-12.1288 57.56248,0.006 4.01968,2.89389 9.45266,2.5405 12.90917,-0.9157 4.3029,-4.30251 3.88002,-11.49764 -0.98794,-15.0962 -11.86415,-8.51607 -26.09996,-13.09864 -40.70296,-13.09979 -14.6039,-0.002 -28.83923,4.57651 -40.703105,13.09041 z m -28.793004,-28.2091 c -4.514216,3.80905 -4.867485,10.65089 -0.705527,14.81323 3.598144,3.59848 9.311807,3.95166 13.191659,0.77807 33.013047,-27.22619 80.982517,-27.21992 113.997227,0.0127 3.87958,3.17609 9.52319,2.75301 13.12136,-0.84482 4.23191,-4.23154 3.80866,-11.14497 -0.77709,-14.88357 -40.35143,-32.8785 -98.54865,-32.81432 -138.827629,0.12435 z"
     fill="#ffffff" />
</svg>
