<svg width="211" height="212" viewBox="0 0 211 212" fill="none" xmlns="http://www.w3.org/2000/svg">
<mask id="path-1-inside-1_107_638" fill="white">
<path fill-rule="evenodd" clip-rule="evenodd" d="M0.146971 45.384C0.147092 45.384 0.147209 45.384 0.147294 45.3839L44.3596 1.17157C45.1098 0.421427 46.1272 0 47.1881 0H206.648C210.21 0 211.995 4.30498 209.479 6.82588L172.161 44.2106C171.411 44.9623 170.392 45.3847 169.33 45.3847H49.5313C47.3221 45.3847 45.5313 47.1756 45.5313 49.3847V67.8583C45.5313 70.0674 47.3221 71.8583 49.5313 71.8583H136.049C139.611 71.8583 141.397 76.1633 138.88 78.6842L101.563 116.069C100.812 116.821 99.794 117.243 98.7319 117.243H49.5313C47.3221 117.243 45.5313 119.034 45.5313 121.243V169.674C45.5313 170.733 45.1113 171.749 44.3636 172.499L6.97883 209.986C4.46057 212.512 0.146516 210.728 0.146515 207.162L0.146486 117.243L0.146518 45.3848C0.146518 45.3848 0.14651 45.3847 0.146501 45.3847C0.146486 45.3847 0.146479 45.3847 0.146489 45.3847L0.146509 45.3847C0.146515 45.3847 0.146518 45.3847 0.146518 45.3847L0.146518 45.3845C0.146518 45.3843 0.146721 45.384 0.146971 45.384Z"/>
</mask>
<path fill-rule="evenodd" clip-rule="evenodd" d="M0.146971 45.384C0.147092 45.384 0.147209 45.384 0.147294 45.3839L44.3596 1.17157C45.1098 0.421427 46.1272 0 47.1881 0H206.648C210.21 0 211.995 4.30498 209.479 6.82588L172.161 44.2106C171.411 44.9623 170.392 45.3847 169.33 45.3847H49.5313C47.3221 45.3847 45.5313 47.1756 45.5313 49.3847V67.8583C45.5313 70.0674 47.3221 71.8583 49.5313 71.8583H136.049C139.611 71.8583 141.397 76.1633 138.88 78.6842L101.563 116.069C100.812 116.821 99.794 117.243 98.7319 117.243H49.5313C47.3221 117.243 45.5313 119.034 45.5313 121.243V169.674C45.5313 170.733 45.1113 171.749 44.3636 172.499L6.97883 209.986C4.46057 212.512 0.146516 210.728 0.146515 207.162L0.146486 117.243L0.146518 45.3848C0.146518 45.3848 0.14651 45.3847 0.146501 45.3847C0.146486 45.3847 0.146479 45.3847 0.146489 45.3847L0.146509 45.3847C0.146515 45.3847 0.146518 45.3847 0.146518 45.3847L0.146518 45.3845C0.146518 45.3843 0.146721 45.384 0.146971 45.384Z" fill="url(#paint0_linear_107_638)"/>
<path d="M0.146486 117.243H-2.8793H0.146486ZM0.146509 45.3847L-2.00341 43.2555L0.146509 45.3847ZM0.146489 45.3847L2.2964 47.5139L0.146489 45.3847ZM6.97883 209.986L9.12133 212.123L6.97883 209.986ZM44.3636 172.499L42.2211 170.362L44.3636 172.499ZM101.563 116.069L103.704 118.207L101.563 116.069ZM138.88 78.6842L136.739 76.5465L138.88 78.6842ZM172.161 44.2106L170.02 42.073L172.161 44.2106ZM0.147294 45.3839L2.28685 47.5235L0.147294 45.3839ZM44.3596 1.17157L42.2201 -0.967984L44.3596 1.17157ZM42.2201 -0.967984L-1.99226 43.2444L2.28685 47.5235L46.4992 3.31113L42.2201 -0.967984ZM206.648 -3.02579H47.1881V3.02579H206.648V-3.02579ZM174.303 46.3483L211.62 8.96351L207.337 4.68825L170.02 42.073L174.303 46.3483ZM49.5313 48.4105H169.33V42.359H49.5313V48.4105ZM48.557 67.8583V49.3847H42.5055V67.8583H48.557ZM136.049 68.8325H49.5313V74.8841H136.049V68.8325ZM103.704 118.207L141.022 80.8218L136.739 76.5465L99.4214 113.931L103.704 118.207ZM49.5313 120.269H98.7319V114.217H49.5313V120.269ZM48.557 169.674V121.243H42.5055V169.674H48.557ZM9.12133 212.123L46.5061 174.635L42.2211 170.362L4.83633 207.85L9.12133 212.123ZM-2.8793 117.243L-2.87928 207.162H3.1723L3.17228 117.243H-2.8793ZM-2.87927 45.3848L-2.8793 117.243H3.17228L3.17231 45.3848H-2.87927ZM-2.00341 43.2555L-2.00343 43.2556L2.2964 47.5139L2.29643 47.5138L-2.00341 43.2555ZM-2.87927 45.3845V45.3847L3.17231 45.3847V45.3845L-2.87927 45.3845ZM3.17231 45.3845C3.17231 47.0553 1.81782 48.4098 0.146971 48.4098V42.3583C-1.52438 42.3583 -2.87927 43.7132 -2.87927 45.3845L3.17231 45.3845ZM2.29643 47.5138C2.85753 46.9473 3.17231 46.1821 3.17231 45.3847L-2.87927 45.3847C-2.87927 44.5873 -2.5645 43.8221 -2.00341 43.2555L2.29643 47.5138ZM0.146501 42.359C2.83509 42.359 4.18829 45.6035 2.2964 47.5139L-2.00343 43.2556C-3.89533 45.1659 -2.54212 48.4105 0.146501 48.4105V42.359ZM3.17231 45.3848C3.17231 43.7137 1.81761 42.359 0.146501 42.359V48.4105C-1.52459 48.4105 -2.87927 47.0558 -2.87927 45.3848H3.17231ZM4.83633 207.85C4.223 208.465 3.17231 208.03 3.1723 207.162H-2.87928C-2.87927 213.426 4.69813 216.558 9.12133 212.123L4.83633 207.85ZM42.5055 169.674C42.5055 169.932 42.4032 170.179 42.2211 170.362L46.5061 174.635C47.8195 173.318 48.557 171.534 48.557 169.674H42.5055ZM49.5313 114.217C45.651 114.217 42.5055 117.363 42.5055 121.243H48.557C48.557 120.705 48.9932 120.269 49.5313 120.269V114.217ZM99.4214 113.931C99.2386 114.114 98.9905 114.217 98.7319 114.217V120.269C100.597 120.269 102.386 119.527 103.704 118.207L99.4214 113.931ZM136.049 74.8841C136.917 74.8841 137.352 75.9326 136.739 76.5465L141.022 80.8218C145.442 76.394 142.306 68.8325 136.049 68.8325V74.8841ZM42.5055 67.8583C42.5055 71.7385 45.651 74.8841 49.5313 74.8841V68.8325C48.9932 68.8325 48.557 68.3963 48.557 67.8583H42.5055ZM49.5313 42.359C45.651 42.359 42.5055 45.5045 42.5055 49.3847H48.557C48.557 48.8467 48.9932 48.4105 49.5313 48.4105V42.359ZM170.02 42.073C169.837 42.2561 169.589 42.359 169.33 42.359V48.4105C171.196 48.4105 172.985 47.6686 174.303 46.3483L170.02 42.073ZM206.648 3.02579C207.515 3.02579 207.95 4.07428 207.337 4.68825L211.62 8.96351C216.04 4.53569 212.904 -3.02579 206.648 -3.02579V3.02579ZM-1.99226 43.2444C-1.44187 42.694 -0.679078 42.3583 0.146971 42.3583V48.4098C0.973261 48.4098 1.73629 48.074 2.28685 47.5235L-1.99226 43.2444ZM46.4992 3.31113C46.6819 3.12844 46.9297 3.02579 47.1881 3.02579V-3.02579C45.3247 -3.02579 43.5377 -2.28558 42.2201 -0.967984L46.4992 3.31113Z" fill="url(#paint1_linear_107_638)" fill-opacity="0.12" mask="url(#path-1-inside-1_107_638)"/>
<path d="M0 0.412598L1.98383e-06 45.7973L0.0197002 45.7973L45.3229 0.412598L0 0.412598Z" fill="url(#paint2_linear_107_638)"/>
<defs>
<linearGradient id="paint0_linear_107_638" x1="37.0168" y1="-13.1815" x2="37.0168" y2="204.204" gradientUnits="userSpaceOnUse">
<stop offset="0.0142947" stop-color="#3FA2FF"/>
<stop offset="1" stop-color="#0951BE"/>
</linearGradient>
<linearGradient id="paint1_linear_107_638" x1="105.401" y1="1.55151e-08" x2="105.923" y2="212.162" gradientUnits="userSpaceOnUse">
<stop stop-color="white"/>
<stop offset="1" stop-color="white" stop-opacity="0"/>
</linearGradient>
<linearGradient id="paint2_linear_107_638" x1="-109.31" y1="8.36164" x2="40.5219" y2="8.36164" gradientUnits="userSpaceOnUse">
<stop offset="0.0142947" stop-color="#3FA2FF"/>
<stop offset="1" stop-color="#0951BE"/>
</linearGradient>
</defs>
</svg>
