<svg width="16" height="16" viewBox="0 0 16 16" fill="none" xmlns="http://www.w3.org/2000/svg">
<path fill-rule="evenodd" clip-rule="evenodd" d="M6.44873 1.9375C7.13805 0.6875 8.86195 0.6875 9.55246 1.9375L15.7599 13.1875C15.9172 13.4725 16 13.7959 16 14.125C16 14.4541 15.9172 14.7774 15.7599 15.0625C15.6027 15.3475 15.3764 15.5842 15.104 15.7488C14.8316 15.9133 14.5226 16 14.2081 16H1.79314C1.47848 16.0002 1.16932 15.9137 0.896742 15.7492C0.624165 15.5848 0.397785 15.3481 0.240368 15.063C0.0829523 14.7779 5.04209e-05 14.4545 2.29922e-08 14.1253C-5.03749e-05 13.7961 0.0827525 13.4726 0.240081 13.1875L6.44873 1.9375Z" fill="#F97066"/>
<path fill-rule="evenodd" clip-rule="evenodd" d="M8.09511 5C8.31294 5 8.52184 5.08889 8.67587 5.24713C8.8299 5.40536 8.91643 5.61997 8.91643 5.84375V9.21875C8.91643 9.44253 8.8299 9.65714 8.67587 9.81537C8.52184 9.97361 8.31294 10.0625 8.09511 10.0625C7.87728 10.0625 7.66837 9.97361 7.51434 9.81537C7.36031 9.65714 7.27378 9.44253 7.27378 9.21875V5.84375C7.27378 5.61997 7.36031 5.40536 7.51434 5.24713C7.66837 5.08889 7.87728 5 8.09511 5ZM8.09511 14C8.38555 14 8.66409 13.8815 8.86946 13.6705C9.07483 13.4595 9.19021 13.1734 9.19021 12.875C9.19021 12.5766 9.07483 12.2905 8.86946 12.0795C8.66409 11.8685 8.38555 11.75 8.09511 11.75C7.80467 11.75 7.52612 11.8685 7.32075 12.0795C7.11538 12.2905 7 12.5766 7 12.875C7 13.1734 7.11538 13.4595 7.32075 13.6705C7.52612 13.8815 7.80467 14 8.09511 14Z" fill="white"/>
</svg>
