<?xml version="1.0" encoding="UTF-8"?>
<svg width="209" height="209" version="1.1" viewBox="0 0 55.298 55.298" xmlns="http://www.w3.org/2000/svg" xmlns:xlink="http://www.w3.org/1999/xlink">
<defs>
<filter id="g" x="371.49" y="386.77" width="176.56" height="176.56" color-interpolation-filters="sRGB" filterUnits="userSpaceOnUse">
<feFlood flood-opacity="0" result="BackgroundImageFix"/>
<feBlend in="SourceGraphic" in2="BackgroundImageFix" result="shape"/>
<feColorMatrix in="SourceAlpha" result="hardAlpha" values="0 0 0 0 0 0 0 0 0 0 0 0 0 0 0 0 0 0 127 0"/>
<feOffset dx="1.85185" dy="1.85185"/>
<feGaussianBlur stdDeviation="7.87037"/>
<feComposite in2="hardAlpha" k2="-1" k3="1" operator="arithmetic"/>
<feColorMatrix values="0 0 0 0 0 0 0 0 0 0 0 0 0 0 0 0 0 0 0.25 0"/>
<feBlend in2="shape" result="effect1_innerShadow_754_921"/>
</filter>
<linearGradient id="c" x1="398.05" x2="566.25" y1="417.97" y2="577.39" gradientTransform="matrix(.26458 0 0 .26458 -98.291 -102.33)" gradientUnits="userSpaceOnUse">
<stop stop-color="#26D1FF" offset="0"/>
<stop stop-color="#0A62F5" offset=".54568"/>
<stop stop-color="#1E05FF" offset="1"/>
</linearGradient>
<linearGradient id="b" x1="490.1" x2="490.1" y1="417.97" y2="595.47" gradientUnits="userSpaceOnUse">
<stop stop-color="#EDEDED" stop-opacity="0" offset="0"/>
<stop stop-color="#303030" offset="1"/>
</linearGradient>
<mask id="a" fill="#ffffff">
<path d="m442.3 420.89c0-1.616-1.329-2.926-2.969-2.926h-35.026c-1.639 0-2.968 1.31-2.968 2.926v35.111c0 1.616 1.329 2.926 2.968 2.926h35.026c1.64 0 2.969-1.31 2.969-2.926zm45.514 0c0-1.616-1.329-2.926-2.968-2.926h-35.026c-1.64 0-2.969 1.31-2.969 2.926v35.111c0 1.616 1.329 2.926 2.969 2.926h35.026c1.639 0 2.968-1.31 2.968-2.926zm42.546-2.926c1.639 0 2.968 1.31 2.968 2.926v35.111c0 1.616-1.329 2.926-2.968 2.926h-35.027c-1.639 0-2.968-1.31-2.968-2.926v-35.111c0-1.616 1.329-2.926 2.968-2.926zm48.483 2.926c0-1.616-1.329-2.926-2.969-2.926h-35.026c-1.639 0-2.968 1.31-2.968 2.926v35.111c0 1.616 1.329 2.926 2.968 2.926h35.026c1.64 0 2.969-1.31 2.969-2.926zm-139.51 42.588c1.64 0 2.969 1.31 2.969 2.926v35.111c0 1.616-1.329 2.926-2.969 2.926h-35.026c-1.639 0-2.968-1.31-2.968-2.926v-35.111c0-1.616 1.329-2.926 2.968-2.926zm48.483 2.926c0-1.616-1.329-2.926-2.968-2.926h-35.026c-1.64 0-2.969 1.31-2.969 2.926v35.111c0 1.616 1.329 2.926 2.969 2.926h35.026c1.639 0 2.968-1.31 2.968-2.926zm42.546-2.926c1.639 0 2.968 1.31 2.968 2.926v35.111c0 1.616-1.329 2.926-2.968 2.926h-35.027c-1.639 0-2.968-1.31-2.968-2.926v-35.111c0-1.616 1.329-2.926 2.968-2.926zm-88.06 48.441c0-1.616-1.329-2.926-2.969-2.926h-35.026c-1.639 0-2.968 1.31-2.968 2.926v35.111c0 1.616 1.329 2.926 2.968 2.926h35.026c1.64 0 2.969-1.31 2.969-2.926zm42.546-2.926c1.639 0 2.968 1.31 2.968 2.926v35.111c0 1.616-1.329 2.926-2.968 2.926h-35.026c-1.64 0-2.969-1.31-2.969-2.926v-35.111c0-1.616 1.329-2.926 2.969-2.926zm-42.546 48.44c0-1.616-1.329-2.926-2.969-2.926h-35.026c-1.639 0-2.968 1.31-2.968 2.926v35.111c0 1.616 1.329 2.926 2.968 2.926h35.026c1.64 0 2.969-1.31 2.969-2.926z" clip-rule="evenodd" fill-rule="evenodd"/>
</mask>
<linearGradient id="e" x1="548.05" x2="371.49" y1="475.05" y2="475.05" gradientUnits="userSpaceOnUse">
<stop stop-color="#fff" offset="0"/>
<stop stop-color="#d3d3d3" offset="1"/>
</linearGradient>
<filter id="f" x="371.49" y="386.77" width="176.56" height="176.56" color-interpolation-filters="sRGB" filterUnits="userSpaceOnUse">
<feFlood flood-opacity="0" result="BackgroundImageFix"/>
<feBlend in="SourceGraphic" in2="BackgroundImageFix" result="shape"/>
<feColorMatrix in="SourceAlpha" result="hardAlpha" values="0 0 0 0 0 0 0 0 0 0 0 0 0 0 0 0 0 0 127 0"/>
<feOffset dx="1.85185" dy="1.85185"/>
<feGaussianBlur stdDeviation="7.9462684"/>
<feComposite in2="hardAlpha" k2="-1" k3="1" operator="arithmetic"/>
<feColorMatrix values="0 0 0 0 0 0 0 0 0 0 0 0 0 0 0 0 0 0 0.25 0"/>
<feBlend in2="shape" result="effect1_innerShadow_754_921"/>
</filter>
<linearGradient id="d" x1="371.49" x2="548.05" y1="475.05" y2="475.05" gradientUnits="userSpaceOnUse">
<stop stop-color="#fff" stop-opacity=".49814" offset=".00041624"/>
<stop stop-color="#fff" stop-opacity=".49601" offset="1"/>
</linearGradient>
</defs>
<path transform="matrix(.26458 0 0 .26458 -98.291 -102.33)" d="m377.97 386.77c-3.58 0-6.4824 2.9024-6.4824 6.4824v161.73c0 5.775 6.9814 8.666 11.064 4.582l161.73-161.73c4.084-4.083 1.193-11.064-4.582-11.064zm146.48 30.746h0.0137l-123.74 123.74v-119.19c0-2.5087 2.0342-4.5427 4.543-4.543z" fill="url(#e)" filter="url(#g)"/>
<path transform="matrix(.18541 0 0 .18541 -61.142 -63.574)" d="m371.49 393.25c0-3.58 2.902-6.4817 6.482-6.482l170.07-0.0158c0.036 0 0.022-8.2e-4 0.022-8.2e-4l-176.58 176.58s3e-3 0.01 3e-3 -3e-3z" fill="url(#d)" fill-opacity=".88" filter="url(#f)" stroke-width=".45844"/>
<path d="m18.736 9.0284c0-0.42757-0.35163-0.77417-0.78555-0.77417h-9.2673c-0.43365 0-0.78528 0.3466-0.78528 0.77417v9.2898c0 0.42757 0.35163 0.77417 0.78528 0.77417h9.2673c0.43392 0 0.78555-0.3466 0.78555-0.77417zm12.042 0c0-0.42757-0.35163-0.77417-0.78528-0.77417h-9.2673c-0.43391 0-0.78554 0.3466-0.78554 0.77417v9.2898c0 0.42757 0.35163 0.77417 0.78554 0.77417h9.2673c0.43365 0 0.78528-0.3466 0.78528-0.77417zm11.257-0.77417c0.43365 0 0.78528 0.3466 0.78528 0.77417v9.2898c0 0.42757-0.35163 0.77417-0.78528 0.77417h-9.2676c-0.43366 0-0.78529-0.3466-0.78529-0.77417v-9.2898c0-0.42757 0.35163-0.77417 0.78529-0.77417zm12.828 0.77417c0-0.42757-0.35163-0.77417-0.78555-0.77417h-9.2673c-0.43366 0-0.78529 0.3466-0.78529 0.77417v9.2898c0 0.42757 0.35163 0.77417 0.78529 0.77417h9.2673c0.43392 0 0.78555-0.3466 0.78555-0.77417zm-36.913 11.268c0.43392 0 0.78555 0.34661 0.78555 0.77417v9.2898c0 0.42757-0.35163 0.77417-0.78555 0.77417h-9.2673c-0.43365 0-0.78528-0.3466-0.78528-0.77417v-9.2898c0-0.42756 0.35163-0.77417 0.78528-0.77417zm12.828 0.77417c0-0.42756-0.35163-0.77417-0.78528-0.77417h-9.2673c-0.43391 0-0.78554 0.34661-0.78554 0.77417v9.2898c0 0.42757 0.35163 0.77417 0.78554 0.77417h9.2673c0.43365 0 0.78528-0.3466 0.78528-0.77417zm11.257-0.77417c0.43365 0 0.78528 0.34661 0.78528 0.77417v9.2898c0 0.42757-0.35163 0.77417-0.78528 0.77417h-9.2676c-0.43366 0-0.78529-0.3466-0.78529-0.77417v-9.2898c0-0.42756 0.35163-0.77417 0.78529-0.77417zm-23.299 12.817c0-0.42756-0.35163-0.77417-0.78555-0.77417h-9.2673c-0.43365 0-0.78528 0.34661-0.78528 0.77417v9.2898c0 0.42757 0.35163 0.77417 0.78528 0.77417h9.2673c0.43392 0 0.78555-0.3466 0.78555-0.77417zm11.257-0.77417c0.43365 0 0.78528 0.34661 0.78528 0.77417v9.2898c0 0.42757-0.35163 0.77417-0.78528 0.77417h-9.2673c-0.43391 0-0.78554-0.3466-0.78554-0.77417v-9.2898c0-0.42756 0.35163-0.77417 0.78554-0.77417zm-11.257 12.816c0-0.42757-0.35163-0.77417-0.78555-0.77417h-9.2673c-0.43365 0-0.78528 0.3466-0.78528 0.77417v9.2898c0 0.42756 0.35163 0.77417 0.78528 0.77417h9.2673c0.43392 0 0.78555-0.34661 0.78555-0.77417z" clip-rule="evenodd" fill="url(#c)" fill-rule="evenodd" stroke-width=".26458"/>
<path transform="matrix(.26458 0 0 .26458 -98.291 -102.33)" d="m439.34 417.97v0.192zm-35.026 0v-0.192zm35.026 40.963v-0.193zm45.515-40.963v0.192zm-35.026 0v-0.192zm35.026 40.963v-0.193zm45.514-40.963v0.192zm0 40.963v-0.193zm-35.027-40.963v-0.192zm80.541 0v0.193zm-35.026 0v-0.192zm35.026 40.963v-0.192zm-136.54 4.551v0.193zm-37.994 38.037h0.192zm0-35.111h0.192zm2.968-2.926v-0.192zm80.541 0v0.193zm-35.026 0v-0.192zm80.54 0v0.193zm-35.027 0v-0.192zm-93.996 48.441h0.192zm0 35.111h0.192zm0 10.403h0.192zm0 35.111h0.192zm37.994-174.39c1.536 0 2.776 1.227 2.776 2.734h0.385c0-1.725-1.418-3.118-3.161-3.118zm-35.026 0h35.026v-0.384h-35.026zm-2.776 2.734c0-1.507 1.24-2.734 2.776-2.734v-0.384c-1.743 0-3.161 1.393-3.161 3.118zm0 35.111v-35.111h-0.385v35.111zm2.776 2.733c-1.536 0-2.776-1.226-2.776-2.733h-0.385c0 1.725 1.418 3.118 3.161 3.118zm35.026 0h-35.026v0.385h35.026zm2.776-2.733c0 1.507-1.24 2.733-2.776 2.733v0.385c1.743 0 3.161-1.393 3.161-3.118zm0-35.111v35.111h0.385v-35.111zm42.739-2.734c1.536 0 2.776 1.227 2.776 2.734h0.385c0-1.725-1.418-3.118-3.161-3.118zm-35.026 0h35.026v-0.384h-35.026zm-2.776 2.734c0-1.507 1.24-2.734 2.776-2.734v-0.384c-1.743 0-3.161 1.393-3.161 3.118zm0 35.111v-35.111h-0.385v35.111zm2.776 2.733c-1.536 0-2.776-1.226-2.776-2.733h-0.385c0 1.725 1.418 3.118 3.161 3.118zm35.026 0h-35.026v0.385h35.026zm2.776-2.733c0 1.507-1.24 2.733-2.776 2.733v0.385c1.743 0 3.161-1.393 3.161-3.118zm0-35.111v35.111h0.385v-35.111zm45.898 0c0-1.725-1.417-3.118-3.16-3.118v0.384c1.535 0 2.776 1.227 2.776 2.734zm0 35.111v-35.111h-0.384v35.111zm-3.16 3.118c1.743 0 3.16-1.393 3.16-3.118h-0.384c0 1.507-1.241 2.733-2.776 2.733zm-35.027 0h35.027v-0.385h-35.027zm-3.16-3.118c0 1.725 1.417 3.118 3.16 3.118v-0.385c-1.535 0-2.775-1.226-2.775-2.733zm0-35.111v35.111h0.385v-35.111zm3.16-3.118c-1.743 0-3.16 1.393-3.16 3.118h0.385c0-1.507 1.24-2.734 2.775-2.734zm35.027 0h-35.027v0.384h35.027zm45.514 0.385c1.536 0 2.776 1.226 2.776 2.733h0.385c0-1.725-1.418-3.118-3.161-3.118zm-35.026 0h35.026v-0.385h-35.026zm-2.776 2.733c0-1.507 1.24-2.733 2.776-2.733v-0.385c-1.743 0-3.161 1.393-3.161 3.118zm0 35.111v-35.111h-0.385v35.111zm2.776 2.734c-1.536 0-2.776-1.227-2.776-2.734h-0.385c0 1.725 1.418 3.118 3.161 3.118zm35.026 0h-35.026v0.384h35.026zm2.776-2.734c0 1.507-1.24 2.734-2.776 2.734v0.384c1.743 0 3.161-1.393 3.161-3.118zm0-35.111v35.111h0.385v-35.111zm-136.16 45.514c0-1.725-1.418-3.118-3.161-3.118v0.385c1.536 0 2.776 1.226 2.776 2.733zm0 35.111v-35.111h-0.385v35.111zm-3.161 3.119c1.743 0 3.161-1.394 3.161-3.119h-0.385c0 1.507-1.24 2.734-2.776 2.734zm-35.026 0h35.026v-0.385h-35.026zm-3.161-3.119c0 1.725 1.418 3.119 3.161 3.119v-0.385c-1.536 0-2.776-1.227-2.776-2.734zm0-35.111v35.111h0.385v-35.111zm3.161-3.118c-1.743 0-3.161 1.393-3.161 3.118h0.385c0-1.507 1.24-2.733 2.776-2.733zm35.026 0h-35.026v0.385h35.026zm45.515 0.385c1.536 0 2.776 1.226 2.776 2.733h0.385c0-1.725-1.418-3.118-3.161-3.118zm-35.026 0h35.026v-0.385h-35.026zm-2.776 2.733c0-1.507 1.24-2.733 2.776-2.733v-0.385c-1.743 0-3.161 1.393-3.161 3.118zm0 35.111v-35.111h-0.385v35.111zm2.776 2.734c-1.536 0-2.776-1.227-2.776-2.734h-0.385c0 1.725 1.418 3.119 3.161 3.119zm35.026 0h-35.026v0.385h35.026zm2.776-2.734c0 1.507-1.24 2.734-2.776 2.734v0.385c1.743 0 3.161-1.394 3.161-3.119zm0-35.111v35.111h0.385v-35.111zm45.898 0c0-1.725-1.417-3.118-3.16-3.118v0.385c1.535 0 2.776 1.226 2.776 2.733zm0 35.111v-35.111h-0.384v35.111zm-3.16 3.119c1.743 0 3.16-1.394 3.16-3.119h-0.384c0 1.507-1.241 2.734-2.776 2.734zm-35.027 0h35.027v-0.385h-35.027zm-3.16-3.119c0 1.725 1.417 3.119 3.16 3.119v-0.385c-1.535 0-2.775-1.227-2.775-2.734zm0-35.111v35.111h0.385v-35.111zm3.16-3.118c-1.743 0-3.16 1.393-3.16 3.118h0.385c0-1.507 1.24-2.733 2.775-2.733zm35.027 0h-35.027v0.385h35.027zm-91.029 45.899c1.536 0 2.776 1.227 2.776 2.734h0.385c0-1.725-1.418-3.119-3.161-3.119zm-35.026 0h35.026v-0.385h-35.026zm-2.776 2.734c0-1.507 1.24-2.734 2.776-2.734v-0.385c-1.743 0-3.161 1.394-3.161 3.119zm0 35.111v-35.111h-0.385v35.111zm2.776 2.733c-1.536 0-2.776-1.226-2.776-2.733h-0.385c0 1.724 1.418 3.118 3.161 3.118zm35.026 0h-35.026v0.385h35.026zm2.776-2.733c0 1.507-1.24 2.733-2.776 2.733v0.385c1.743 0 3.161-1.394 3.161-3.118zm0-35.111v35.111h0.385v-35.111zm45.9 0c0-1.725-1.418-3.119-3.161-3.119v0.385c1.536 0 2.776 1.227 2.776 2.734zm0 35.111v-35.111h-0.385v35.111zm-3.161 3.118c1.743 0 3.161-1.393 3.161-3.118h-0.385c0 1.507-1.24 2.733-2.776 2.733zm-35.026 0h35.026v-0.385h-35.026zm-3.161-3.118c0 1.725 1.418 3.118 3.161 3.118v-0.385c-1.536 0-2.776-1.226-2.776-2.733zm0-35.111v35.111h0.385v-35.111zm3.161-3.119c-1.743 0-3.161 1.394-3.161 3.119h0.385c0-1.507 1.24-2.734 2.776-2.734zm35.026 0h-35.026v0.385h35.026zm-45.515 45.899c1.536 0 2.776 1.227 2.776 2.734h0.385c0-1.725-1.418-3.118-3.161-3.118zm-35.026 0h35.026v-0.384h-35.026zm-2.776 2.734c0-1.507 1.24-2.734 2.776-2.734v-0.384c-1.743 0-3.161 1.393-3.161 3.118zm0 35.111v-35.111h-0.385v35.111zm2.776 2.733c-1.536 0-2.776-1.226-2.776-2.733h-0.385c0 1.725 1.418 3.118 3.161 3.118zm35.026 0h-35.026v0.385h35.026zm2.776-2.733c0 1.507-1.24 2.733-2.776 2.733v0.385c1.743 0 3.161-1.393 3.161-3.118zm0-35.111v35.111h0.385v-35.111z" fill="url(#b)" mask="url(#a)"/>
<path d="m17.95 8.2542c0.43392 0 0.78555 0.3466 0.78555 0.77417v9.2898c0 0.42757-0.35163 0.77417-0.78555 0.77417h-9.2673c-0.43365 0-0.78528-0.3466-0.78528-0.77417v-9.2898c0-0.42757 0.35163-0.77417 0.78528-0.77417z" fill="#fff" fill-opacity="0" stroke-width=".26458" data-figma-bg-blur-radius="113.786"/>
<path d="m29.993 8.2542c0.43365 0 0.78528 0.3466 0.78528 0.77417v9.2898c0 0.42757-0.35163 0.77417-0.78528 0.77417h-9.2673c-0.43391 0-0.78554-0.3466-0.78554-0.77417v-9.2898c0-0.42757 0.35163-0.77417 0.78554-0.77417z" fill="#fff" fill-opacity="0" stroke-width=".26458" data-figma-bg-blur-radius="113.786"/>
<path d="m42.035 8.2542c0.43365 0 0.78528 0.3466 0.78528 0.77417v9.2898c0 0.42757-0.35163 0.77417-0.78528 0.77417h-9.2676c-0.43366 0-0.78529-0.3466-0.78529-0.77417v-9.2898c0-0.42757 0.35163-0.77417 0.78529-0.77417z" fill="#fff" fill-opacity="0" stroke-width=".26458" data-figma-bg-blur-radius="113.786"/>
<path d="m54.077 8.2542c0.43392 0 0.78555 0.3466 0.78555 0.77417v9.2898c0 0.42757-0.35163 0.77417-0.78555 0.77417h-9.2673c-0.43366 0-0.78529-0.3466-0.78529-0.77417v-9.2898c0-0.42757 0.35163-0.77417 0.78529-0.77417z" fill="#fff" fill-opacity="0" stroke-width=".26458" data-figma-bg-blur-radius="113.786"/>
<path d="m17.95 20.296c0.43392 0 0.78555 0.34661 0.78555 0.77417v9.2898c0 0.42757-0.35163 0.77417-0.78555 0.77417h-9.2673c-0.43365 0-0.78528-0.3466-0.78528-0.77417v-9.2898c0-0.42756 0.35163-0.77417 0.78528-0.77417z" fill="#fff" fill-opacity="0" stroke-width=".26458" data-figma-bg-blur-radius="113.786"/>
<path d="m29.993 20.296c0.43365 0 0.78528 0.34661 0.78528 0.77417v9.2898c0 0.42757-0.35163 0.77417-0.78528 0.77417h-9.2673c-0.43391 0-0.78554-0.3466-0.78554-0.77417v-9.2898c0-0.42756 0.35163-0.77417 0.78554-0.77417z" fill="#fff" fill-opacity="0" stroke-width=".26458" data-figma-bg-blur-radius="113.786"/>
<path d="m42.035 20.296c0.43365 0 0.78528 0.34661 0.78528 0.77417v9.2898c0 0.42757-0.35163 0.77417-0.78528 0.77417h-9.2676c-0.43366 0-0.78529-0.3466-0.78529-0.77417v-9.2898c0-0.42756 0.35163-0.77417 0.78529-0.77417z" fill="#fff" fill-opacity="0" stroke-width=".26458" data-figma-bg-blur-radius="113.786"/>
<path d="m17.95 32.339c0.43392 0 0.78555 0.34661 0.78555 0.77417v9.2898c0 0.42757-0.35163 0.77417-0.78555 0.77417h-9.2673c-0.43365 0-0.78528-0.3466-0.78528-0.77417v-9.2898c0-0.42756 0.35163-0.77417 0.78528-0.77417z" fill="#fff" fill-opacity="0" stroke-width=".26458" data-figma-bg-blur-radius="113.786"/>
<path d="m29.993 32.339c0.43365 0 0.78528 0.34661 0.78528 0.77417v9.2898c0 0.42757-0.35163 0.77417-0.78528 0.77417h-9.2673c-0.43391 0-0.78554-0.3466-0.78554-0.77417v-9.2898c0-0.42756 0.35163-0.77417 0.78554-0.77417z" fill="#fff" fill-opacity="0" stroke-width=".26458" data-figma-bg-blur-radius="113.786"/>
<path d="m17.95 44.381c0.43392 0 0.78555 0.3466 0.78555 0.77417v9.2898c0 0.42756-0.35163 0.77417-0.78555 0.77417h-9.2673c-0.43365 0-0.78528-0.34661-0.78528-0.77417v-9.2898c0-0.42757 0.35163-0.77417 0.78528-0.77417z" fill="#fff" fill-opacity="0" stroke-width=".26458" data-figma-bg-blur-radius="113.786"/>
</svg>
