<svg width="24" height="24" viewBox="0 0 24 24" fill="none" xmlns="http://www.w3.org/2000/svg">
<path d="M12 2.38608C17.525 2.38608 22 6.86108 22 12.3861C22 17.9111 17.525 22.3861 12 22.3861C6.475 22.3861 2 17.9111 2 12.3861C2 6.86108 6.475 2.38608 12 2.38608ZM13.25 7.38608C13.25 6.69858 12.6875 6.13608 12 6.13608C11.3125 6.13608 10.75 6.69858 10.75 7.38608C10.75 8.07358 11.3125 8.63608 12 8.63608C12.6875 8.63608 13.25 8.07358 13.25 7.38608ZM13.25 18.6361V11.1361H10.75V18.6361H13.25Z" fill="#019BE7"/>
</svg>
