<svg width="24" height="25" viewBox="0 0 24 25" fill="none" xmlns="http://www.w3.org/2000/svg">
<g clip-path="url(#clip0_3308_154722)">
<path d="M19.9038 1.03365L9.64899 4.17067C8.405 4.52404 7.39899 5.81851 7.39899 7.0625V17.732C7.39899 17.732 7.39899 17.8762 7.39899 17.8798C7.39899 17.8798 6.6562 17.3786 5.00115 17.613C2.57087 17.9591 0.598511 19.8233 0.598511 21.7812C0.598511 23.7392 2.57087 24.9363 5.00115 24.5901C7.43505 24.2476 9.2163 22.4411 9.2163 20.4832C9.2163 20.4832 9.2163 12.1142 9.2163 11.2452C9.2163 10.3798 10.2584 10.0048 10.2584 10.0048L19.3269 7.16346C19.3269 7.16346 20.3293 6.82812 20.3293 7.75481C20.3293 8.68509 20.3293 15.1683 20.3293 15.1683C20.3293 15.1683 20.3293 15.1719 20.3293 15.1755C20.3293 15.1755 19.4062 14.6418 17.7512 14.8437C15.3209 15.1394 13.3485 16.9639 13.3485 18.9219C13.3485 20.8798 15.3209 22.1166 17.7512 21.8209C20.1814 21.5288 22.1538 19.7007 22.1538 17.7428V2.63822C22.1538 1.39783 21.1442 0.676681 19.9038 1.03365Z" fill="white"/>
</g>
<defs>
<clipPath id="clip0_3308_154722">
<rect width="24" height="24" fill="white" transform="translate(0 0.875)"/>
</clipPath>
</defs>
</svg>
