<svg width="9" height="6" viewBox="0 0 9 6" fill="none" xmlns="http://www.w3.org/2000/svg">
<path d="M4.40169 5.09896C4.58919 5.09896 4.74544 5.02604 4.89648 4.88021L8.62044 1.06771C8.74023 0.947917 8.80273 0.802083 8.80273 0.630208C8.80273 0.276042 8.52669 0 8.17773 0C8.00586 0 7.8444 0.0729167 7.72461 0.192708L4.39648 3.60417L1.07878 0.192708C0.953776 0.0729167 0.792317 0 0.62565 0C0.276692 0 0.000650406 0.276042 0.000650406 0.630208C0.000650406 0.802083 0.0631504 0.947917 0.177734 1.06771L3.9069 4.875C4.04753 5.02604 4.20898 5.09896 4.40169 5.09896Z" fill="#9298A6"/>
</svg>
