<svg width="32" height="32" viewBox="0 0 32 32" fill="none" xmlns="http://www.w3.org/2000/svg">
<path d="M26.3528 9.37917L19.4195 2.44583C19.219 2.2453 18.948 2.1333 18.6654 2.1333H7.46536C6.2867 2.1333 5.33203 3.08797 5.33203 4.26663V27.7333C5.33203 28.912 6.2867 29.8666 7.46536 29.8666H24.532C25.7107 29.8666 26.6654 28.912 26.6654 27.7333V10.1333C26.6654 9.85063 26.5534 9.5797 26.3528 9.37917ZM19.7822 20.0693L14.4424 23.2736C14.2739 23.3856 14.083 23.4666 13.8654 23.4666C13.2766 23.4666 12.7987 22.9888 12.7987 22.4V16C12.7987 15.4112 13.2766 14.9333 13.8654 14.9333C14.083 14.9333 14.2739 15.0144 14.4424 15.1264L19.7822 18.3306C20.067 18.5226 20.2654 18.8309 20.2654 19.2C20.2654 19.569 20.067 19.8773 19.7822 20.0693ZM19.1987 10.6666C18.6099 10.6666 18.132 10.1888 18.132 9.59997V4.16423L24.6344 10.6666H19.1987Z" fill="#F5A623"/>
</svg>
