<svg width="24" height="24" viewBox="0 0 24 24" fill="none" xmlns="http://www.w3.org/2000/svg">
<path d="M18.9227 2.11041H14.9669C14.42 2.11041 13.9779 2.55347 13.9779 3.09938V20.9007C13.9779 21.4476 14.42 21.8897 14.9669 21.8897H18.9227C19.4696 21.8897 19.9117 21.4476 19.9117 20.9007V3.09938C19.9117 2.55347 19.4696 2.11041 18.9227 2.11041ZM9.03308 2.11041H5.07722C4.53032 2.11041 4.08826 2.55347 4.08826 3.09938V20.9007C4.08826 21.4476 4.53032 21.8897 5.07722 21.8897H9.03308C9.57998 21.8897 10.022 21.4476 10.022 20.9007V3.09938C10.022 2.55347 9.57998 2.11041 9.03308 2.11041Z" fill="white"/>
</svg>
