<svg width="16" height="16" viewBox="0 0 16 16" fill="none" xmlns="http://www.w3.org/2000/svg">
<g clip-path="url(#clip0_5229_4329)">
<path d="M6.40489 1.01156C6.91828 0.89484 7.45222 0.833313 7.99988 0.833313C11.9579 0.833313 15.1665 4.04194 15.1665 7.99998C15.1665 11.958 11.9579 15.1666 7.99988 15.1666C7.45222 15.1666 6.91828 15.1051 6.40489 14.9884C6.13562 14.9272 5.96696 14.6592 6.02818 14.39C6.0894 14.1207 6.35731 13.952 6.62658 14.0133C7.06775 14.1136 7.52728 14.1666 7.99988 14.1666C11.4056 14.1666 14.1665 11.4057 14.1665 7.99998C14.1665 4.59423 11.4056 1.83331 7.99988 1.83331C7.52728 1.83331 7.06775 1.88638 6.62658 1.98667C6.35731 2.04789 6.0894 1.87923 6.02818 1.60996C5.96696 1.34069 6.13562 1.07277 6.40489 1.01156Z" fill="white"/>
<path d="M4.87499 2.08796C5.02213 2.32164 4.95197 2.63035 4.7183 2.77749C3.93484 3.27079 3.27 3.93563 2.77669 4.71909C2.62955 4.95277 2.32085 5.02293 2.08717 4.87579C1.85349 4.72865 1.78333 4.41994 1.93047 4.18627C2.50349 3.27621 3.27542 2.50428 4.18547 1.93126C4.41915 1.78413 4.72786 1.85428 4.87499 2.08796Z" fill="white"/>
<path d="M1.98734 6.62671C2.04856 6.35743 1.8799 6.08952 1.61063 6.0283C1.34136 5.96708 1.07344 6.13574 1.01223 6.40501C0.895511 6.9184 0.833984 7.45234 0.833984 8.00001C0.833984 8.54767 0.895511 9.08161 1.01223 9.59501C1.07344 9.86427 1.34136 10.0329 1.61063 9.97174C1.8799 9.91047 2.04856 9.64261 1.98734 9.37334C1.88705 8.93214 1.83398 8.4726 1.83398 8.00001C1.83398 7.52741 1.88705 7.06787 1.98734 6.62671Z" fill="white"/>
<path d="M2.08717 11.1242C2.32085 10.9771 2.62956 11.0472 2.77669 11.2809C3.27 12.0643 3.93484 12.7292 4.7183 13.2225C4.95197 13.3696 5.02213 13.6783 4.87499 13.912C4.72786 14.1457 4.41915 14.2159 4.18547 14.0687C3.27542 13.4957 2.50349 12.7237 1.93047 11.8137C1.78333 11.58 1.85349 11.2713 2.08717 11.1242Z" fill="white"/>
<path d="M10.2758 7.29398C10.7969 7.60171 10.7969 8.39825 10.2758 8.70598L7.129 10.5638C6.62247 10.8629 6 10.4736 6 9.85785V6.14209C6 5.52629 6.62247 5.13705 7.129 5.43611L10.2758 7.29398Z" fill="white"/>
</g>
<defs>
<clipPath id="clip0_5229_4329">
<rect width="16" height="16" fill="white"/>
</clipPath>
</defs>
</svg>
