<svg width="15" height="15" viewBox="0 0 15 15" fill="none" xmlns="http://www.w3.org/2000/svg">
<path d="M6.30273 1.04492C6.57914 0.108713 7.87279 0.0794136 8.21289 0.957031L8.24316 1.04492L8.33398 1.35352V1.35449C8.40356 1.59055 8.52498 1.80815 8.68945 1.99121C8.85416 2.17445 9.05851 2.31879 9.28613 2.41309C9.51354 2.50723 9.7591 2.54914 10.0049 2.53613C10.2505 2.52307 10.49 2.45446 10.7061 2.33691L10.707 2.33789L10.9902 2.18359C11.875 1.7012 12.8447 2.66991 12.3623 3.55664L12.209 3.83691L12.208 3.83789C12.0902 4.05417 12.0219 4.29408 12.0088 4.54004C11.9957 4.78608 12.0385 5.03214 12.1328 5.25977C12.2271 5.48719 12.3707 5.69085 12.5537 5.85547C12.7369 6.02018 12.9551 6.14233 13.1914 6.21191L13.5 6.30176V6.30273C14.4366 6.57904 14.4661 7.87303 13.5879 8.21289L13.5 8.24316L13.1914 8.33398C12.9551 8.40357 12.7369 8.52475 12.5537 8.68945C12.3705 8.85416 12.2271 9.05851 12.1328 9.28613C12.0386 9.51358 11.9958 9.75906 12.0088 10.0049C12.0219 10.2507 12.0903 10.4908 12.208 10.707L12.3613 10.9902C12.8437 11.875 11.876 12.8447 10.9893 12.3623H10.9883L10.708 12.209V12.208L10.541 12.1289C10.3708 12.0595 10.1893 12.0186 10.0049 12.0088C9.75906 11.9958 9.51358 12.0386 9.28613 12.1328C9.05851 12.2271 8.85416 12.3705 8.68945 12.5537C8.52475 12.7369 8.40357 12.9551 8.33398 13.1914L8.24316 13.5C7.96684 14.4367 6.67178 14.4662 6.33203 13.5879L6.30273 13.5L6.21191 13.1914C6.14233 12.9551 6.02018 12.7369 5.85547 12.5537C5.69085 12.3707 5.48719 12.2271 5.25977 12.1328C5.03214 12.0385 4.78608 11.9957 4.54004 12.0088C4.35548 12.0186 4.17423 12.0594 4.00391 12.1289L3.83789 12.208L3.55566 12.3613H3.55469C2.67025 12.8435 1.7013 11.8767 2.18262 10.9902L2.33691 10.708C2.45482 10.4917 2.52305 10.2509 2.53613 10.0049C2.54914 9.7591 2.50723 9.51354 2.41309 9.28613C2.31879 9.05851 2.17445 8.85416 1.99121 8.68945C1.80815 8.52498 1.59055 8.40356 1.35449 8.33398H1.35352L1.04492 8.24316C0.108531 7.96681 0.0791925 6.67204 0.957031 6.33203L1.04492 6.30273L1.35352 6.21191H1.35449C2.36351 5.91416 2.84055 4.76218 2.33789 3.83789L2.18359 3.55566V3.55469C1.70172 2.67034 2.66928 1.70045 3.55566 2.18164V2.18262L3.83691 2.33691H3.83789C4.0542 2.45481 4.29404 2.52303 4.54004 2.53613C4.78608 2.54922 5.03214 2.50738 5.25977 2.41309C5.48737 2.31879 5.69077 2.17443 5.85547 1.99121C6.02009 1.80806 6.14231 1.59071 6.21191 1.35449V1.35352L6.30273 1.04492ZM7.27246 4.28906C6.48125 4.28913 5.72256 4.60361 5.16309 5.16309C4.60361 5.72256 4.28913 6.48125 4.28906 7.27246C4.28906 8.06377 4.60355 8.82327 5.16309 9.38281C5.72254 9.94215 6.48135 10.2568 7.27246 10.2568H7.59277V10.2363C8.26612 10.1637 8.89845 9.86425 9.38184 9.38086C9.94118 8.82149 10.2559 8.06254 10.2559 7.27148C10.2558 6.48063 9.94101 5.72236 9.38184 5.16309C8.82247 4.60372 8.06353 4.28906 7.27246 4.28906Z" fill="url(#paint0_linear_4956_259)"/>
<path d="M6.30273 1.04492C6.57914 0.108713 7.87279 0.0794136 8.21289 0.957031L8.24316 1.04492L8.33398 1.35352V1.35449C8.40356 1.59055 8.52498 1.80815 8.68945 1.99121C8.85416 2.17445 9.05851 2.31879 9.28613 2.41309C9.51354 2.50723 9.7591 2.54914 10.0049 2.53613C10.2505 2.52307 10.49 2.45446 10.7061 2.33691L10.707 2.33789L10.9902 2.18359C11.875 1.7012 12.8447 2.66991 12.3623 3.55664L12.209 3.83691L12.208 3.83789C12.0902 4.05417 12.0219 4.29408 12.0088 4.54004C11.9957 4.78608 12.0385 5.03214 12.1328 5.25977C12.2271 5.48719 12.3707 5.69085 12.5537 5.85547C12.7369 6.02018 12.9551 6.14233 13.1914 6.21191L13.5 6.30176V6.30273C14.4366 6.57904 14.4661 7.87303 13.5879 8.21289L13.5 8.24316L13.1914 8.33398C12.9551 8.40357 12.7369 8.52475 12.5537 8.68945C12.3705 8.85416 12.2271 9.05851 12.1328 9.28613C12.0386 9.51358 11.9958 9.75906 12.0088 10.0049C12.0219 10.2507 12.0903 10.4908 12.208 10.707L12.3613 10.9902C12.8437 11.875 11.876 12.8447 10.9893 12.3623H10.9883L10.708 12.209V12.208L10.541 12.1289C10.3708 12.0595 10.1893 12.0186 10.0049 12.0088C9.75906 11.9958 9.51358 12.0386 9.28613 12.1328C9.05851 12.2271 8.85416 12.3705 8.68945 12.5537C8.52475 12.7369 8.40357 12.9551 8.33398 13.1914L8.24316 13.5C7.96684 14.4367 6.67178 14.4662 6.33203 13.5879L6.30273 13.5L6.21191 13.1914C6.14233 12.9551 6.02018 12.7369 5.85547 12.5537C5.69085 12.3707 5.48719 12.2271 5.25977 12.1328C5.03214 12.0385 4.78608 11.9957 4.54004 12.0088C4.35548 12.0186 4.17423 12.0594 4.00391 12.1289L3.83789 12.208L3.55566 12.3613H3.55469C2.67025 12.8435 1.7013 11.8767 2.18262 10.9902L2.33691 10.708C2.45482 10.4917 2.52305 10.2509 2.53613 10.0049C2.54914 9.7591 2.50723 9.51354 2.41309 9.28613C2.31879 9.05851 2.17445 8.85416 1.99121 8.68945C1.80815 8.52498 1.59055 8.40356 1.35449 8.33398H1.35352L1.04492 8.24316C0.108531 7.96681 0.0791925 6.67204 0.957031 6.33203L1.04492 6.30273L1.35352 6.21191H1.35449C2.36351 5.91416 2.84055 4.76218 2.33789 3.83789L2.18359 3.55566V3.55469C1.70172 2.67034 2.66928 1.70045 3.55566 2.18164V2.18262L3.83691 2.33691H3.83789C4.0542 2.45481 4.29404 2.52303 4.54004 2.53613C4.78608 2.54922 5.03214 2.50738 5.25977 2.41309C5.48737 2.31879 5.69077 2.17443 5.85547 1.99121C6.02009 1.80806 6.14231 1.59071 6.21191 1.35449V1.35352L6.30273 1.04492ZM7.27246 4.28906C6.48125 4.28913 5.72256 4.60361 5.16309 5.16309C4.60361 5.72256 4.28913 6.48125 4.28906 7.27246C4.28906 8.06377 4.60355 8.82327 5.16309 9.38281C5.72254 9.94215 6.48135 10.2568 7.27246 10.2568H7.59277V10.2363C8.26612 10.1637 8.89845 9.86425 9.38184 9.38086C9.94118 8.82149 10.2559 8.06254 10.2559 7.27148C10.2558 6.48063 9.94101 5.72236 9.38184 5.16309C8.82247 4.60372 8.06353 4.28906 7.27246 4.28906Z" fill="white" fill-opacity="0.3"/>
<path d="M6.30273 1.04492C6.57914 0.108713 7.87279 0.0794136 8.21289 0.957031L8.24316 1.04492L8.33398 1.35352V1.35449C8.40356 1.59055 8.52498 1.80815 8.68945 1.99121C8.85416 2.17445 9.05851 2.31879 9.28613 2.41309C9.51354 2.50723 9.7591 2.54914 10.0049 2.53613C10.2505 2.52307 10.49 2.45446 10.7061 2.33691L10.707 2.33789L10.9902 2.18359C11.875 1.7012 12.8447 2.66991 12.3623 3.55664L12.209 3.83691L12.208 3.83789C12.0902 4.05417 12.0219 4.29408 12.0088 4.54004C11.9957 4.78608 12.0385 5.03214 12.1328 5.25977C12.2271 5.48719 12.3707 5.69085 12.5537 5.85547C12.7369 6.02018 12.9551 6.14233 13.1914 6.21191L13.5 6.30176V6.30273C14.4366 6.57904 14.4661 7.87303 13.5879 8.21289L13.5 8.24316L13.1914 8.33398C12.9551 8.40357 12.7369 8.52475 12.5537 8.68945C12.3705 8.85416 12.2271 9.05851 12.1328 9.28613C12.0386 9.51358 11.9958 9.75906 12.0088 10.0049C12.0219 10.2507 12.0903 10.4908 12.208 10.707L12.3613 10.9902C12.8437 11.875 11.876 12.8447 10.9893 12.3623H10.9883L10.708 12.209V12.208L10.541 12.1289C10.3708 12.0595 10.1893 12.0186 10.0049 12.0088C9.75906 11.9958 9.51358 12.0386 9.28613 12.1328C9.05851 12.2271 8.85416 12.3705 8.68945 12.5537C8.52475 12.7369 8.40357 12.9551 8.33398 13.1914L8.24316 13.5C7.96684 14.4367 6.67178 14.4662 6.33203 13.5879L6.30273 13.5L6.21191 13.1914C6.14233 12.9551 6.02018 12.7369 5.85547 12.5537C5.69085 12.3707 5.48719 12.2271 5.25977 12.1328C5.03214 12.0385 4.78608 11.9957 4.54004 12.0088C4.35548 12.0186 4.17423 12.0594 4.00391 12.1289L3.83789 12.208L3.55566 12.3613H3.55469C2.67025 12.8435 1.7013 11.8767 2.18262 10.9902L2.33691 10.708C2.45482 10.4917 2.52305 10.2509 2.53613 10.0049C2.54914 9.7591 2.50723 9.51354 2.41309 9.28613C2.31879 9.05851 2.17445 8.85416 1.99121 8.68945C1.80815 8.52498 1.59055 8.40356 1.35449 8.33398H1.35352L1.04492 8.24316C0.108531 7.96681 0.0791925 6.67204 0.957031 6.33203L1.04492 6.30273L1.35352 6.21191H1.35449C2.36351 5.91416 2.84055 4.76218 2.33789 3.83789L2.18359 3.55566V3.55469C1.70172 2.67034 2.66928 1.70045 3.55566 2.18164V2.18262L3.83691 2.33691H3.83789C4.0542 2.45481 4.29404 2.52303 4.54004 2.53613C4.78608 2.54922 5.03214 2.50738 5.25977 2.41309C5.48737 2.31879 5.69077 2.17443 5.85547 1.99121C6.02009 1.80806 6.14231 1.59071 6.21191 1.35449V1.35352L6.30273 1.04492ZM7.27246 4.28906C6.48125 4.28913 5.72256 4.60361 5.16309 5.16309C4.60361 5.72256 4.28913 6.48125 4.28906 7.27246C4.28906 8.06377 4.60355 8.82327 5.16309 9.38281C5.72254 9.94215 6.48135 10.2568 7.27246 10.2568H7.59277V10.2363C8.26612 10.1637 8.89845 9.86425 9.38184 9.38086C9.94118 8.82149 10.2559 8.06254 10.2559 7.27148C10.2558 6.48063 9.94101 5.72236 9.38184 5.16309C8.82247 4.60372 8.06353 4.28906 7.27246 4.28906Z" stroke="url(#paint1_linear_4956_259)" stroke-width="0.64"/>
<defs>
<linearGradient id="paint0_linear_4956_259" x1="2.13018" y1="2.13018" x2="12.4153" y2="12.4153" gradientUnits="userSpaceOnUse">
<stop stop-color="#707071"/>
<stop offset="0.525171" stop-color="#59595A"/>
<stop offset="1" stop-color="#4E4E50"/>
</linearGradient>
<linearGradient id="paint1_linear_4956_259" x1="2.13018" y1="2.13018" x2="12.4153" y2="12.4153" gradientUnits="userSpaceOnUse">
<stop stop-color="white" stop-opacity="0.3"/>
<stop offset="0.493" stop-color="white" stop-opacity="0"/>
<stop offset="0.997" stop-color="white" stop-opacity="0"/>
</linearGradient>
</defs>
</svg>
