<svg width="24" height="24" viewBox="0 0 24 24" fill="none" xmlns="http://www.w3.org/2000/svg">
<path d="M4.63636 4.63635C3.73227 4.63635 3 5.36863 3 6.27272V16.0909C3 16.995 3.73227 17.7273 4.63636 17.7273H8.72727V18.5454C8.72727 18.9971 9.09382 19.3636 9.54545 19.3636H14.4545C14.9062 19.3636 15.2727 18.9971 15.2727 18.5454V17.7273H19.3636C20.2677 17.7273 21 16.995 21 16.0909V6.27272C21 5.36863 20.2677 4.63635 19.3636 4.63635H4.63636ZM5.45455 6.27272H18.5455C18.9971 6.27272 19.3636 6.63926 19.3636 7.0909V15.2727C19.3636 15.7244 18.9971 16.0909 18.5455 16.0909H5.45455C5.00291 16.0909 4.63636 15.7244 4.63636 15.2727V7.0909C4.63636 6.63926 5.00291 6.27272 5.45455 6.27272Z" fill="white"/>
</svg>
