<svg width="5" height="8" viewBox="0 0 5 8" fill="none" xmlns="http://www.w3.org/2000/svg">
<path d="M4.66667 3.99774C4.66667 4.07604 4.65139 4.14832 4.62082 4.21457C4.59026 4.28082 4.54442 4.34406 4.4833 4.40429L0.912246 7.84641C0.811395 7.9488 0.686095 8 0.536346 8C0.438551 8 0.348396 7.97591 0.265881 7.92772C0.183366 7.88255 0.11766 7.81931 0.0687623 7.738C0.0229208 7.6597 0 7.57237 0 7.476C0 7.33145 0.0550098 7.20346 0.165029 7.09204L3.3831 3.99774L0.165029 0.903444C0.0550098 0.79202 0 0.665537 0 0.523998C0 0.424619 0.0229208 0.33578 0.0687623 0.257482C0.11766 0.179183 0.183366 0.117448 0.265881 0.0722755C0.348396 0.0240918 0.438551 0 0.536346 0C0.686095 0 0.811395 0.0496894 0.912246 0.149068L4.4833 3.59119C4.54442 3.65142 4.59026 3.71466 4.62082 3.78091C4.65139 3.84717 4.66667 3.91944 4.66667 3.99774Z" fill="#555967"/>
</svg>
