<svg width="22" height="22" viewBox="0 0 22 22" fill="none" xmlns="http://www.w3.org/2000/svg">
<path d="M7.25 1H2.25C2.08582 0.999907 1.92323 1.03218 1.77154 1.09496C1.61984 1.15775 1.482 1.24982 1.36591 1.36591C1.24982 1.482 1.15775 1.61984 1.09496 1.77154C1.03218 1.92323 0.999907 2.08582 1 2.25V7.25C1 7.58152 1.1317 7.89946 1.36612 8.13388C1.60054 8.3683 1.91848 8.5 2.25 8.5C2.58152 8.5 2.89946 8.3683 3.13388 8.13388C3.3683 7.89946 3.5 7.58152 3.5 7.25V3.5H7.25C7.58152 3.5 7.89946 3.3683 8.13388 3.13388C8.3683 2.89946 8.5 2.58152 8.5 2.25C8.5 1.91848 8.3683 1.60054 8.13388 1.36612C7.89946 1.1317 7.58152 1 7.25 1Z" fill="white"/>
<path d="M19.75 1H14.75C14.4185 1 14.1005 1.1317 13.8661 1.36612C13.6317 1.60054 13.5 1.91848 13.5 2.25C13.5 2.58152 13.6317 2.89946 13.8661 3.13388C14.1005 3.3683 14.4185 3.5 14.75 3.5H18.5V7.25C18.5 7.58152 18.6317 7.89946 18.8661 8.13388C19.1005 8.3683 19.4185 8.5 19.75 8.5C20.0815 8.5 20.3995 8.3683 20.6339 8.13388C20.8683 7.89946 21 7.58152 21 7.25V2.25C21.0001 2.08582 20.9678 1.92323 20.905 1.77154C20.8423 1.61984 20.7502 1.482 20.6341 1.36591C20.518 1.24982 20.3802 1.15775 20.2285 1.09496C20.0768 1.03218 19.9142 0.999907 19.75 1Z" fill="white"/>
<path d="M7.25 18.5H3.5V14.75C3.5 14.4185 3.3683 14.1005 3.13388 13.8661C2.89946 13.6317 2.58152 13.5 2.25 13.5C1.91848 13.5 1.60054 13.6317 1.36612 13.8661C1.1317 14.1005 1 14.4185 1 14.75V19.75C0.999907 19.9142 1.03218 20.0768 1.09496 20.2285C1.15775 20.3802 1.24982 20.518 1.36591 20.6341C1.482 20.7502 1.61984 20.8423 1.77154 20.905C1.92323 20.9678 2.08582 21.0001 2.25 21H7.25C7.58152 21 7.89946 20.8683 8.13388 20.6339C8.3683 20.3995 8.5 20.0815 8.5 19.75C8.5 19.4185 8.3683 19.1005 8.13388 18.8661C7.89946 18.6317 7.58152 18.5 7.25 18.5Z" fill="white"/>
<path d="M19.75 13.5C19.5858 13.4999 19.4232 13.5322 19.2715 13.595C19.1198 13.6577 18.982 13.7498 18.8659 13.8659C18.7498 13.982 18.6577 14.1198 18.595 14.2715C18.5322 14.4232 18.4999 14.5858 18.5 14.75V18.5H14.75C14.4185 18.5 14.1005 18.6317 13.8661 18.8661C13.6317 19.1005 13.5 19.4185 13.5 19.75C13.5 20.0815 13.6317 20.3995 13.8661 20.6339C14.1005 20.8683 14.4185 21 14.75 21H19.75C19.9142 21.0001 20.0768 20.9678 20.2285 20.905C20.3802 20.8423 20.518 20.7502 20.6341 20.6341C20.7502 20.518 20.8423 20.3802 20.905 20.2285C20.9678 20.0768 21.0001 19.9142 21 19.75V14.75C21.0001 14.5858 20.9678 14.4232 20.905 14.2715C20.8423 14.1198 20.7502 13.982 20.6341 13.8659C20.518 13.7498 20.3802 13.6577 20.2285 13.595C20.0768 13.5322 19.9142 13.4999 19.75 13.5Z" fill="white"/>
</svg>
