<svg width="32" height="32" viewBox="0 0 32 32" fill="none" xmlns="http://www.w3.org/2000/svg">
<path d="M26.8889 2H5.11111C3.39533 2 2 3.39533 2 5.11111V26.8889C2 28.6047 3.39533 30 5.11111 30H26.8889C28.6047 30 30 28.6047 30 26.8889V5.11111C30 3.39533 28.6047 2 26.8889 2ZM16 23.7778C15.1413 23.7778 14.4444 23.0809 14.4444 22.2222V16H9.92867C9.29867 16 8.98289 15.2378 9.42933 14.7929L14.9002 9.322C15.5084 8.71378 16.4931 8.71378 17.0998 9.322L22.5707 14.7929C23.0156 15.2378 22.7013 16 22.0713 16H17.5556V22.2222C17.5556 23.0809 16.8587 23.7778 16 23.7778Z" fill="#8B5CF6"/>
</svg>
