<svg width="14" height="15" viewBox="0 0 14 15" fill="none" xmlns="http://www.w3.org/2000/svg">
<path d="M5.68394 0C4.8713 0 4.21053 0.660778 4.21053 1.47341V3.43887C4.21053 4.2515 4.8713 4.91228 5.68394 4.91228H6.14035V6.66667H3.50877C2.64298 6.66667 1.92982 7.37982 1.92982 8.24561V9.12281H1.47341C0.660779 9.12281 0 9.78358 0 10.5962V12.5617C0 13.3743 0.660779 14.0351 1.47341 14.0351H3.43887C4.2515 14.0351 4.91228 13.3743 4.91228 12.5617V10.5962C4.91228 9.78358 4.2515 9.12281 3.43887 9.12281H2.98246V8.24561C2.98246 7.9486 3.21175 7.7193 3.50877 7.7193H9.82456C10.1216 7.7193 10.3509 7.9486 10.3509 8.24561V9.12281H9.89446C9.08183 9.12281 8.42105 9.78358 8.42105 10.5962V12.5617C8.42105 13.3743 9.08183 14.0351 9.89446 14.0351H11.8599C12.6726 14.0351 13.3333 13.3743 13.3333 12.5617V10.5962C13.3333 9.78358 12.6726 9.12281 11.8599 9.12281H11.4035V8.24561C11.4035 7.37982 10.6904 6.66667 9.82456 6.66667H7.19298V4.91228H7.6494C8.46203 4.91228 9.12281 4.2515 9.12281 3.43887V1.47341C9.12281 0.660778 8.46203 0 7.6494 0H5.68394Z" fill="#555967"/>
</svg>
