<svg width="9" height="9" viewBox="0 0 9 9" fill="none" xmlns="http://www.w3.org/2000/svg">
<path d="M8.49023 0.000208322C8.4716 0.000797151 8.45302 0.00242731 8.43457 0.00509113H6C5.93374 0.00415411 5.86796 0.0163948 5.80648 0.0411016C5.74499 0.0658085 5.68903 0.102489 5.64185 0.149011C5.59466 0.195533 5.5572 0.25097 5.53162 0.312098C5.50605 0.373227 5.49288 0.438829 5.49288 0.505091C5.49288 0.571354 5.50605 0.636955 5.53162 0.698084C5.5572 0.759213 5.59466 0.814649 5.64185 0.861171C5.68903 0.907693 5.74499 0.944374 5.80648 0.969081C5.86796 0.993788 5.93374 1.00603 6 1.00509H7.29297L2.64648 5.65158C2.5985 5.69765 2.56019 5.75283 2.53379 5.8139C2.5074 5.87496 2.49346 5.94068 2.49278 6.0072C2.4921 6.07372 2.50471 6.13971 2.52985 6.20129C2.555 6.26288 2.59218 6.31883 2.63922 6.36587C2.68626 6.41291 2.74221 6.45009 2.8038 6.47524C2.86539 6.50038 2.93137 6.51299 2.99789 6.51231C3.06441 6.51163 3.13013 6.49769 3.19119 6.4713C3.25226 6.4449 3.30744 6.40659 3.35352 6.35861L8 1.71212V3.00509C7.99906 3.07135 8.0113 3.13713 8.03601 3.19861C8.06072 3.2601 8.0974 3.31606 8.14392 3.36324C8.19044 3.41043 8.24588 3.44789 8.30701 3.47347C8.36814 3.49904 8.43374 3.51221 8.5 3.51221C8.56626 3.51221 8.63186 3.49904 8.69299 3.47347C8.75412 3.44789 8.80956 3.41043 8.85608 3.36324C8.9026 3.31606 8.93928 3.2601 8.96399 3.19861C8.9887 3.13713 9.00094 3.07135 9 3.00509V0.568568C9.00996 0.49658 9.0041 0.423288 8.98285 0.353793C8.96159 0.284298 8.92545 0.220271 8.87692 0.166171C8.8284 0.11207 8.76867 0.0691965 8.70189 0.0405344C8.6351 0.0118724 8.56288 -0.00188909 8.49023 0.000208322ZM1 0.00509113C0.453469 0.00509113 0 0.45856 0 1.00509V8.00509C0 8.55162 0.453469 9.00509 1 9.00509H8C8.54653 9.00509 9 8.55162 9 8.00509V5.00509C9.00094 4.93884 8.9887 4.87305 8.96399 4.81157C8.93928 4.75009 8.9026 4.69413 8.85608 4.64694C8.80956 4.59976 8.75412 4.56229 8.69299 4.53671C8.63186 4.51114 8.56626 4.49797 8.5 4.49797C8.43374 4.49797 8.36814 4.51114 8.30701 4.53671C8.24588 4.56229 8.19044 4.59976 8.14392 4.64694C8.0974 4.69413 8.06072 4.75009 8.03601 4.81157C8.0113 4.87305 7.99906 4.93884 8 5.00509V8.00509H1V1.00509H4C4.06626 1.00603 4.13204 0.993788 4.19352 0.969081C4.25501 0.944374 4.31097 0.907693 4.35815 0.861171C4.40534 0.814649 4.4428 0.759213 4.46838 0.698084C4.49395 0.636955 4.50712 0.571354 4.50712 0.505091C4.50712 0.438829 4.49395 0.373227 4.46838 0.312098C4.4428 0.25097 4.40534 0.195533 4.35815 0.149011C4.31097 0.102489 4.25501 0.0658085 4.19352 0.0411016C4.13204 0.0163948 4.06626 0.00415411 4 0.00509113H1Z" fill="#4B9DEF"/>
</svg>
