<svg width="15" height="14" viewBox="0 0 15 14" fill="none" xmlns="http://www.w3.org/2000/svg">
<path fill-rule="evenodd" clip-rule="evenodd" d="M9.7568 5.69844L1.73657 0.159468C1.33038 -0.0959405 0.835974 -0.0272163 0.479018 0.242552C0.334157 0.348628 0.215619 0.486585 0.132561 0.645765C0.0495033 0.804944 0.00414828 0.981087 0 1.16059L0 12.1411C0 13.0478 1.00419 13.6346 1.73657 13.1709L9.75782 7.6658C10.4245 7.2155 10.4245 6.14771 9.75782 5.69741L9.7568 5.69844ZM14.1039 1.27342C14.1039 1.00137 13.9958 0.740474 13.8034 0.548112C13.6111 0.355749 13.3502 0.247681 13.0781 0.247681C12.8061 0.247681 12.5452 0.355749 12.3528 0.548112C12.1605 0.740474 12.0524 1.00137 12.0524 1.27342V12.0601C12.0524 12.3321 12.1605 12.593 12.3528 12.7854C12.5452 12.9777 12.8061 13.0858 13.0781 13.0858C13.3502 13.0858 13.6111 12.9777 13.8034 12.7854C13.9958 12.593 14.1039 12.3321 14.1039 12.0601V1.27342Z" fill="#BBC0CA"/>
</svg>
