<svg width="36" height="36" viewBox="0 0 36 36" fill="none" xmlns="http://www.w3.org/2000/svg">
<rect width="36" height="36" rx="18" fill="#0D0E13"/>
<path d="M13.9999 25.1998C13.8939 25.1983 13.7886 25.2179 13.6902 25.2574C13.5919 25.2969 13.5023 25.3556 13.4268 25.4301C13.3513 25.5045 13.2914 25.5932 13.2505 25.691C13.2095 25.7888 13.1885 25.8938 13.1885 25.9998C13.1885 26.1058 13.2095 26.2108 13.2505 26.3086C13.2914 26.4064 13.3513 26.4951 13.4268 26.5695C13.5023 26.6439 13.5919 26.7026 13.6902 26.7422C13.7886 26.7817 13.8939 26.8013 13.9999 26.7998H21.9999C22.1059 26.8013 22.2111 26.7817 22.3095 26.7422C22.4079 26.7026 22.4974 26.6439 22.5729 26.5695C22.6484 26.4951 22.7084 26.4064 22.7493 26.3086C22.7902 26.2108 22.8113 26.1058 22.8113 25.9998C22.8113 25.8938 22.7902 25.7888 22.7493 25.691C22.7084 25.5932 22.6484 25.5045 22.5729 25.4301C22.4974 25.3556 22.4079 25.2969 22.3095 25.2574C22.2111 25.2179 22.1059 25.1983 21.9999 25.1998H13.9999Z" fill="#535353"/>
<path d="M9.99844 10.8008C9.11444 10.8008 8.39844 11.5168 8.39844 12.4008V22.0008C8.39844 22.8848 9.11444 23.6008 9.99844 23.6008H25.9984C26.8824 23.6008 27.5984 22.8848 27.5984 22.0008V12.4008C27.5984 11.5168 26.8824 10.8008 25.9984 10.8008H9.99844Z" fill="url(#paint0_radial_5068_28271)"/>
<defs>
<radialGradient id="paint0_radial_5068_28271" cx="0" cy="0" r="1" gradientUnits="userSpaceOnUse" gradientTransform="translate(10 12.5) rotate(38.8534) scale(23.1138 34.6708)">
<stop stop-color="#C9C9C9"/>
<stop offset="1" stop-color="#9C9C9C"/>
</radialGradient>
</defs>
</svg>

