<svg width="31" height="35" viewBox="0 0 31 35" fill="none" xmlns="http://www.w3.org/2000/svg">
<path d="M3.75 0C1.6825 0 0 1.6825 0 3.75V29.5833C0 31.6508 1.6825 33.3333 3.75 33.3333H22.5V30.8333H3.75C3.06083 30.8333 2.5 30.2725 2.5 29.5833V3.75C2.5 3.06083 3.06083 2.5 3.75 2.5H13.3333V9.58333C13.3333 11.6508 15.0158 13.3333 17.0833 13.3333H24.1667V18.6247C24.5467 18.443 24.9675 18.3333 25.4167 18.3333C25.8658 18.3333 26.2867 18.443 26.6667 18.6247V12.0833C26.6667 11.7383 26.5266 11.4258 26.3005 11.1995L15.4671 0.366211C15.241 0.139961 14.9288 0 14.5833 0H3.75ZM15.8333 4.26758L22.3991 10.8333H17.0833C16.3942 10.8333 15.8333 10.2725 15.8333 9.58333V4.26758ZM25.4167 20C25.0967 20 24.777 20.122 24.5329 20.3662L20.3662 24.5329C19.8787 25.0212 19.8787 25.8121 20.3662 26.3005C20.8545 26.7888 21.6455 26.7888 22.1338 26.3005L24.1667 24.2676V33.75C24.1667 34.4408 24.7258 35 25.4167 35C26.1075 35 26.6667 34.4408 26.6667 33.75V24.2676L28.6995 26.3005C29.1879 26.7888 29.9788 26.7888 30.4671 26.3005C30.9555 25.813 30.9555 25.0204 30.4671 24.5329L26.3005 20.3662C26.0571 20.122 25.7367 20 25.4167 20Z" fill="#7D8494"/>
</svg>
