<svg width="24" height="24" viewBox="0 0 24 24" fill="none" xmlns="http://www.w3.org/2000/svg">
<path d="M5.72559 8.11853C5.76041 8.16961 5.80036 8.21874 5.8457 8.26404L14.9922 17.4027V19.9379C14.9922 20.2005 14.9021 20.4241 14.7227 20.6088C14.5432 20.7934 14.3242 20.8861 14.0654 20.8861C13.7985 20.886 13.5645 20.7871 13.3643 20.5902L8.35645 15.6781H4.4248C4.15792 15.678 3.93255 15.588 3.74902 15.4076C3.56541 15.227 3.47365 15.0052 3.47363 14.7426V9.05408C3.4737 8.79168 3.56564 8.57047 3.74902 8.39001C3.93257 8.20952 4.15787 8.11861 4.4248 8.11853H5.72559ZM14.0654 2.88611C14.324 2.88611 14.5433 2.98253 14.7227 3.17517C14.9021 3.36806 14.9922 3.59611 14.9922 3.85876V14.5746L8.44336 8.03259L13.3643 3.19373C13.5728 2.98862 13.8068 2.88621 14.0654 2.88611Z" fill="white"/>
<path d="M2.70729 1.71153C3.09775 1.32108 3.73078 1.321 4.12133 1.71137L22.062 19.6435C22.4527 20.034 22.4527 20.6673 22.0621 21.0579C21.6717 21.4483 21.0386 21.4484 20.6481 21.0581L2.70746 3.12592C2.31677 2.73542 2.3167 2.10212 2.70729 1.71153Z" fill="white"/>
</svg>
