<svg width="14" height="14" viewBox="0 0 14 14" fill="none" xmlns="http://www.w3.org/2000/svg">
<path d="M0.302751 13.0305C0.166377 12.8941 0.0763697 12.7358 0.0327299 12.5558C-0.01091 12.3757 -0.01091 12.1956 0.0327299 12.0156C0.0763697 11.8355 0.163649 11.68 0.294569 11.549L5.17132 6.66257L0.294569 1.78433C0.163649 1.65882 0.0763697 1.50604 0.0327299 1.32597C-0.00545498 1.14044 -0.00545498 0.957643 0.0327299 0.777573C0.0763697 0.597504 0.166377 0.439261 0.302751 0.302844C0.433671 0.166428 0.589138 0.0763932 0.769152 0.0327399C0.954621 -0.0109133 1.13736 -0.0109133 1.31738 0.0327399C1.50285 0.0763932 1.66104 0.1637 1.79196 0.294659L6.66871 5.17291L11.5455 0.294659C11.6764 0.1637 11.8318 0.0763932 12.0119 0.0327399C12.1919 -0.0109133 12.3719 -0.0109133 12.5519 0.0327399C12.7319 0.0763932 12.8901 0.169156 13.0265 0.311029C13.1629 0.441989 13.2529 0.597504 13.2965 0.777573C13.3456 0.957643 13.3456 1.13771 13.2965 1.31778C13.2529 1.49785 13.1656 1.65337 13.0347 1.78433L8.1661 6.66257L13.0347 11.549C13.1656 11.68 13.2529 11.8355 13.2965 12.0156C13.3402 12.1956 13.3402 12.3757 13.2965 12.5558C13.2529 12.7358 13.1629 12.8941 13.0265 13.0305C12.8901 13.1669 12.7319 13.2569 12.5519 13.3006C12.3719 13.3442 12.1919 13.3442 12.0119 13.3006C11.8318 13.2569 11.6764 13.1696 11.5455 13.0387L6.66871 8.16043L1.79196 13.0387C1.66104 13.1696 1.50557 13.2569 1.32556 13.3006C1.14555 13.3442 0.962804 13.3442 0.777335 13.3006C0.59732 13.2569 0.439126 13.1669 0.302751 13.0305Z" fill="white"/>
</svg>
