<svg width="15" height="14" viewBox="0 0 15 14" fill="none" xmlns="http://www.w3.org/2000/svg">
<path d="M12.6771 0.000156548C12.5615 -0.00234864 12.4472 0.0252512 12.3455 0.0802463C12.2438 0.135241 12.1581 0.215741 12.097 0.313842C12.0358 0.411943 12.0011 0.524273 11.9964 0.639803C11.9918 0.755333 12.0172 0.870092 12.0703 0.972813C12.0703 0.972813 13.3333 3.51908 13.3333 6.67463C13.3333 9.83019 12.0703 12.3765 12.0703 12.3765C12.0311 12.4548 12.0078 12.54 12.0016 12.6274C11.9953 12.7147 12.0064 12.8024 12.0341 12.8855C12.0618 12.9686 12.1055 13.0454 12.1629 13.1116C12.2203 13.1777 12.2901 13.2319 12.3684 13.2711C12.4468 13.3103 12.532 13.3336 12.6194 13.3398C12.7067 13.346 12.7944 13.3349 12.8775 13.3072C12.9606 13.2795 13.0374 13.2358 13.1035 13.1784C13.1697 13.121 13.2239 13.0511 13.263 12.9728C13.263 12.9728 14.6667 10.1857 14.6667 6.67463C14.6667 3.16352 13.263 0.376459 13.263 0.376459C13.2095 0.265829 13.1265 0.172139 13.0231 0.105733C12.9197 0.0393273 12.7999 0.00279024 12.6771 0.000156548ZM5.98047 0.674636C5.81046 0.679727 5.64883 0.749597 5.52865 0.869948L2.39062 4.00797H0.666667C0.489861 4.00799 0.320302 4.07823 0.195282 4.20325C0.0702612 4.32827 1.76779e-05 4.49783 0 4.67464V8.67463C1.76779e-05 8.85144 0.0702612 9.021 0.195282 9.14602C0.320302 9.27104 0.489861 9.34128 0.666667 9.3413H2.39062L5.52865 12.4793C5.62189 12.5725 5.74067 12.636 5.86997 12.6616C5.99926 12.6873 6.13328 12.6741 6.25507 12.6237C6.37686 12.5732 6.48096 12.4878 6.55423 12.3782C6.62749 12.2686 6.66662 12.1398 6.66667 12.008V1.3413C6.6667 1.25209 6.64882 1.16378 6.6141 1.0816C6.57938 0.999418 6.52852 0.925043 6.46453 0.862877C6.40054 0.800711 6.32473 0.752018 6.24158 0.719684C6.15844 0.68735 6.06964 0.672031 5.98047 0.674636ZM10.6771 2.00016C10.5615 1.99765 10.4472 2.02525 10.3455 2.08025C10.2438 2.13524 10.1581 2.21574 10.097 2.31384C10.0358 2.41194 10.0011 2.52427 9.99645 2.6398C9.99178 2.75533 10.0172 2.87009 10.0703 2.97281C10.0703 2.97281 10.6667 4.11908 10.6667 6.67463C10.6667 9.23019 10.0703 10.3765 10.0703 10.3765C10.0311 10.4548 10.0078 10.54 10.0016 10.6274C9.99534 10.7147 10.0064 10.8024 10.0341 10.8855C10.0618 10.9686 10.1055 11.0454 10.1629 11.1116C10.2203 11.1777 10.2901 11.2319 10.3684 11.2711C10.4468 11.3103 10.532 11.3336 10.6194 11.3398C10.7067 11.346 10.7944 11.3349 10.8775 11.3072C10.9606 11.2795 11.0374 11.2358 11.1035 11.1784C11.1697 11.121 11.2239 11.0511 11.263 10.9728C11.263 10.9728 12 9.45241 12 6.67463C12 3.89686 11.263 2.37646 11.263 2.37646C11.2095 2.26583 11.1265 2.17214 11.0231 2.10573C10.9197 2.03933 10.7999 2.00279 10.6771 2.00016ZM5.33333 2.95068V10.3986L3.13802 8.20328C3.01301 8.07826 2.84347 8.008 2.66667 8.00797H1.33333V5.3413H2.66667C2.84347 5.34127 3.01301 5.27101 3.13802 5.14599L5.33333 2.95068ZM8.39193 4.00797C8.15726 4.00797 8 4.19562 8 4.43896V8.91031C8 9.15365 8.15726 9.3413 8.39193 9.3413C8.68859 9.3413 8.8577 9.17298 8.95703 8.91031C8.97303 8.86898 9.33333 7.8993 9.33333 6.67463C9.33333 5.44997 8.97236 4.48029 8.95703 4.43896C8.85703 4.17629 8.68859 4.00797 8.39193 4.00797Z" fill="white"/>
</svg>
