<svg width="20" height="20" viewBox="0 0 20 20" fill="none" xmlns="http://www.w3.org/2000/svg">
<g filter="url(#filter0_i_5089_29709)">
<path d="M3 3.46667C3 3.20893 3.20893 3 3.46667 3L15.8734 3C16.2891 3 16.4973 3.50267 16.2034 3.79665L3.79665 16.2034C3.50267 16.4973 3 16.2891 3 15.8734L3 3.46667Z" fill="white" fill-opacity="0.1"/>
</g>
<path d="M5.06152 13.8481H7.36328C7.46759 13.8481 7.55176 13.9311 7.55176 14.0337V16.3413C7.55176 16.4439 7.46759 16.5269 7.36328 16.5269H5.06152C4.95722 16.5269 4.87305 16.4439 4.87305 16.3413V14.0337C4.87305 13.9311 4.95722 13.8481 5.06152 13.8481ZM5.06152 10.856H7.36328C7.46759 10.856 7.55176 10.9399 7.55176 11.0425V13.3501C7.55153 13.4525 7.46745 13.5356 7.36328 13.5356H5.06152C4.95736 13.5356 4.87327 13.4525 4.87305 13.3501V11.0425C4.87305 10.9399 4.95722 10.856 5.06152 10.856ZM8.05273 10.856H10.3545C10.4588 10.856 10.5439 10.9399 10.5439 11.0425V13.3501C10.5437 13.4525 10.4587 13.5356 10.3545 13.5356H8.05273C7.94857 13.5356 7.86448 13.4525 7.86426 13.3501V11.0425C7.86426 10.9399 7.94843 10.856 8.05273 10.856ZM5.06152 7.86475H7.36328C7.46746 7.86475 7.55154 7.94788 7.55176 8.05029V10.3579C7.55176 10.4605 7.46759 10.5444 7.36328 10.5444H5.06152C4.95722 10.5444 4.87305 10.4605 4.87305 10.3579V8.05029C4.87326 7.94788 4.95735 7.86475 5.06152 7.86475ZM8.05273 7.86475H10.3545C10.4587 7.86475 10.5437 7.94788 10.5439 8.05029V10.3579C10.5439 10.4605 10.4588 10.5444 10.3545 10.5444H8.05273C7.94843 10.5444 7.86426 10.4605 7.86426 10.3579V8.05029C7.86447 7.94788 7.94856 7.86475 8.05273 7.86475ZM11.0439 7.86475H13.3467C13.4507 7.86497 13.5349 7.94802 13.5352 8.05029V10.3579C13.5352 10.4604 13.4508 10.5442 13.3467 10.5444H11.0439C10.9397 10.5443 10.8555 10.4604 10.8555 10.3579V8.05029C10.8557 7.94794 10.9399 7.86484 11.0439 7.86475ZM5.06152 4.87354H7.36328C7.46759 4.87354 7.55176 4.95649 7.55176 5.05908V7.3667C7.55176 7.46929 7.46759 7.55225 7.36328 7.55225H5.06152C4.95722 7.55225 4.87305 7.46929 4.87305 7.3667V5.05908C4.87305 4.95649 4.95722 4.87354 5.06152 4.87354ZM8.05273 4.87354H10.3545C10.4588 4.87354 10.5439 4.95649 10.5439 5.05908V7.3667C10.5439 7.46929 10.4588 7.55225 10.3545 7.55225H8.05273C7.94843 7.55225 7.86426 7.46929 7.86426 7.3667V5.05908C7.86426 4.95649 7.94843 4.87354 8.05273 4.87354ZM11.0439 4.87354H13.3467C13.4508 4.87377 13.5352 4.95663 13.5352 5.05908V7.3667C13.5352 7.46915 13.4508 7.55202 13.3467 7.55225H11.0439C10.9397 7.55215 10.8555 7.46923 10.8555 7.3667V5.05908C10.8555 4.95655 10.9397 4.87363 11.0439 4.87354ZM14.0352 4.87354H16.3379C16.4421 4.87366 16.5264 4.95656 16.5264 5.05908V7.3667C16.5264 7.46922 16.4421 7.55212 16.3379 7.55225H14.0352C13.931 7.55204 13.8467 7.46917 13.8467 7.3667V5.05908C13.8467 4.95661 13.931 4.87374 14.0352 4.87354Z" fill="url(#paint0_radial_5089_29709)" stroke="url(#paint1_linear_5089_29709)" stroke-width="0.0127723"/>
<defs>
<filter id="filter0_i_5089_29709" x="3" y="3" width="13.4518" height="13.4518" filterUnits="userSpaceOnUse" color-interpolation-filters="sRGB">
<feFlood flood-opacity="0" result="BackgroundImageFix"/>
<feBlend mode="normal" in="SourceGraphic" in2="BackgroundImageFix" result="shape"/>
<feColorMatrix in="SourceAlpha" type="matrix" values="0 0 0 0 0 0 0 0 0 0 0 0 0 0 0 0 0 0 127 0" result="hardAlpha"/>
<feOffset dx="0.110984" dy="0.110984"/>
<feGaussianBlur stdDeviation="0.443936"/>
<feComposite in2="hardAlpha" operator="arithmetic" k2="-1" k3="1"/>
<feColorMatrix type="matrix" values="0 0 0 0 0 0 0 0 0 0 0 0 0 0 0 0 0 0 0.17 0"/>
<feBlend mode="normal" in2="shape" result="effect1_innerShadow_5089_29709"/>
</filter>
<radialGradient id="paint0_radial_5089_29709" cx="0" cy="0" r="1" gradientUnits="userSpaceOnUse" gradientTransform="translate(7.51068 7.95787) rotate(36.4404) scale(6.74352 6.74328)">
<stop stop-color="#80E9F7"/>
<stop offset="1" stop-color="#3952DD"/>
</radialGradient>
<linearGradient id="paint1_linear_5089_29709" x1="10.6995" y1="4.8667" x2="10.6995" y2="16.5337" gradientUnits="userSpaceOnUse">
<stop stop-color="#EDEDED" stop-opacity="0"/>
<stop offset="1" stop-color="#303030"/>
</linearGradient>
</defs>
</svg>
