<svg width="76" height="83" viewBox="0 0 76 83" fill="none" xmlns="http://www.w3.org/2000/svg">
<path d="M67.5685 0.319762L31.6767 11.2993C27.3227 12.5361 23.8017 17.0668 23.8017 21.4207V58.7639C23.8017 58.7639 23.8017 59.2687 23.8017 59.2813C23.8017 59.2813 21.2019 57.5271 15.4093 58.3474C6.90324 59.5589 0 66.0836 0 72.9363C0 79.7891 6.90324 83.979 15.4093 82.7675C23.9279 81.5686 30.1623 75.2458 30.1623 68.3931C30.1623 68.3931 30.1623 39.1016 30.1623 36.0601C30.1623 33.0313 33.8095 31.7188 33.8095 31.7188L65.5493 21.7741C65.5493 21.7741 69.0577 20.6004 69.0577 23.8438C69.0577 27.0998 69.0577 49.7909 69.0577 49.7909C69.0577 49.7909 69.0577 49.8035 69.0577 49.8162C69.0577 49.8162 65.8269 47.9484 60.0342 48.6551C51.5282 49.69 44.625 56.0758 44.625 62.9285C44.625 69.7813 51.5282 74.11 60.0342 73.0752C68.5403 72.0529 75.4435 65.6545 75.4435 58.8017V5.93575C75.4435 1.5944 71.9099 -0.929637 67.5685 0.319762Z" fill="#3B3E48"/>
</svg>
