<svg width="20" height="19" viewBox="0 0 20 19" fill="none" xmlns="http://www.w3.org/2000/svg">
<path fill-rule="evenodd" clip-rule="evenodd" d="M10 0C13.2938 3.30103e-07 15.6007 0.0964916 17.0508 0.18795C18.4965 0.279134 19.6563 1.3043 19.7884 2.69189C19.8968 3.83223 20 5.52964 20 7.85896C20 10.1883 19.8967 11.8857 19.7884 13.026C19.6563 14.4136 18.4965 15.4388 17.0508 15.53C15.8199 15.6076 13.9719 15.6891 11.4269 15.7118L8.10113 18.5135C7.09875 19.3581 5.51324 18.6849 5.51324 17.4146V15.6501C4.46826 15.6159 3.61753 15.5721 2.94922 15.53C1.50347 15.4388 0.343672 14.4136 0.211589 13.026C0.103253 11.8857 3.18739e-08 10.1883 0 7.85896C0 5.52964 0.103253 3.83223 0.211589 2.69189C0.343671 1.3043 1.50346 0.279138 2.94922 0.18795C4.39927 0.0964955 6.70619 0 10 0ZM4.89149 9.88019C4.58432 9.88019 4.33771 9.88719 4.14062 9.89765C3.64585 9.92392 3.34757 10.2719 3.33984 10.7409C3.33795 10.857 3.33659 10.99 3.33659 11.1414C3.33659 11.2929 3.33795 11.4267 3.33984 11.543C3.34765 12.0118 3.64592 12.3599 4.14062 12.3862C4.3377 12.3966 4.58433 12.4036 4.89149 12.4036C5.19867 12.4036 5.4453 12.3966 5.64236 12.3862C6.13684 12.3598 6.4353 12.0117 6.44314 11.543C6.44501 11.4267 6.44531 11.2929 6.44531 11.1414C6.44531 10.99 6.44501 10.857 6.44314 10.7409C6.43538 10.272 6.1369 9.92409 5.64236 9.89765C5.4453 9.88719 5.19867 9.8802 4.89149 9.88019ZM12.6649 9.88019C11.1865 9.88019 10.2564 9.90459 9.67773 9.93154C9.10405 9.95828 8.6854 10.3227 8.67079 10.8662C8.66853 10.9502 8.66645 11.0418 8.66645 11.1414C8.66645 11.2412 8.66853 11.3334 8.67079 11.4177C8.6854 11.9612 9.10405 12.3256 9.67773 12.3523C10.2564 12.3792 11.1865 12.4036 12.6649 12.4036C14.1427 12.4036 15.0723 12.3792 15.651 12.3523C16.2247 12.3256 16.6445 11.9612 16.6591 11.4177C16.6613 11.3334 16.6623 11.2412 16.6623 11.1414C16.6623 11.0418 16.6613 10.9502 16.6591 10.8662C16.6445 10.3227 16.2247 9.95833 15.651 9.93154C15.0723 9.9046 14.1428 9.88019 12.6649 9.88019ZM7.11263 5.2554C5.76115 5.2554 4.89441 5.27777 4.34462 5.30367C3.76872 5.33085 3.35352 5.69987 3.33984 6.24547C3.33778 6.32839 3.33659 6.41872 3.33659 6.51661C3.33659 6.61446 3.33778 6.70487 3.33984 6.78775C3.35344 7.33343 3.76868 7.70236 4.34462 7.72955C4.89441 7.75545 5.76115 7.77783 7.11263 7.77783C8.46382 7.77782 9.32984 7.75545 9.87956 7.72955C10.4555 7.70239 10.8707 7.33345 10.8843 6.78775C10.8864 6.70487 10.8876 6.61446 10.8876 6.51661C10.8876 6.41872 10.8864 6.32839 10.8843 6.24547C10.8707 5.69985 10.4555 5.33082 9.87956 5.30367C9.32984 5.27777 8.46382 5.2554 7.11263 5.2554ZM14.8861 5.2554C14.5005 5.2554 14.1981 5.2637 13.9627 5.27594C13.4431 5.30314 13.1201 5.66455 13.112 6.15715C13.1103 6.26335 13.1087 6.38271 13.1087 6.51661C13.1087 6.65078 13.1102 6.77073 13.112 6.87711C13.1201 7.36964 13.4431 7.73007 13.9627 7.75728C14.1981 7.76952 14.5005 7.77783 14.8861 7.77783C15.2714 7.77782 15.5731 7.76952 15.8084 7.75728C16.3281 7.73017 16.652 7.36972 16.6602 6.87711C16.6619 6.77073 16.6623 6.65078 16.6623 6.51661C16.6623 6.38272 16.6619 6.26335 16.6602 6.15715C16.6521 5.66446 16.3281 5.30303 15.8084 5.27594C15.573 5.26371 15.2714 5.2554 14.8861 5.2554Z" fill="white"/>
</svg>
