<svg width="15" height="13" viewBox="0 0 15 13" fill="none" xmlns="http://www.w3.org/2000/svg">
<path d="M1.36364 0C0.610227 0 0 0.610227 0 1.36364V9.54545C0 10.2989 0.610227 10.9091 1.36364 10.9091H4.77273V11.5909C4.77273 11.9673 5.07818 12.2727 5.45455 12.2727H9.54545C9.92182 12.2727 10.2273 11.9673 10.2273 11.5909V10.9091H13.6364C14.3898 10.9091 15 10.2989 15 9.54545V1.36364C15 0.610227 14.3898 0 13.6364 0H1.36364ZM2.04545 1.36364H12.9545C13.3309 1.36364 13.6364 1.66909 13.6364 2.04545V8.86364C13.6364 9.24 13.3309 9.54545 12.9545 9.54545H2.04545C1.66909 9.54545 1.36364 9.24 1.36364 8.86364V2.04545C1.36364 1.66909 1.66909 1.36364 2.04545 1.36364Z" fill="#555967"/>
</svg>
