<svg width="24" height="25" viewBox="0 0 24 25" fill="none" xmlns="http://www.w3.org/2000/svg">
<path d="M0.23999 7.64849C0.23999 6.20707 1.41191 5.03516 2.85332 5.03516H13.3067C14.7481 5.03516 15.92 6.20707 15.92 7.64849V18.1018C15.92 19.5432 14.7481 20.7152 13.3067 20.7152H2.85332C1.41191 20.7152 0.23999 19.5432 0.23999 18.1018V7.64849ZM23.0699 6.49699C23.4946 6.72566 23.76 7.16666 23.76 7.64849V18.1018C23.76 18.5837 23.4946 19.0247 23.0699 19.2533C22.6452 19.482 22.1307 19.4575 21.7265 19.188L17.8065 16.5747L17.2267 16.1867V9.56357L17.8065 9.17566L21.7265 6.56232C22.1267 6.29691 22.6412 6.26832 23.0699 6.49699Z" fill="white"/>
</svg>
