<?xml version="1.0" encoding="utf-8"?><!-- Uploaded to: SVG Repo, www.svgrepo.com, Generator: SVG Repo Mixer Tools -->
<svg width="800px" height="800px" viewBox="0 0 24 24" fill="none" xmlns="http://www.w3.org/2000/svg">
<path d="M5 16.9866C4.67275 16.9698 4.43855 16.9322 4.23463 16.8478C3.74458 16.6448 3.35523 16.2554 3.15224 15.7654C3 15.3978 3 14.9319 3 14V7.2C3 6.0799 3 5.51984 3.21799 5.09202C3.40973 4.71569 3.71569 4.40973 4.09202 4.21799C4.51984 4 5.0799 4 6.2 4H17.8C18.9201 4 19.4802 4 19.908 4.21799C20.2843 4.40973 20.5903 4.71569 20.782 5.09202C21 5.51984 21 6.0799 21 7.2V14C21 14.9319 21 15.3978 20.8478 15.7654C20.6448 16.2554 20.2554 16.6448 19.7654 16.8478C19.5615 16.9322 19.3273 16.9698 19 16.9866M9.14074 20H14.8593C15.4237 20 15.706 20 15.8367 19.875C15.9501 19.7666 16.0103 19.6039 15.9986 19.4375C15.9851 19.2456 15.7855 19.0222 15.3863 18.5753L12.5271 15.3741C12.3426 15.1675 12.2503 15.0642 12.144 15.0255C12.0504 14.9915 11.9496 14.9915 11.856 15.0255C11.7497 15.0642 11.6574 15.1675 11.4729 15.3741L8.61365 18.5753C8.2145 19.0222 8.01492 19.2456 8.00144 19.4375C7.98974 19.6039 8.04992 19.7666 8.16332 19.875C8.29401 20 8.57626 20 9.14074 20Z" stroke="#000000" stroke-width="2" stroke-linecap="round" stroke-linejoin="round"/>
</svg>