<svg width="24" height="24" viewBox="0 0 24 24" fill="none" xmlns="http://www.w3.org/2000/svg">
<path d="M7.24976 1H2.24976C2.08558 0.999907 1.92299 1.03218 1.77129 1.09496C1.61959 1.15775 1.48176 1.24982 1.36566 1.36591C1.24957 1.482 1.1575 1.61984 1.09472 1.77154C1.03193 1.92323 0.999663 2.08582 0.999756 2.25V7.25C0.999756 7.58152 1.13145 7.89946 1.36587 8.13388C1.60029 8.3683 1.91824 8.5 2.24976 8.5C2.58128 8.5 2.89922 8.3683 3.13364 8.13388C3.36806 7.89946 3.49976 7.58152 3.49976 7.25V3.5H7.24976C7.58128 3.5 7.89922 3.3683 8.13364 3.13388C8.36806 2.89946 8.49976 2.58152 8.49976 2.25C8.49976 1.91848 8.36806 1.60054 8.13364 1.36612C7.89922 1.1317 7.58128 1 7.24976 1Z" fill="#c9c9c9"/>
<path d="M19.7498 1H14.7498C14.4182 1 14.1003 1.1317 13.8659 1.36612C13.6315 1.60054 13.4998 1.91848 13.4998 2.25C13.4998 2.58152 13.6315 2.89946 13.8659 3.13388C14.1003 3.3683 14.4182 3.5 14.7498 3.5H18.4998V7.25C18.4998 7.58152 18.6315 7.89946 18.8659 8.13388C19.1003 8.3683 19.4182 8.5 19.7498 8.5C20.0813 8.5 20.3992 8.3683 20.6336 8.13388C20.8681 7.89946 20.9998 7.58152 20.9998 7.25V2.25C20.9998 2.08582 20.9676 1.92323 20.9048 1.77154C20.842 1.61984 20.7499 1.482 20.6338 1.36591C20.5178 1.24982 20.3799 1.15775 20.2282 1.09496C20.0765 1.03218 19.9139 0.999907 19.7498 1Z" fill="#c9c9c9"/>
<path d="M7.24976 18.5H3.49976V14.75C3.49976 14.4185 3.36806 14.1005 3.13364 13.8661C2.89922 13.6317 2.58128 13.5 2.24976 13.5C1.91824 13.5 1.60029 13.6317 1.36587 13.8661C1.13145 14.1005 0.999756 14.4185 0.999756 14.75V19.75C0.999663 19.9142 1.03193 20.0768 1.09472 20.2285C1.1575 20.3802 1.24957 20.518 1.36566 20.6341C1.48176 20.7502 1.61959 20.8423 1.77129 20.905C1.92299 20.9678 2.08558 21.0001 2.24976 21H7.24976C7.58128 21 7.89922 20.8683 8.13364 20.6339C8.36806 20.3995 8.49976 20.0815 8.49976 19.75C8.49976 19.4185 8.36806 19.1005 8.13364 18.8661C7.89922 18.6317 7.58128 18.5 7.24976 18.5Z" fill="#c9c9c9"/>
<path d="M19.7498 13.5C19.5856 13.4999 19.423 13.5322 19.2713 13.595C19.1196 13.6577 18.9818 13.7498 18.8657 13.8659C18.7496 13.982 18.6575 14.1198 18.5947 14.2715C18.5319 14.4232 18.4997 14.5858 18.4998 14.75V18.5H14.7498C14.4182 18.5 14.1003 18.6317 13.8659 18.8661C13.6315 19.1005 13.4998 19.4185 13.4998 19.75C13.4998 20.0815 13.6315 20.3995 13.8659 20.6339C14.1003 20.8683 14.4182 21 14.7498 21H19.7498C19.9139 21.0001 20.0765 20.9678 20.2282 20.905C20.3799 20.8423 20.5178 20.7502 20.6338 20.6341C20.7499 20.518 20.842 20.3802 20.9048 20.2285C20.9676 20.0768 20.9998 19.9142 20.9998 19.75V14.75C20.9998 14.5858 20.9676 14.4232 20.9048 14.2715C20.842 14.1198 20.7499 13.982 20.6338 13.8659C20.5178 13.7498 20.3799 13.6577 20.2282 13.595C20.0765 13.5322 19.9139 13.4999 19.7498 13.5Z" fill="#c9c9c9"/>
</svg>
