<svg width="24" height="24" viewBox="0 0 24 24" fill="none" xmlns="http://www.w3.org/2000/svg">
<path d="M11.0983 5.42381V18.2487C11.0983 18.4582 11.028 18.6366 10.8872 18.7839C10.7464 18.9312 10.5746 19.0048 10.3717 19.0048C10.1622 19.0048 9.97886 18.9263 9.82174 18.7691L5.89375 14.851H2.81028C2.60079 14.851 2.42403 14.779 2.28 14.6349C2.13598 14.4909 2.06396 14.3142 2.06396 14.1047V9.56784C2.06396 9.35834 2.13598 9.18158 2.28 9.03756C2.42403 8.89353 2.60079 8.82152 2.81028 8.82152H5.89375L9.82174 4.89353C9.9854 4.72987 10.1687 4.64803 10.3717 4.64803C10.5746 4.64803 10.7464 4.72496 10.8872 4.8788C11.028 5.03265 11.0983 5.21432 11.0983 5.42381Z" fill="white"/>
<path fill-rule="evenodd" clip-rule="evenodd" d="M14 4.34892V2C18.5724 3.03763 21.9818 7.11973 21.9818 12C21.9818 16.8803 18.5724 20.9624 14 22V19.6511C17.2953 18.6705 19.7013 15.6146 19.7013 12C19.7013 8.38541 17.2953 5.32953 14 4.34892ZM14 7.4048C15.6876 8.24858 16.8506 9.98176 16.8506 12C16.8506 14.0183 15.6876 15.7514 14 16.5838V7.4048Z" fill="white"/>
</svg>
