<?xml version="1.0" encoding="UTF-8" standalone="no"?>
<svg
   width="24"
   height="24"
   viewBox="0 0 24 24"
   fill="none"
   version="1.1"
   id="svg1"
   sodipodi:docname="icon24_speed_active_temp.svg"
   inkscape:version="1.3.2 (091e20ef0f, 2023-11-25)"
   xmlns:inkscape="http://www.inkscape.org/namespaces/inkscape"
   xmlns:sodipodi="http://sodipodi.sourceforge.net/DTD/sodipodi-0.dtd"
   xmlns="http://www.w3.org/2000/svg"
   xmlns:svg="http://www.w3.org/2000/svg">
  <defs
     id="defs1" />
  <sodipodi:namedview
     id="namedview1"
     pagecolor="#ffffff"
     bordercolor="#000000"
     borderopacity="0.25"
     inkscape:showpageshadow="2"
     inkscape:pageopacity="0.0"
     inkscape:pagecheckerboard="true"
     inkscape:deskcolor="#d1d1d1"
     inkscape:zoom="45.254834"
     inkscape:cx="9.9768347"
     inkscape:cy="11.159029"
     inkscape:window-width="2560"
     inkscape:window-height="1368"
     inkscape:window-x="0"
     inkscape:window-y="0"
     inkscape:window-maximized="1"
     inkscape:current-layer="svg1" />
  <path
     fill-rule="evenodd"
     clip-rule="evenodd"
     d="M 13.7129,1.20037 C 13.5599,1.1763 13.4038,1.18275 13.2534,1.21936 13.1029,1.25597 12.9611,1.32202 12.8361,1.41374 12.711,1.50546 12.6052,1.62105 12.5245,1.75392 c -0.0806,0.13287 -0.1344,0.28041 -0.1584,0.43419 -0.0239,0.15379 -0.0175,0.31081 0.0189,0.4621 0.0364,0.1513 0.1021,0.2939 0.1933,0.41967 0.0912,0.12576 0.2061,0.23223 0.3383,0.31333 0.1321,0.08109 0.2788,0.13522 0.4317,0.15929 3.389098,0.232344 5.207929,2.038111 6.604054,4.253237 1.118996,1.775427 1.325364,4.141017 0.792011,6.245906 -0.430385,1.678707 -1.358294,3.188482 -2.663099,4.333639 -1.304899,1.145121 -2.926554,1.872712 -4.654699,2.088365 -0.157845,0.01485 -0.311047,0.06109 -0.450441,0.135992 -0.139396,0.07491 -0.262211,0.176936 -0.361116,0.300045 -0.09891,0.123118 -0.171919,0.264807 -0.21471,0.416667 -0.04279,0.151859 -0.05447,0.310816 -0.03436,0.467418 0.0201,0.156603 0.07167,0.307691 0.151516,0.444297 0.07976,0.136572 0.186337,0.25591 0.31331,0.350903 0.126873,0.09498 0.271635,0.163699 0.42563,0.202072 0.153995,0.03837 0.314022,0.0456 0.470684,0.02128 2.551396,-0.319899 4.90852,-1.514905 6.665935,-3.379393 1.757318,-1.864512 2.80501,-4.281972 2.962701,-6.836347 C 23.513427,10.032106 22.806641,7.372284 21.257196,5.427038 19.461266,3.172344 17.377145,1.625939 13.7129,1.20037 Z"
     fill="#c9c9c9"
     id="path1"
     style="display:inline"
     sodipodi:nodetypes="cccccscccacccccssccscccac"
     inkscape:label="circle" />
  <path
     fill-rule="evenodd"
     clip-rule="evenodd"
     d="M 8.07143,15.3046 V 9.35604 C 8.07157,9.08675 8.14013,8.82197 8.2706,8.58682 8.40107,8.35166 8.58912,8.15394 8.81691,8.0124 9.04469,7.87086 9.30467,7.79021 9.57215,7.77809 9.83964,7.76598 10.1058,7.8228 10.3453,7.94317 l 5.9148,2.97433 c 0.2607,0.1313 0.4799,0.3331 0.6331,0.5826 0.1531,0.2495 0.2343,0.537 0.2343,0.8302 0,0.2933 -0.0812,0.5807 -0.2343,0.8302 -0.1532,0.2496 -0.3724,0.4513 -0.6331,0.5827 l -5.9148,2.9743 C 10.1058,16.8378 9.83964,16.8947 9.57215,16.8826 9.30467,16.8704 9.04469,16.7898 8.81691,16.6482 8.58912,16.5067 8.40107,16.309 8.2706,16.0738 8.14013,15.8387 8.07157,15.5739 8.07143,15.3046 Z"
     fill="#c9c9c9"
     id="path2"
     sodipodi:nodetypes="ccccccccsccccccc"
     style="display:inline"
     inkscape:label="play" />
  <path
     fill-rule="evenodd"
     clip-rule="evenodd"
     d="M 10.6863,2.31225 C 10.725,2.46314 10.7338,2.62022 10.7121,2.77452 10.6904,2.92881 10.6387,3.07729 10.5598,3.21146 10.481,3.34562 10.3767,3.46284 10.2528,3.55641 10.1289,3.64997 9.98781,3.71804 9.83771,3.75673 9.44403,3.8586 9.05806,3.98852 8.68271,4.1455 8.53981,4.20527 8.38659,4.23615 8.23182,4.23637 8.07705,4.23659 7.92375,4.20616 7.78068,4.14679 7.6376,4.08743 7.50755,4.00031 7.39796,3.8904 7.28836,3.7805 7.20136,3.64996 7.14193,3.50624 7.0825,3.36251 7.05179,3.20843 7.05157,3.05277 7.05135,2.89712 7.08162,2.74295 7.14064,2.59905 7.19967,2.45516 7.28629,2.32437 7.39558,2.21415 7.50486,2.10393 7.63467,2.01644 7.77757,1.95667 8.25214,1.75754 8.744,1.5916 9.25157,1.46043 9.40149,1.42171 9.55753,1.41307 9.71078,1.435 c 0.15324,0.02194 0.30072,0.07402 0.43392,0.15327 0.1332,0.07924 0.2496,0.18411 0.3425,0.3086 0.093,0.1245 0.1606,0.2646 0.1991,0.41538 z M 6.005,4.26087 C 6.2224,4.48645 6.34188,4.78959 6.33716,5.10371 6.33245,5.41782 6.20393,5.71721 5.97986,5.93608 5.39555,6.50882 4.89314,7.16036 4.487,7.87205 4.4123,8.01106 4.31071,8.13365 4.18821,8.2326 4.06572,8.33156 3.92478,8.40488 3.7737,8.44826 3.62261,8.49163 3.46443,8.50419 3.30845,8.48519 3.15247,8.46619 3.00185,8.41602 2.86543,8.33762 2.72901,8.25922 2.60956,8.15419 2.51409,8.02868 2.41862,7.90318 2.34907,7.75975 2.30953,7.60682 2.26999,7.45389 2.26125,7.29455 2.28382,7.13818 2.3064,6.9818 2.35984,6.83155 2.441,6.69625 2.95566,5.7904 3.59471,4.96203 4.33929,4.23558 4.56358,4.01694 4.86501,3.89679 5.17735,3.90153 5.48968,3.90627 5.78737,4.03552 6.005,4.26087 Z"
     fill="#c9c9c9"
     id="path5"
     style="display:inline"
     sodipodi:nodetypes="csccccscccsccccccccccccccsscscccsc"
     inkscape:label="dash-top" />
  <path
     fill-rule="evenodd"
     clip-rule="evenodd"
     d="m 2.5268743,9.5228951 c 0.3098728,0.046129 0.589468,0.2134487 0.7773467,0.4652329 0.1878804,0.25177 0.2686758,0.567403 0.22464,0.877519 -0.1136188,0.810272 -0.1142716,1.633023 -0.00195,2.44471 0.025607,0.155718 0.019891,0.314829 -0.016815,0.467963 -0.036692,0.153135 -0.103645,0.297209 -0.1968964,0.423744 -0.093265,0.126534 -0.2109436,0.232979 -0.3461307,0.313074 -0.1351869,0.08009 -0.285141,0.132222 -0.4410639,0.153317 -0.155923,0.0211 -0.3146436,0.01076 -0.4668564,-0.03047 C 1.9069428,14.596772 1.7643374,14.525546 1.6397164,14.428487 1.5150953,14.331426 1.4109697,14.2105 1.3334655,14.072826 1.2559631,13.935137 1.2066531,13.783482 1.1884279,13.626763 1.043654,12.595027 1.0447093,11.548805 1.1915583,10.518968 1.2359088,10.2089 1.4014648,9.9298163 1.6518506,9.7430394 1.9022287,9.5562686 2.2169594,9.4770886 2.5268743,9.5228951 Z"
     fill="#c9c9c9"
     id="path7"
     style="display:inline"
     sodipodi:nodetypes="ccccccsscscccsc"
     inkscape:label="dash-center"
     inkscape:transform-center-x="8.70364"
     inkscape:transform-center-y="0.089703669" />
  <path
     fill-rule="evenodd"
     clip-rule="evenodd"
     d="m 2.9263167,15.692773 c 0.2757306,-0.148735 0.5998338,-0.182299 0.9011147,-0.09328 0.3012739,0.089 0.5550776,0.293292 0.7056331,0.567965 0.3945227,0.716798 0.886966,1.375904 1.4632309,1.958459 0.1138029,0.10933 0.2045599,0.240142 0.266925,0.384737 0.062378,0.144591 0.095098,0.300056 0.096254,0.457235 0.00115,0.157187 -0.029296,0.312918 -0.089537,0.458044 -0.060243,0.145126 -0.1490677,0.276708 -0.2612635,0.387021 -0.112196,0.110313 -0.2454778,0.197121 -0.3920371,0.255324 -0.1465494,0.05821 -0.3033987,0.08662 -0.4613283,0.08359 -0.1579298,-0.003 -0.3137503,-0.03748 -0.4582919,-0.101261 C 4.5524683,19.986807 4.4221224,19.894932 4.3136299,19.780379 3.5795376,19.04109 2.9535201,18.202827 2.4540459,17.290329 2.3037709,17.015508 2.2691013,16.692871 2.3576556,16.39331 2.4462071,16.093759 2.6507458,15.841788 2.9263167,15.692773 Z m 4.1953049,4.873184 c 0.1254576,-0.286226 0.3601429,-0.510811 0.6524735,-0.624396 0.2923085,-0.113581 0.618309,-0.106861 0.9063581,0.01865 0.3756122,0.163711 0.762213,0.30108 1.156869,0.411084 0.3028188,0.08453 0.5598248,0.285213 0.7145048,0.55787 0.154676,0.272665 0.194271,0.594953 0.110218,0.89602 -0.08406,0.301066 -0.284866,0.556237 -0.55841,0.709339 -0.273548,0.153148 -0.5973332,0.19167 -0.9001528,0.107127 C 8.6966635,22.50016 8.2055345,22.325523 7.7348173,22.119051 7.4469054,21.993382 7.2204524,21.759141 7.1055001,21.467913 6.9904996,21.176672 6.9963029,20.852243 7.1216216,20.565957 Z"
     fill="#c9c9c9"
     id="path10"
     style="display:inline"
     sodipodi:nodetypes="cccccsscscccsccccccscscccc"
     inkscape:label="dash-bottom"
     inkscape:transform-center-x="6.0933879"
     inkscape:transform-center-y="4.6677941" />
</svg>
