<svg width="14" height="14" viewBox="0 0 14 14" fill="none" xmlns="http://www.w3.org/2000/svg">
<path d="M9.34499 0C8.32383 0 7.30285 0.387194 6.52858 1.16146L5.12233 2.56771C5.04236 2.6445 4.9785 2.73647 4.93452 2.83824C4.89053 2.94002 4.86729 3.04954 4.86617 3.16041C4.86504 3.27128 4.88604 3.38126 4.92795 3.4839C4.96986 3.58655 5.03183 3.6798 5.11022 3.7582C5.18862 3.8366 5.28188 3.89857 5.38452 3.94048C5.48717 3.98238 5.59715 4.00339 5.70802 4.00226C5.81888 4.00113 5.92841 3.9779 6.03018 3.93391C6.13196 3.88992 6.22393 3.82607 6.30072 3.74609L7.70697 2.33984C8.61844 1.42837 10.0715 1.42837 10.983 2.33984C11.8945 3.25132 11.8945 4.70441 10.983 5.61589L9.57676 7.02213C9.49678 7.09892 9.43293 7.1909 9.38895 7.29267C9.34496 7.39444 9.32172 7.50397 9.32059 7.61484C9.31947 7.72571 9.34047 7.83568 9.38238 7.93833C9.42429 8.04098 9.48625 8.13423 9.56465 8.21263C9.64305 8.29103 9.73631 8.35299 9.83895 8.3949C9.9416 8.43681 10.0516 8.45782 10.1624 8.45669C10.2733 8.45556 10.3828 8.43232 10.4846 8.38834C10.5864 8.34435 10.6784 8.2805 10.7551 8.20052L12.1614 6.79427C13.7099 5.24574 13.7099 2.70999 12.1614 1.16146C11.3871 0.387194 10.3662 0 9.34499 0ZM8.4778 3.98698C8.26144 3.99317 8.05598 4.0833 7.90489 4.23828L4.23822 7.90495C4.08178 8.06138 3.9939 8.27356 3.9939 8.49479C3.9939 8.60433 4.01547 8.71281 4.05739 8.81401C4.09932 8.91522 4.16076 9.00718 4.23822 9.08463C4.31568 9.16209 4.40764 9.22354 4.50884 9.26546C4.61005 9.30738 4.71852 9.32896 4.82806 9.32896C5.0493 9.32896 5.26147 9.24107 5.41791 9.08463L9.08457 5.41797C9.2052 5.30086 9.2876 5.15001 9.32093 4.98522C9.35427 4.82044 9.33698 4.64942 9.27135 4.49463C9.20572 4.33985 9.09481 4.20853 8.95318 4.11793C8.81156 4.02733 8.64584 3.98168 8.4778 3.98698ZM3.13796 4.8724C2.92141 4.87893 2.71592 4.96953 2.56504 5.125L1.1614 6.52865C-0.387132 8.07717 -0.387132 10.6129 1.1614 12.1615C2.70992 13.71 5.24568 13.71 6.79421 12.1615L8.19916 10.7578C8.27913 10.681 8.34298 10.589 8.38697 10.4873C8.43095 10.3855 8.45419 10.276 8.45532 10.1651C8.45644 10.0542 8.43544 9.94427 8.39353 9.84162C8.35162 9.73898 8.28965 9.64572 8.21126 9.56733C8.13286 9.48893 8.03961 9.42696 7.93696 9.38505C7.83431 9.34315 7.72434 9.32214 7.61347 9.32327C7.50261 9.32439 7.39308 9.34763 7.29131 9.39162C7.18953 9.4356 7.09756 9.49945 7.02077 9.57943L5.61582 10.9831C4.70435 11.8945 3.25125 11.8945 2.33978 10.9831C1.42831 10.0716 1.42831 8.6185 2.33978 7.70703L3.74343 6.30339C3.86396 6.18635 3.94632 6.03562 3.97969 5.87097C4.01305 5.70631 3.99588 5.53541 3.93041 5.38068C3.86495 5.22596 3.75425 5.09463 3.61283 5.00393C3.47142 4.91322 3.30589 4.86737 3.13796 4.8724Z" fill="#555967"/>
</svg>
